<?xml version="1.0" encoding="UTF-8" standalone="no"?>
<svg
   xmlns:dc="http://purl.org/dc/elements/1.1/"
   xmlns:cc="http://creativecommons.org/ns#"
   xmlns:rdf="http://www.w3.org/1999/02/22-rdf-syntax-ns#"
   xmlns:svg="http://www.w3.org/2000/svg"
   xmlns="http://www.w3.org/2000/svg"
   version="1.1"
   id="svg2"
   xml:space="preserve"
   width="2579.1201"
   height="1469.5333"
   viewBox="0 0 2579.1201 1469.5333"><metadata
     id="metadata8"><rdf:RDF><cc:Work
         rdf:about=""><dc:format>image/svg+xml</dc:format><dc:type
           rdf:resource="http://purl.org/dc/dcmitype/StillImage" /></cc:Work></rdf:RDF></metadata><defs
     id="defs6"><clipPath
       clipPathUnits="userSpaceOnUse"
       id="clipPath20"><path
         d="M 0,0 H 1934.337 V 1102.154 H 0 Z"
         id="path18" /></clipPath><clipPath
       clipPathUnits="userSpaceOnUse"
       id="clipPath28"><path
         d="M 694.519,119.772 H 1082.02 V -356.873 H 694.519 Z"
         id="path26" /></clipPath><clipPath
       clipPathUnits="userSpaceOnUse"
       id="clipPath44"><path
         d="m 1672.16,1338.45 h 688.07 V 492.089 h -688.07 z"
         id="path42" /></clipPath><clipPath
       clipPathUnits="userSpaceOnUse"
       id="clipPath60"><path
         d="m -175.71,281.789 h 982.54 v -876.81 h -982.54 z"
         id="path58" /></clipPath><clipPath
       clipPathUnits="userSpaceOnUse"
       id="clipPath86"><path
         d="M 0,1102.154 H 1934.337 V 0 H 0 Z"
         id="path84" /></clipPath></defs><g
     id="g10"
     transform="matrix(1.3333333,0,0,-1.3333333,0,1469.5333)"><path
       d="M 0,0 H 1934.337 V 1102.154 H 0 Z"
       style="fill:#ef9722;fill-opacity:1;fill-rule:nonzero;stroke:none"
       id="path12" /><g
       id="g14"><g
         id="g16"
         clip-path="url(#clipPath20)"><g
           id="g22"><g
             id="g24" /><g
             id="g36"><g
               clip-path="url(#clipPath28)"
               id="g34"><g
                 transform="translate(889.9886,113.1599)"
                 id="g32"><path
                   d="m 0,0 c 84.814,-21.11 156.326,-89.144 181.631,-172.803 25.308,-83.657 3.5,-179.921 -55.394,-244.503 -16.484,-18.076 -35.918,-33.943 -58.521,-43.304 -36.073,-14.939 -78.801,-11.748 -113.067,6.964 -35.236,19.242 -57.433,51.268 -67.523,89.658 -11.222,42.697 -4.906,90.612 -25.188,130.88 -17.956,35.65 -49.153,62.573 -56.112,103.651 -7.709,45.52 19.824,92.47 59.784,115.593 C -94.429,9.257 -44.8,11.15 0,0"
                   style="fill:#d47c1d;fill-opacity:1;fill-rule:nonzero;stroke:none"
                   id="path30" /></g></g></g></g><g
           id="g38"><g
             id="g40" /><g
             id="g52"><g
               clip-path="url(#clipPath44)"
               id="g50"><g
                 transform="translate(2019.2523,1326.7067)"
                 id="g48"><path
                   d="m 0,0 c 150.601,-37.484 277.581,-158.289 322.515,-306.838 44.938,-148.547 6.213,-319.479 -98.361,-434.154 -29.271,-32.097 -63.778,-60.272 -103.913,-76.893 -64.054,-26.526 -139.924,-20.862 -200.769,12.366 -62.566,34.167 -101.981,91.033 -119.898,159.201 -19.926,75.816 -8.712,160.896 -44.725,232.398 -31.884,63.303 -87.279,111.108 -99.635,184.049 -13.69,80.827 35.2,164.195 106.155,205.253 C -167.674,16.437 -79.55,19.799 0,0"
                   style="fill:#d47c1d;fill-opacity:1;fill-rule:nonzero;stroke:none"
                   id="path46" /></g></g></g></g><g
           id="g54"><g
             id="g56" /><g
             id="g68"><g
               clip-path="url(#clipPath60)"
               id="g66"><g
                 transform="translate(325.2935,-519.19)"
                 id="g64"><path
                   d="m 0,0 0.004,-0.004 c 84.805,78.061 192.393,114.388 240.208,127.541 6.022,1.255 12.01,2.642 17.949,4.215 2.292,0.607 4.572,1.242 6.844,1.894 0.024,0.005 0.062,0.013 0.062,0.013 l -0.008,0.003 c 76.268,21.904 140.317,68.95 180.104,143.167 39.856,74.341 48.159,167.582 18.936,246.774 -18.311,49.62 -50.123,92.493 -86.594,128.984 -130.303,130.368 -327.229,180.586 -500.174,127.554 -172.949,-53.027 -315.679,-207.395 -362.527,-392.08 -22.677,-89.397 -22.982,-187.932 12.426,-271.433 0.901,-2.447 1.834,-4.889 2.805,-7.326 60.07,-150.745 230.97,-224.252 381.715,-164.181 C -54.829,-41.561 -25.214,-22.786 0,0"
                   style="fill:#e6ad29;fill-opacity:1;fill-rule:nonzero;stroke:none"
                   id="path62" /></g></g></g></g></g></g><text
       transform="matrix(0.99757027,0,0,-1,225.6851,724.1611)"
       style="font-variant:normal;font-weight:bold;font-stretch:normal;font-size:59.8832px;font-family:Gotham;-inkscape-font-specification:Gotham-Bold;writing-mode:lr-tb;fill:#ffffff;fill-opacity:1;fill-rule:nonzero;stroke:none"
       id="text74"><tspan
         x="0 56.769272 108.86766 160.96605 209.53131 261.6297 303.48807 326.24368 377.86301 422.77539 445.53101 502.30029 554.39868 602.48486 651.46936"
         y="0"
         id="tspan70">MANUAL DE MARCA</tspan><tspan
         x="0 43.594971 88.50737 137.49182 189.59021 245.28159 284.74463 340.436 392.17508 417.08649 469.18488 491.94049 536.85291 559.60852 601.82617 652.42749 702.48981 754.10913"
         y="296.66138"
         id="tspan72">TECNOLOGIA E SAÚDE</tspan></text><text
       transform="matrix(1,0,0,-1,1533.8315,118.3784)"
       style="font-variant:normal;font-weight:500;font-stretch:normal;font-size:13.8473px;font-family:'Gotham Medium';-inkscape-font-specification:Gotham-Medium;writing-mode:lr-tb;fill:#ffffff;fill-opacity:1;fill-rule:nonzero;stroke:none"
       id="text78"><tspan
         x="0 12.573348 24.066607 34.632099 45.239128 55.056866 64.542267 69.485748 80.979012 92.389183 97.097267 102.04076 113.53401 123.01942 132.851 144.26117 154.82666 166.31992 177.70241"
         y="0"
         id="tspan76">MARKETING INTEGRADO</tspan></text><g
       id="g80"><g
         id="g82"
         clip-path="url(#clipPath86)"><g
           id="g88"
           transform="translate(1625.239,161.4206)"><path
             d="m 0,0 c -4.785,0 -9.615,1.67 -13.406,5.055 l 4.108,4.92 c 2.844,-2.347 5.823,-3.836 9.434,-3.836 2.843,0 4.559,1.128 4.559,2.979 v 0.09 c 0,1.76 -1.083,2.663 -6.365,4.017 -6.365,1.625 -10.472,3.386 -10.472,9.66 v 0.09 c 0,5.733 4.604,9.524 11.059,9.524 4.604,0 8.531,-1.444 11.736,-4.017 L 7.042,23.246 c -2.799,1.941 -5.552,3.115 -8.216,3.115 -2.662,0 -4.062,-1.219 -4.062,-2.754 v -0.09 c 0,-2.077 1.354,-2.754 6.816,-4.153 6.41,-1.67 10.021,-3.972 10.021,-9.479 V 9.795 C 11.601,3.521 6.816,0 0,0 M 25.433,-12.255 C 32.696,-6.7 43.576,0.67 54.33,0.67 c 3.54,0 6.918,-0.719 10.145,-1.881 -0.271,0.241 -0.548,0.489 -0.829,0.742 -0.083,0.075 -0.167,0.152 -0.251,0.227 -0.197,0.179 -0.398,0.36 -0.6,0.546 C 62.688,0.401 62.58,0.499 62.472,0.598 62.281,0.774 62.086,0.953 61.89,1.134 61.778,1.237 61.667,1.34 61.553,1.446 61.318,1.663 61.078,1.887 60.835,2.114 60.7,2.24 60.563,2.368 60.425,2.497 60.18,2.727 59.932,2.96 59.679,3.2 59.542,3.328 59.402,3.462 59.263,3.593 59.062,3.784 58.859,3.976 58.653,4.173 58.5,4.318 58.346,4.465 58.19,4.614 c -0.213,0.204 -0.431,0.413 -0.651,0.624 -0.147,0.141 -0.293,0.28 -0.443,0.424 -0.366,0.353 -0.74,0.712 -1.125,1.085 -3.89,3.761 -7.69,8.396 -11.64,13.359 -0.646,0.812 -1.296,1.631 -1.951,2.458 -0.028,0.036 -0.057,0.071 -0.085,0.107 -0.647,0.817 -1.3,1.641 -1.957,2.466 -0.04,0.05 -0.081,0.101 -0.121,0.151 -2.121,2.662 -4.286,5.336 -6.471,7.857 -0.003,0.004 -0.006,0.009 -0.009,0.013 -6.229,7.195 -12.717,13.293 -19.727,15.619 -0.408,0.127 -0.815,0.254 -1.229,0.367 -0.019,0.005 -0.109,0.032 -0.127,0.038 l -0.07,0.018 c -0.296,0.079 -0.61,0.153 -0.924,0.227 -0.205,0.048 -0.416,0.095 -0.628,0.142 -0.336,0.072 -0.673,0.145 -1.02,0.21 L 9.754,49.832 C 9.42,49.9 9.086,49.968 8.746,50.03 L 8.723,50.034 8.722,50.035 C 7.096,50.268 5.411,50.389 3.764,50.389 L 3.641,50.386 c -0.018,0 -0.119,0.006 -0.117,0.003 -7.681,0 -14.966,-2.433 -21.079,-7.037 l -0.455,-0.327 c -8.508,-6.119 -18.152,-13.054 -29.474,-13.054 -5.932,0 -12.635,2.253 -20.005,6.714 0.017,-0.02 0.035,-0.041 0.053,-0.061 0.825,-0.923 1.644,-1.867 2.458,-2.826 0.062,-0.073 0.123,-0.145 0.185,-0.218 0.805,-0.951 1.604,-1.915 2.4,-2.889 0.062,-0.075 0.123,-0.151 0.185,-0.227 0.8,-0.981 1.597,-1.971 2.39,-2.964 0.05,-0.063 0.101,-0.126 0.151,-0.19 0.804,-1.008 1.605,-2.018 2.404,-3.026 4.603,-5.81 8.95,-11.297 13.346,-15.547 2.728,-2.638 4.971,-4.757 6.948,-6.555 0.742,-0.674 1.446,-1.304 2.124,-1.898 4.746,-4.163 8.222,-6.63 14.374,-10.998 l 0.669,-0.477 c 0.716,-0.486 1.454,-0.989 2.186,-1.477 6.176,-4.648 13.462,-7.08 21.134,-7.08 0.017,0 0.12,0.003 0.146,0.003 l 0.003,-10e-4 0.08,-1.387 0.02,1.385 c 7.944,0 15.436,2.591 21.666,7.493"
             style="fill:#ffffff;fill-opacity:1;fill-rule:nonzero;stroke:none"
             id="path90" /></g><g
           id="g92"
           transform="translate(1537.1833,180.9656)"><path
             d="M 0,0 V 12.503 H 6.951 V -19.094 H 0 V -6.41 h -12.819 v -12.684 h -6.952 v 31.597 h 6.952 V 0 Z m -45.063,-4.225 c 0,-19.337 15.732,-35.068 35.069,-35.068 7.947,0 15.439,2.591 21.669,7.493 7.264,5.555 18.145,12.925 28.897,12.925 3.54,0 6.918,-0.719 10.145,-1.881 -0.271,0.241 -0.548,0.489 -0.829,0.742 -0.083,0.075 -0.167,0.152 -0.251,0.227 -0.197,0.179 -0.397,0.36 -0.6,0.546 -0.107,0.097 -0.215,0.195 -0.323,0.294 -0.191,0.176 -0.386,0.355 -0.582,0.536 -0.112,0.103 -0.223,0.206 -0.337,0.312 -0.235,0.217 -0.475,0.441 -0.718,0.668 -0.135,0.126 -0.272,0.254 -0.41,0.383 -0.245,0.23 -0.493,0.463 -0.746,0.703 -0.137,0.128 -0.277,0.262 -0.416,0.393 -0.201,0.191 -0.403,0.383 -0.61,0.58 -0.153,0.145 -0.307,0.292 -0.463,0.441 -0.213,0.204 -0.431,0.413 -0.651,0.624 -0.147,0.141 -0.293,0.28 -0.443,0.424 -0.366,0.353 -0.739,0.712 -1.124,1.085 -4.527,4.377 -8.93,9.934 -13.592,15.817 -9.276,11.708 -18.867,23.813 -29.727,26.619 -1.197,0.309 -2.483,0.587 -3.93,0.851 -1.626,0.233 -3.312,0.355 -4.959,0.355 -19.337,0 -35.069,-15.732 -35.069,-35.069"
             style="fill:#ffffff;fill-opacity:1;fill-rule:nonzero;stroke:none"
             id="path94" /></g><g
           id="g96"
           transform="translate(1712.7267,193.4687)"><path
             d="M 0,0 H 7.493 L 15.799,-13.361 24.104,0 h 7.493 V -31.597 H 24.69 v 20.629 L 15.799,-24.465 H 15.618 L 6.816,-11.104 V -31.597 H 0 Z m 17.844,-51.797 c 19.337,0 35.069,15.732 35.069,35.069 0,19.337 -15.732,35.069 -35.069,35.069 -7.673,0 -14.96,-2.433 -21.073,-7.037 l -0.455,-0.327 c -8.509,-6.119 -18.152,-13.054 -29.474,-13.054 -5.743,0 -12.212,2.119 -19.307,6.302 0.306,-0.461 0.606,-0.928 0.895,-1.405 0.162,-0.188 0.323,-0.384 0.485,-0.573 0.404,-0.471 0.806,-0.946 1.207,-1.424 0.416,-0.496 0.83,-0.994 1.243,-1.496 0.378,-0.459 0.755,-0.917 1.132,-1.38 0.466,-0.574 0.927,-1.148 1.389,-1.724 0.318,-0.396 0.637,-0.79 0.954,-1.188 0.746,-0.936 1.487,-1.87 2.221,-2.796 0.352,-0.445 0.701,-0.884 1.05,-1.325 4.217,-5.315 8.239,-10.3 12.298,-14.226 10.912,-10.551 14.071,-12.794 23.446,-19.451 l 0.669,-0.476 c 0.715,-0.487 1.454,-0.989 2.185,-1.477 6.177,-4.648 13.463,-7.081 21.135,-7.081"
             style="fill:#ffffff;fill-opacity:1;fill-rule:nonzero;stroke:none"
             id="path98" /></g><g
           id="g100"
           transform="translate(224.9687,524.7002)"><path
             d="M 0,0 H 44.763 V 62.472 L 94.927,0 H 135.06 V 135.389 H 90.297 V 75.624 L 42.254,135.389 H 0 Z"
             style="fill:none;stroke:#ffffff;stroke-width:4.285;stroke-linecap:butt;stroke-linejoin:miter;stroke-miterlimit:4;stroke-dasharray:none;stroke-opacity:1"
             id="path102" /></g><g
           id="g104"
           transform="translate(381.0586,524.7002)"><path
             d="m 0,0 h 48.236 l 6.946,18.181 h 47.271 L 109.591,0 h 49.008 L 101.681,136.355 H 56.918 Z m 66.565,50.287 12.349,32.88 12.348,-32.88 z"
             style="fill:none;stroke:#ffffff;stroke-width:4.285;stroke-linecap:butt;stroke-linejoin:miter;stroke-miterlimit:4;stroke-dasharray:none;stroke-opacity:1"
             id="path106" /></g><g
           id="g108"
           transform="translate(560.6855,524.7002)"><path
             d="M 0,0 H 44.763 V 62.472 L 94.927,0 H 135.06 V 135.389 H 90.297 V 75.624 L 42.254,135.389 H 0 Z"
             style="fill:none;stroke:#ffffff;stroke-width:4.285;stroke-linecap:butt;stroke-linejoin:miter;stroke-miterlimit:4;stroke-dasharray:none;stroke-opacity:1"
             id="path110" /></g><g
           id="g112"
           transform="translate(726.6157,524.7002)"><path
             d="M 0,0 H 44.763 V 62.472 L 94.927,0 H 135.06 V 135.389 H 90.297 V 75.624 L 42.254,135.389 H 0 Z"
             style="fill:none;stroke:#ffffff;stroke-width:4.285;stroke-linecap:butt;stroke-linejoin:miter;stroke-miterlimit:4;stroke-dasharray:none;stroke-opacity:1"
             id="path114" /></g><g
           id="g116"
           transform="translate(892.9316,524.7002)"><path
             d="M 0,0 H 45.148 V 135.389 H 0 Z"
             style="fill:none;stroke:#ffffff;stroke-width:4.285;stroke-linecap:butt;stroke-linejoin:miter;stroke-miterlimit:4;stroke-dasharray:none;stroke-opacity:1"
             id="path118" /></g><g
           id="g120"
           transform="translate(969.3354,524.7002)"><path
             d="M 0,0 H 116.151 V 37.135 H 44.376 v 14.699 h 65.987 V 84.521 H 44.376 v 13.732 h 70.811 v 37.136 L 0,135.389 Z"
             style="fill:none;stroke:#ffffff;stroke-width:4.285;stroke-linecap:butt;stroke-linejoin:miter;stroke-miterlimit:4;stroke-dasharray:none;stroke-opacity:1"
             id="path122" /></g></g></g></g></svg>
