<?xml version="1.0" encoding="UTF-8" standalone="no"?>
<svg
   xmlns:dc="http://purl.org/dc/elements/1.1/"
   xmlns:cc="http://creativecommons.org/ns#"
   xmlns:rdf="http://www.w3.org/1999/02/22-rdf-syntax-ns#"
   xmlns:svg="http://www.w3.org/2000/svg"
   xmlns="http://www.w3.org/2000/svg"
   version="1.1"
   id="svg2"
   xml:space="preserve"
   width="2579.1201"
   height="1469.5333"
   viewBox="0 0 2579.1201 1469.5333"><metadata
     id="metadata8"><rdf:RDF><cc:Work
         rdf:about=""><dc:format>image/svg+xml</dc:format><dc:type
           rdf:resource="http://purl.org/dc/dcmitype/StillImage" /></cc:Work></rdf:RDF></metadata><defs
     id="defs6"><clipPath
       clipPathUnits="userSpaceOnUse"
       id="clipPath18"><path
         d="M 0,1102.154 H 1934.337 V 0 H 0 Z"
         id="path16" /></clipPath></defs><g
     id="g10"
     transform="matrix(1.3333333,0,0,-1.3333333,0,1469.5333)"><g
       id="g12"><g
         id="g14"
         clip-path="url(#clipPath18)"><g
           id="g20"
           transform="translate(1199.7487,465.0604)"><path
             d="m 0,0 c 0,-7.738 -6.273,-14.012 -14.012,-14.012 -7.738,0 -14.011,6.274 -14.011,14.012 0,7.738 6.273,14.012 14.011,14.012 C -6.273,14.012 0,7.738 0,0"
             style="fill:#6ea0d3;fill-opacity:1;fill-rule:nonzero;stroke:none"
             id="path22" /></g><g
           id="g24"
           transform="translate(838.79,321.9642)"><path
             d="m 0,0 c 4.814,0 9.366,0.751 13.654,2.258 4.288,1.502 8.084,3.646 11.397,6.432 3.307,2.781 5.941,6.128 7.897,10.041 1.954,3.912 2.934,8.198 2.934,12.864 v 9.929 c -12.186,0 -22.566,-0.677 -31.142,-2.03 -8.576,-1.355 -15.159,-3.763 -19.746,-7.223 -4.591,-3.462 -6.884,-8.349 -6.884,-14.667 0,-4.064 0.903,-7.375 2.708,-9.931 1.806,-2.56 4.363,-4.478 7.673,-5.754 C -8.201,0.639 -4.365,0 0,0 m -4.965,-16.699 c -4.365,0 -8.725,0.53 -13.088,1.579 -4.365,1.055 -8.427,2.783 -12.187,5.191 -3.761,2.405 -6.77,5.755 -9.026,10.043 -2.256,4.288 -3.385,9.665 -3.385,16.135 0,8.125 1.953,14.816 5.867,20.084 3.91,5.265 9.365,9.366 16.361,12.299 6.997,2.935 15.307,4.965 24.937,6.094 9.625,1.129 20.084,1.691 31.368,1.691 v 13.541 c 0,4.362 -0.754,8.125 -2.257,11.284 -1.506,3.159 -4.174,5.603 -8.012,7.334 -3.835,1.728 -9.29,2.595 -16.361,2.595 -6.77,0 -12.15,-0.867 -16.134,-2.595 -3.988,-1.731 -6.771,-3.949 -8.35,-6.657 -1.58,-2.709 -2.37,-5.719 -2.37,-9.027 v -3.385 h -19.182 c -0.151,0.751 -0.226,1.502 -0.226,2.256 v 2.709 c 0,7.222 1.992,13.276 5.981,18.166 3.985,4.887 9.591,8.576 16.812,11.058 7.222,2.482 15.494,3.724 24.824,3.724 9.93,0 18.241,-1.431 24.937,-4.288 6.693,-2.86 11.735,-6.922 15.12,-12.185 3.385,-5.269 5.077,-11.588 5.077,-18.958 V 7.673 c 0,-2.859 0.676,-4.851 2.031,-5.98 C 59.126,0.564 60.78,0 62.737,0 h 8.8 v -13.088 c -2.107,-0.903 -4.438,-1.693 -6.994,-2.37 -2.56,-0.677 -5.495,-1.015 -8.802,-1.015 -3.913,0 -7.147,0.79 -9.703,2.37 -2.56,1.579 -4.514,3.758 -5.868,6.544 -1.355,2.783 -2.257,5.902 -2.708,9.365 h -1.58 c -2.708,-3.762 -6.133,-7.035 -10.269,-9.817 -4.139,-2.785 -8.765,-4.929 -13.878,-6.43 -5.117,-1.504 -10.684,-2.258 -16.7,-2.258"
             style="fill:#6ea0d3;fill-opacity:1;fill-rule:nonzero;stroke:none"
             id="path26" /></g><g
           id="g28"
           transform="translate(927.0281,307.9733)"><path
             d="m 0,0 v 118.702 h 16.023 l 1.804,-17.828 h 1.581 c 3.159,4.814 6.73,8.724 10.718,11.735 3.984,3.008 8.424,5.227 13.316,6.658 4.887,1.427 10.115,2.144 15.682,2.144 7.521,0 14.105,-1.281 19.746,-3.836 5.643,-2.56 10.078,-6.698 13.316,-12.413 3.233,-5.719 4.851,-13.466 4.851,-23.243 V 0 H 77.178 v 79.21 c 0,4.965 -0.642,9.026 -1.917,12.187 -1.281,3.159 -3.012,5.641 -5.191,7.447 -2.184,1.806 -4.816,3.081 -7.899,3.836 -3.085,0.751 -6.51,1.128 -10.268,1.128 -5.567,0 -10.832,-1.355 -15.796,-4.061 -4.965,-2.709 -8.914,-6.624 -11.849,-11.735 -2.932,-5.116 -4.4,-11.21 -4.4,-18.28 L 19.858,0 Z"
             style="fill:#6ea0d3;fill-opacity:1;fill-rule:nonzero;stroke:none"
             id="path30" /></g><g
           id="g32"
           transform="translate(1049.3063,307.9733)"><path
             d="m 0,0 v 118.702 h 16.023 l 1.804,-17.828 h 1.581 c 3.159,4.814 6.73,8.724 10.718,11.735 3.984,3.008 8.424,5.227 13.316,6.658 4.887,1.427 10.115,2.144 15.682,2.144 7.521,0 14.105,-1.281 19.746,-3.836 5.643,-2.56 10.078,-6.698 13.316,-12.413 3.233,-5.719 4.851,-13.466 4.851,-23.243 V 0 H 77.178 v 79.21 c 0,4.965 -0.642,9.026 -1.917,12.187 -1.281,3.159 -3.012,5.641 -5.191,7.447 -2.184,1.806 -4.816,3.081 -7.899,3.836 -3.085,0.751 -6.51,1.128 -10.268,1.128 -5.566,0 -10.831,-1.355 -15.796,-4.061 -4.965,-2.709 -8.914,-6.624 -11.849,-11.735 -2.932,-5.116 -4.4,-11.21 -4.4,-18.28 L 19.858,0 Z"
             style="fill:#6ea0d3;fill-opacity:1;fill-rule:nonzero;stroke:none"
             id="path34" /></g><path
           d="m 1175.808,426.675 h 19.858 V 307.973 h -19.858 z"
           style="fill:#6ea0d3;fill-opacity:1;fill-rule:nonzero;stroke:none"
           id="path36" /><g
           id="g38"
           transform="translate(1245.1301,397.5648)"><path
             d="m 0,0 c 2.557,5.263 6.242,9.175 11.058,11.735 4.813,2.556 10.68,3.835 17.602,3.835 4.661,0 8.837,-0.642 12.525,-1.917 3.684,-1.28 6.917,-3.351 9.703,-6.206 2.783,-2.86 4.927,-6.544 6.432,-11.058 1.502,-4.514 2.256,-10.081 2.256,-16.699 H -4.739 C -4.139,-12.038 -2.56,-5.268 0,0 m 59.557,-54.922 c -0.376,-1.775 -0.893,-3.479 -1.56,-5.107 -1.354,-3.31 -3.349,-6.171 -5.98,-8.575 -2.634,-2.408 -5.867,-4.252 -9.704,-5.529 -3.836,-1.279 -8.314,-1.918 -13.427,-1.918 -7.524,0 -13.766,1.39 -18.731,4.174 -4.964,2.782 -8.688,7.222 -11.17,13.316 -2.482,6.091 -3.875,13.878 -4.176,23.357 h 85.304 v 9.477 c 0,12.786 -1.918,23.431 -5.755,31.933 -3.836,8.498 -9.517,14.893 -17.038,19.181 -7.524,4.288 -16.851,6.432 -27.983,6.432 -12.186,0 -22.341,-2.221 -30.466,-6.658 -8.123,-4.438 -14.255,-11.208 -18.391,-20.31 -4.139,-9.104 -6.206,-20.799 -6.206,-35.091 0,-14.144 2.067,-25.804 6.206,-34.979 4.136,-9.178 10.23,-15.988 18.279,-20.423 8.046,-4.436 17.94,-6.658 29.675,-6.658 8.125,0 15.346,1.055 21.665,3.159 6.318,2.106 11.658,5.039 16.023,8.802 4.36,3.758 7.673,8.312 9.929,13.652 1.557,3.686 2.601,7.612 3.156,11.765 z"
             style="fill:#6ea0d3;fill-opacity:1;fill-rule:nonzero;stroke:none"
             id="path40" /></g><g
           id="g42"
           transform="translate(609.4443,268.2079)"><path
             d="m 0,0 c 14.442,14.108 27.269,44.768 33.893,77.258 11.322,55.541 8.326,117.316 8.326,117.316 H 61.665 L 128.126,91.087 c 0.751,-0.903 9.4,-15.83 11.472,-17.758 0,0 -2.656,32.839 -1.691,51.452 1.742,33.589 16.453,64.419 36.324,82.641 23.022,21.111 64.043,18.86 59.104,17.09 -25.879,-9.274 -39.453,-22.274 -48.659,-34.846 -10.728,-14.649 -15.819,-28.376 -19.102,-38.801 -14.077,-44.697 -3.617,-89.883 1.285,-111.1 3.506,-15.175 -10.976,-15.27 -26.087,-0.318 -21.803,21.574 -68.913,103.982 -70.943,106.994 -2.031,3.007 -7.87,13.394 -9.223,15.199 l 0.017,-3.849 c 0,-2.408 -1.885,-50.648 -3.605,-64.414 C 51.69,50.737 43.493,43.016 38.653,33.823 22.971,4.045 -3.713,-3.627 0,0"
             style="fill:#6ea0d3;fill-opacity:1;fill-rule:nonzero;stroke:none"
             id="path44" /></g><g
           id="g46"
           transform="translate(812.3479,237.4482)"><path
             d="m 0,0 v 21.334 h -8.314 v 2.937 h 20.06 V 21.334 H 3.362 L 3.362,0 Z"
             style="fill:#6ea0d3;fill-opacity:1;fill-rule:nonzero;stroke:none"
             id="path48" /></g><g
           id="g50"
           transform="translate(834.9183,237.4482)"><path
             d="M 0,0 V 24.271 H 18.682 V 21.369 H 3.362 v -7.5 H 17.123 V 10.967 H 3.362 V 2.902 H 18.894 V 0 Z"
             style="fill:#6ea0d3;fill-opacity:1;fill-rule:nonzero;stroke:none"
             id="path52" /></g><g
           id="g54"
           transform="translate(876.3154,237.0237)"><path
             d="m 0,0 c -2.478,0 -4.576,0.455 -6.299,1.361 -1.721,0.909 -3.037,2.288 -3.943,4.141 -0.91,1.851 -1.364,4.204 -1.364,7.058 0,4.221 1.026,7.371 3.079,9.446 2.051,2.075 4.906,3.114 8.562,3.114 2.075,0 3.916,-0.337 5.52,-1.009 1.603,-0.671 2.859,-1.685 3.768,-3.042 0.907,-1.356 1.362,-3.062 1.362,-5.112 H 7.288 c 0,1.414 -0.3,2.582 -0.902,3.501 -0.602,0.922 -1.446,1.611 -2.53,2.071 -1.086,0.46 -2.36,0.689 -3.821,0.689 -1.698,0 -3.162,-0.329 -4.388,-0.991 -1.227,-0.66 -2.158,-1.679 -2.795,-3.06 -0.637,-1.378 -0.954,-3.154 -0.954,-5.325 v -0.741 c 0,-2.148 0.317,-3.899 0.954,-5.255 0.637,-1.356 1.563,-2.353 2.777,-2.99 1.217,-0.637 2.685,-0.954 4.406,-0.954 1.508,0 2.812,0.222 3.909,0.672 1.096,0.447 1.945,1.136 2.547,2.068 0.602,0.932 0.902,2.105 0.902,3.522 h 3.292 C 10.685,7.063 10.217,5.342 9.286,3.999 8.354,2.652 7.088,1.651 5.485,0.992 3.879,0.33 2.05,0 0,0"
             style="fill:#6ea0d3;fill-opacity:1;fill-rule:nonzero;stroke:none"
             id="path56" /></g><g
           id="g58"
           transform="translate(898.7784,237.4482)"><path
             d="M 0,0 V 24.271 H 3.257 L 15.038,8.279 c 0.117,-0.142 0.27,-0.354 0.459,-0.636 0.188,-0.285 0.378,-0.562 0.567,-0.832 0.188,-0.272 0.34,-0.512 0.46,-0.724 h 0.14 V 7.2 8.279 24.271 h 3.292 V 0 h -3.08 L 4.953,16.274 C 4.788,16.534 4.548,16.898 4.228,17.371 3.911,17.843 3.644,18.22 3.432,18.504 H 3.257 V 17.388 16.274 L 3.257,0 Z"
             style="fill:#6ea0d3;fill-opacity:1;fill-rule:nonzero;stroke:none"
             id="path60" /></g><g
           id="g62"
           transform="translate(942.7929,239.9258)"><path
             d="m 0,0 c 1.321,0 2.518,0.175 3.591,0.529 1.074,0.355 1.981,0.915 2.725,1.681 0.742,0.767 1.314,1.734 1.716,2.903 0.4,1.166 0.602,2.552 0.602,4.155 v 0.745 c 0,1.626 -0.202,3.024 -0.602,4.191 -0.402,1.168 -0.974,2.135 -1.716,2.902 -0.744,0.767 -1.651,1.326 -2.725,1.681 -1.073,0.352 -2.27,0.529 -3.591,0.529 -1.344,0 -2.547,-0.177 -3.609,-0.529 -1.061,-0.355 -1.968,-0.914 -2.722,-1.681 -0.757,-0.767 -1.329,-1.734 -1.716,-2.902 -0.39,-1.167 -0.585,-2.565 -0.585,-4.191 V 9.268 c 0,-1.603 0.195,-2.989 0.585,-4.155 C -7.66,3.944 -7.088,2.977 -6.331,2.21 -5.577,1.444 -4.67,0.884 -3.609,0.529 -2.547,0.175 -1.344,0 0,0 m 0,-2.902 c -2.523,0 -4.688,0.459 -6.491,1.379 -1.806,0.921 -3.197,2.312 -4.176,4.175 -0.979,1.864 -1.469,4.199 -1.469,7.006 0,2.83 0.49,5.17 1.469,7.023 0.979,1.851 2.37,3.237 4.176,4.156 1.803,0.922 3.968,1.381 6.491,1.381 2.525,0 4.688,-0.459 6.494,-1.381 1.803,-0.919 3.194,-2.305 4.173,-4.156 0.979,-1.853 1.469,-4.193 1.469,-7.023 0,-2.807 -0.49,-5.142 -1.469,-7.006 C 9.688,0.789 8.297,-0.602 6.494,-1.523 4.688,-2.443 2.525,-2.902 0,-2.902"
             style="fill:#6ea0d3;fill-opacity:1;fill-rule:nonzero;stroke:none"
             id="path64" /></g><g
           id="g66"
           transform="translate(966.8494,237.4482)"><path
             d="M 0,0 V 24.271 H 3.362 V 2.937 H 15.427 V 0 Z"
             style="fill:#6ea0d3;fill-opacity:1;fill-rule:nonzero;stroke:none"
             id="path68" /></g><g
           id="g70"
           transform="translate(1002.7244,239.9258)"><path
             d="m 0,0 c 1.321,0 2.518,0.175 3.591,0.529 1.074,0.355 1.981,0.915 2.725,1.681 0.742,0.767 1.314,1.734 1.716,2.903 0.4,1.166 0.602,2.552 0.602,4.155 v 0.745 c 0,1.626 -0.202,3.024 -0.602,4.191 -0.402,1.168 -0.974,2.135 -1.716,2.902 -0.744,0.767 -1.651,1.326 -2.725,1.681 -1.073,0.352 -2.27,0.529 -3.591,0.529 -1.344,0 -2.548,-0.177 -3.609,-0.529 -1.061,-0.355 -1.968,-0.914 -2.722,-1.681 -0.757,-0.767 -1.329,-1.734 -1.716,-2.902 -0.39,-1.167 -0.585,-2.565 -0.585,-4.191 V 9.268 c 0,-1.603 0.195,-2.989 0.585,-4.155 C -7.66,3.944 -7.088,2.977 -6.331,2.21 -5.577,1.444 -4.67,0.884 -3.609,0.529 -2.548,0.175 -1.344,0 0,0 m 0,-2.902 c -2.523,0 -4.688,0.459 -6.491,1.379 -1.806,0.921 -3.197,2.312 -4.176,4.175 -0.979,1.864 -1.469,4.199 -1.469,7.006 0,2.83 0.49,5.17 1.469,7.023 0.979,1.851 2.37,3.237 4.176,4.156 1.803,0.922 3.968,1.381 6.491,1.381 2.525,0 4.688,-0.459 6.494,-1.381 1.803,-0.919 3.194,-2.305 4.173,-4.156 0.979,-1.853 1.469,-4.193 1.469,-7.023 0,-2.807 -0.49,-5.142 -1.469,-7.006 C 9.688,0.789 8.297,-0.602 6.494,-1.523 4.688,-2.443 2.525,-2.902 0,-2.902"
             style="fill:#6ea0d3;fill-opacity:1;fill-rule:nonzero;stroke:none"
             id="path72" /></g><g
           id="g74"
           transform="translate(1037.7152,237.0237)"><path
             d="m 0,0 c -3.914,0 -6.893,1.027 -8.931,3.077 -2.041,2.053 -3.062,5.212 -3.062,9.483 0,2.783 0.472,5.105 1.416,6.971 0.944,1.861 2.335,3.259 4.173,4.191 1.841,0.931 4.081,1.398 6.724,1.398 1.651,0 3.149,-0.177 4.493,-0.532 1.343,-0.352 2.505,-0.889 3.484,-1.608 0.979,-0.719 1.733,-1.623 2.265,-2.707 0.53,-1.084 0.797,-2.37 0.797,-3.857 H 7.927 c 0,1.037 -0.19,1.929 -0.567,2.67 -0.377,0.745 -0.914,1.352 -1.611,1.824 -0.694,0.472 -1.503,0.806 -2.422,1.009 -0.919,0.199 -1.898,0.299 -2.937,0.299 -1.414,0 -2.678,-0.177 -3.784,-0.529 -1.109,-0.355 -2.041,-0.909 -2.798,-1.664 -0.754,-0.756 -1.331,-1.723 -1.733,-2.902 -0.399,-1.179 -0.599,-2.582 -0.599,-4.208 v -0.744 c 0,-2.193 0.334,-3.974 1.006,-5.343 C -6.846,5.46 -5.872,4.463 -4.598,3.839 -3.324,3.214 -1.791,2.902 0,2.902 c 1.818,0 3.314,0.252 4.496,0.759 1.178,0.507 2.055,1.279 2.634,2.318 0.577,1.037 0.867,2.348 0.867,3.926 v 0.425 h -8.561 v 2.867 H 11.394 V 0.425 H 8.846 L 8.492,3.502 C 7.855,2.677 7.1,2.006 6.229,1.486 5.355,0.967 4.393,0.589 3.344,0.355 2.295,0.117 1.181,0 0,0"
             style="fill:#6ea0d3;fill-opacity:1;fill-rule:nonzero;stroke:none"
             id="path76" /></g><path
           d="m 1062.021,261.72 h 3.362 v -24.271 h -3.362 z"
           style="fill:#6ea0d3;fill-opacity:1;fill-rule:nonzero;stroke:none"
           id="path78" /><g
           id="g80"
           transform="translate(1082.6462,246.3296)"><path
             d="M 0,0 H 9.588 L 6.653,7.605 C 6.581,7.817 6.476,8.112 6.334,8.489 6.194,8.866 6.039,9.286 5.874,9.745 5.709,10.205 5.545,10.677 5.38,11.162 5.215,11.644 5.06,12.086 4.92,12.488 H 4.708 C 4.541,12.016 4.353,11.474 4.141,10.862 3.929,10.247 3.716,9.651 3.504,9.074 3.292,8.497 3.115,8.007 2.972,7.605 Z M -6.898,-8.881 2.69,15.39 h 4.423 l 9.623,-24.271 h -3.644 l -2.37,6.014 H -1.096 l -2.336,-6.014 z"
             style="fill:#6ea0d3;fill-opacity:1;fill-rule:nonzero;stroke:none"
             id="path82" /></g><g
           id="g84"
           transform="translate(1124.2181,237.4482)"><path
             d="M 0,0 V 24.271 H 18.682 V 21.369 H 3.362 v -7.5 H 17.123 V 10.967 H 3.362 V 2.902 H 18.894 V 0 Z"
             style="fill:#6ea0d3;fill-opacity:1;fill-rule:nonzero;stroke:none"
             id="path86" /></g><g
           id="g88"
           transform="translate(1178.6324,237.0237)"><path
             d="m 0,0 c -1.321,0 -2.59,0.13 -3.804,0.39 -1.214,0.259 -2.293,0.676 -3.237,1.256 -0.944,0.577 -1.693,1.326 -2.245,2.245 -0.554,0.922 -0.832,2.053 -0.832,3.397 0,0.117 0.005,0.235 0.018,0.355 0.01,0.117 0.017,0.234 0.017,0.352 h 3.397 c 0,-0.07 -0.007,-0.183 -0.017,-0.335 -0.013,-0.155 -0.018,-0.29 -0.018,-0.407 0,-0.944 0.282,-1.746 0.849,-2.405 0.565,-0.662 1.349,-1.152 2.353,-1.469 1.001,-0.319 2.14,-0.477 3.414,-0.477 0.565,0 1.161,0.035 1.786,0.105 0.624,0.07 1.226,0.195 1.803,0.372 0.579,0.178 1.099,0.412 1.559,0.707 0.459,0.295 0.824,0.659 1.096,1.096 0.27,0.438 0.407,0.974 0.407,1.611 0,0.802 -0.23,1.469 -0.692,1.998 -0.459,0.532 -1.066,0.967 -1.82,1.309 -0.755,0.342 -1.611,0.649 -2.565,0.922 -0.957,0.269 -1.941,0.534 -2.955,0.794 -1.014,0.26 -1.998,0.562 -2.955,0.904 -0.954,0.34 -1.81,0.764 -2.565,1.274 -0.754,0.507 -1.361,1.136 -1.82,1.89 -0.46,0.757 -0.692,1.676 -0.692,2.76 0,1.014 0.207,1.923 0.619,2.725 0.412,0.802 1.027,1.481 1.841,2.036 0.814,0.552 1.821,0.976 3.024,1.273 1.204,0.295 2.583,0.442 4.141,0.442 1.274,0 2.458,-0.137 3.554,-0.407 C 4.758,24.441 5.724,24.029 6.564,23.475 7.4,22.92 8.055,22.218 8.527,21.369 8.999,20.52 9.233,19.493 9.233,18.292 V 17.868 H 5.909 v 0.529 c 0,0.802 -0.247,1.486 -0.744,2.053 -0.495,0.564 -1.174,1.002 -2.033,1.309 -0.862,0.307 -1.836,0.459 -2.92,0.459 -1.416,0 -2.595,-0.135 -3.539,-0.407 -0.941,-0.27 -1.643,-0.659 -2.103,-1.166 -0.462,-0.507 -0.692,-1.079 -0.692,-1.716 0,-0.732 0.23,-1.346 0.692,-1.841 0.46,-0.494 1.067,-0.901 1.821,-1.221 C -2.855,15.55 -1.993,15.26 -1.026,15 -0.06,14.741 0.927,14.476 1.928,14.206 2.93,13.934 3.909,13.627 4.865,13.285 5.819,12.942 6.681,12.518 7.448,12.011 8.214,11.504 8.821,10.867 9.268,10.1 9.718,9.333 9.943,8.397 9.943,7.288 9.943,5.567 9.518,4.168 8.669,3.097 7.82,2.023 6.651,1.239 5.165,0.742 3.679,0.247 1.958,0 0,0"
             style="fill:#6ea0d3;fill-opacity:1;fill-rule:nonzero;stroke:none"
             id="path90" /></g><g
           id="g92"
           transform="translate(1204.7069,246.3296)"><path
             d="M 0,0 H 9.588 L 6.654,7.605 C 6.581,7.817 6.476,8.112 6.334,8.489 6.194,8.866 6.039,9.286 5.874,9.745 5.709,10.205 5.545,10.677 5.38,11.162 5.215,11.644 5.06,12.086 4.92,12.488 H 4.708 C 4.541,12.016 4.353,11.474 4.141,10.862 3.929,10.247 3.716,9.651 3.504,9.074 3.292,8.497 3.115,8.007 2.972,7.605 Z M -6.898,-8.881 2.69,15.39 h 4.423 l 9.623,-24.271 h -3.644 l -2.37,6.014 H -1.096 l -2.336,-6.014 z"
             style="fill:#6ea0d3;fill-opacity:1;fill-rule:nonzero;stroke:none"
             id="path94" /></g><g
           id="g96"
           transform="translate(1239.6627,263.4878)"><path
             d="M 0,0 3.077,4.67 H 6.721 L 6.756,4.563 2.865,0 Z m 1.449,-26.464 c -2.051,0 -3.822,0.33 -5.308,0.991 -1.483,0.66 -2.622,1.704 -3.414,3.13 -0.789,1.428 -1.184,3.262 -1.184,5.502 v 15.073 h 3.362 v -15.428 c 0,-2.123 0.572,-3.714 1.716,-4.775 1.144,-1.061 2.752,-1.591 4.828,-1.591 2.1,0 3.738,0.53 4.917,1.591 1.182,1.061 1.771,2.652 1.771,4.775 v 15.428 h 3.324 v -15.073 c 0,-2.24 -0.399,-4.074 -1.201,-5.502 -0.804,-1.426 -1.953,-2.47 -3.452,-3.13 -1.496,-0.661 -3.284,-0.991 -5.359,-0.991"
             style="fill:#6ea0d3;fill-opacity:1;fill-rule:nonzero;stroke:none"
             id="path98" /></g><g
           id="g100"
           transform="translate(1267.578,240.3504)"><path
             d="m 0,0 h 5.625 c 1.346,0 2.547,0.17 3.609,0.512 1.061,0.342 1.97,0.867 2.724,1.573 0.755,0.71 1.327,1.624 1.716,2.743 0.39,1.121 0.585,2.46 0.585,4.016 v 0.707 c 0,1.603 -0.195,2.967 -0.585,4.088 -0.389,1.119 -0.954,2.033 -1.698,2.74 -0.742,0.709 -1.646,1.234 -2.708,1.576 -1.061,0.342 -2.275,0.512 -3.643,0.512 H 0 Z m -3.362,-2.902 v 24.271 h 9.059 c 2.547,0 4.715,-0.424 6.509,-1.274 1.793,-0.849 3.166,-2.165 4.123,-3.946 0.954,-1.781 1.431,-4.086 1.431,-6.916 0,-2.784 -0.477,-5.072 -1.431,-6.863 -0.957,-1.793 -2.33,-3.119 -4.123,-3.981 -1.794,-0.862 -3.962,-1.291 -6.509,-1.291 z"
             style="fill:#6ea0d3;fill-opacity:1;fill-rule:nonzero;stroke:none"
             id="path102" /></g><g
           id="g104"
           transform="translate(1297.259,237.4482)"><path
             d="M 0,0 V 24.271 H 18.682 V 21.369 H 3.362 v -7.5 H 17.123 V 10.967 H 3.362 V 2.902 H 18.894 V 0 Z"
             style="fill:#6ea0d3;fill-opacity:1;fill-rule:nonzero;stroke:none"
             id="path106" /></g><g
           id="g108"
           transform="translate(1081.4478,656.343)"><path
             d="M 0,0 -5.589,4.558 C -6.938,5.66 -7.14,7.647 -6.039,8.997 l 2.279,2.794 c 23.252,28.501 21.144,69.636 -4.902,95.683 -27.747,27.742 -72.996,27.848 -100.865,0.234 l -4.742,-4.728 -0.017,0.016 -0.023,-0.023 -4.748,4.735 c -27.874,27.616 -73.122,27.507 -100.866,-0.234 -25.928,-25.929 -28.123,-66.955 -5.106,-95.431 l 2.267,-2.805 c 1.095,-1.355 0.884,-3.341 -0.471,-4.436 l -5.608,-4.532 c -1.355,-1.096 -3.341,-0.885 -4.436,0.47 l -2.266,2.803 c -27.377,33.869 -24.771,82.658 6.061,113.491 31.388,31.389 81.621,33.027 114.974,4.829 l 0.209,0.209 0.216,-0.216 c 33.354,28.205 83.589,26.569 114.981,-4.822 C 31.87,86.061 34.372,37.143 6.717,3.245 L 4.438,0.451 C 3.337,-0.899 1.35,-1.101 0,0"
             style="fill:#a72740;fill-opacity:1;fill-rule:nonzero;stroke:none"
             id="path110" /></g><g
           id="g112"
           transform="translate(967.1556,546.9263)"><path
             d="m 0,0 c -5.542,0 -11.086,2.109 -15.306,6.328 l -71.656,71.655 c -1.231,1.232 -1.231,3.229 0,4.461 l 5.101,5.1 c 1.231,1.232 3.229,1.232 4.46,0 L -5.747,15.889 c 3.169,-3.166 8.325,-3.166 11.494,0 l 71.246,71.247 c 1.231,1.232 3.229,1.232 4.46,0 l 5.101,-5.1 c 1.231,-1.232 1.231,-3.229 0,-4.461 L 15.306,6.33 C 11.088,2.109 5.544,0 0,0"
             style="fill:#a72740;fill-opacity:1;fill-rule:nonzero;stroke:none"
             id="path114" /></g><g
           id="g116"
           transform="translate(1001.204,654.1793)"><path
             d="m 0,0 h -25.598 v 25.6 h -16.9 V 0 h -25.599 v -16.901 h 25.599 v -25.598 h 16.9 v 25.598 H 0 Z"
             style="fill:#a72740;fill-opacity:1;fill-rule:nonzero;stroke:none"
             id="path118" /></g><g
           id="g120"
           transform="translate(1036.8363,520.1296)"><path
             d="m 0,0 h -139.692 c -19.317,0 -34.977,15.66 -34.977,34.977 v 59.756 c 0,1.742 1.413,3.155 3.155,3.155 h 7.212 c 1.742,0 3.154,-1.413 3.154,-3.155 V 34.978 c 0,-11.851 9.607,-21.458 21.458,-21.458 H 0.002 c 11.85,0 21.456,9.607 21.456,21.457 v 59.756 c 0,1.742 1.412,3.155 3.154,3.155 h 7.212 c 1.742,0 3.154,-1.413 3.154,-3.155 V 34.978 C 34.978,15.66 19.318,0 0,0"
             style="fill:#6ea0d3;fill-opacity:1;fill-rule:nonzero;stroke:none"
             id="path122" /></g><g
           id="g124"
           transform="translate(1068.6604,798.2024)"><path
             d="m 0,0 h -7.212 c -1.742,0 -3.154,1.412 -3.154,3.154 v 28.797 c 0,11.85 -9.607,21.456 -21.456,21.456 h -139.694 c -11.85,0 -21.456,-9.606 -21.456,-21.456 V 3.154 c 0,-1.742 -1.412,-3.154 -3.155,-3.154 h -7.211 c -1.743,0 -3.155,1.412 -3.155,3.154 v 28.797 c 0,19.317 15.66,34.977 34.977,34.977 h 139.694 c 19.317,0 34.976,-15.66 34.976,-34.977 V 3.154 C 3.154,1.412 1.742,0 0,0"
             style="fill:#6ea0d3;fill-opacity:1;fill-rule:nonzero;stroke:none"
             id="path126" /></g><g
           id="g128"
           transform="translate(981.003,820.8743)"><path
             d="m 0,0 c 0,-7.738 -6.273,-14.012 -14.012,-14.012 -7.738,0 -14.011,6.274 -14.011,14.012 0,7.738 6.273,14.012 14.011,14.012 C -6.273,14.012 0,7.738 0,0"
             style="fill:#6ea0d3;fill-opacity:1;fill-rule:nonzero;stroke:none"
             id="path130" /></g><g
           id="g132"
           transform="translate(1095.6957,610.1063)"><path
             d="m 0,0 c -1.232,-1.232 -3.229,-1.232 -4.461,0 l -121.591,121.595 c -1.463,1.457 -3.841,1.46 -5.303,0 L -252.593,0.35 c -1.232,-1.232 -3.229,-1.232 -4.461,0 l -5.1,5.1 c -1.232,1.232 -1.232,3.229 -10e-4,4.461 l 121.24,121.243 c 6.731,6.734 17.688,6.732 24.422,0.002 L 5.1,9.561 C 6.332,8.329 6.332,6.332 5.1,5.1 Z"
             style="fill:#6ea0d3;fill-opacity:1;fill-rule:nonzero;stroke:none"
             id="path134" /></g><g
           id="g136"
           transform="translate(1703.2512,983.1905)"><path
             d="M 0,0 H 1.026 L 2.694,-2.593 4.362,0 H 5.389 V -5.483 H 4.425 v 3.932 L 2.694,-4.136 H 2.663 l -1.716,2.57 v -3.917 l -0.947,0 z"
             style="fill:#3f3f3f;fill-opacity:1;fill-rule:nonzero;stroke:none"
             id="path138" /></g><g
           id="g140"
           transform="translate(1713.6877,979.8854)"><path
             d="M 0,0 -0.948,2.193 -1.887,0 Z m -1.378,3.344 h 0.893 L 1.927,-2.178 H 0.909 L 0.353,-0.854 H -2.24 l -0.564,-1.324 h -0.987 z"
             style="fill:#3f3f3f;fill-opacity:1;fill-rule:nonzero;stroke:none"
             id="path142" /></g><g
           id="g144"
           transform="translate(1719.2451,980.4724)"><path
             d="m 0,0 c 0.689,0 1.128,0.353 1.128,0.917 v 0.015 c 0,0.596 -0.416,0.909 -1.136,0.909 H -1.41 V 0 Z M -2.373,2.718 H 0.07 C 0.759,2.718 1.3,2.515 1.653,2.17 1.942,1.864 2.107,1.465 2.107,0.987 V 0.972 C 2.107,0.071 1.566,-0.47 0.806,-0.689 L 2.287,-2.765 H 1.144 l -1.348,1.912 H -1.41 v -1.912 h -0.963 z"
             style="fill:#3f3f3f;fill-opacity:1;fill-rule:nonzero;stroke:none"
             id="path146" /></g><g
           id="g148"
           transform="translate(1722.851,983.1905)"><path
             d="M 0,0 H 0.964 V -2.757 L 3.564,0 H 4.763 L 2.475,-2.358 4.864,-5.483 H 3.69 L 1.817,-3.016 0.964,-3.893 v -1.59 l -0.964,0 z"
             style="fill:#3f3f3f;fill-opacity:1;fill-rule:nonzero;stroke:none"
             id="path150" /></g><g
           id="g152"
           transform="translate(1728.8542,983.1905)"><path
             d="M 0,0 H 4.065 V -0.862 H 0.963 v -1.425 h 2.75 V -3.156 H 0.963 V -4.621 H 4.104 V -5.483 H 0 Z"
             style="fill:#3f3f3f;fill-opacity:1;fill-rule:nonzero;stroke:none"
             id="path154" /></g><g
           id="g156"
           transform="translate(1735.7502,982.2974)"><path
             d="M 0,0 H -1.747 V 0.893 H 2.71 V 0 H 0.963 V -4.59 H 0 Z"
             style="fill:#3f3f3f;fill-opacity:1;fill-rule:nonzero;stroke:none"
             id="path158" /></g><path
           d="m 1739.834,983.19 h 0.963 v -5.483 h -0.963 z"
           style="fill:#3f3f3f;fill-opacity:1;fill-rule:nonzero;stroke:none"
           id="path160" /><g
           id="g162"
           transform="translate(1742.5767,983.1905)"><path
             d="M 0,0 H 0.893 L 3.83,-3.791 V 0 H 4.778 V -5.483 H 3.971 L 0.948,-1.582 V -5.483 H 0 Z"
             style="fill:#3f3f3f;fill-opacity:1;fill-rule:nonzero;stroke:none"
             id="path164" /></g><g
           id="g166"
           transform="translate(1748.8386,980.4337)"><path
             d="m 0,0 v 0.015 c 0,1.536 1.167,2.836 2.828,2.836 0.948,0 1.543,-0.267 2.106,-0.744 L 4.324,1.378 C 3.901,1.739 3.478,1.958 2.788,1.958 1.786,1.958 1.01,1.081 1.01,0.031 V 0.015 c 0,-1.128 0.744,-1.958 1.865,-1.958 0.524,0 0.986,0.165 1.323,0.415 V -0.51 H 2.796 V 0.337 H 5.13 V -1.966 C 4.582,-2.429 3.815,-2.82 2.843,-2.82 1.128,-2.82 0,-1.598 0,0"
             style="fill:#3f3f3f;fill-opacity:1;fill-rule:nonzero;stroke:none"
             id="path168" /></g><path
           d="m 1758.259,983.19 h 0.963 v -5.483 h -0.963 z"
           style="fill:#3f3f3f;fill-opacity:1;fill-rule:nonzero;stroke:none"
           id="path170" /><g
           id="g172"
           transform="translate(1761.0012,983.1905)"><path
             d="M 0,0 H 0.893 L 3.83,-3.791 V 0 H 4.778 V -5.483 H 3.971 L 0.948,-1.582 V -5.483 H 0 Z"
             style="fill:#3f3f3f;fill-opacity:1;fill-rule:nonzero;stroke:none"
             id="path174" /></g><g
           id="g176"
           transform="translate(1768.8451,982.2974)"><path
             d="M 0,0 H -1.747 V 0.893 H 2.71 V 0 H 0.964 V -4.59 H 0 Z"
             style="fill:#3f3f3f;fill-opacity:1;fill-rule:nonzero;stroke:none"
             id="path178" /></g><g
           id="g180"
           transform="translate(1772.8743,983.1905)"><path
             d="M 0,0 H 4.065 V -0.862 H 0.963 v -1.425 h 2.75 V -3.156 H 0.963 V -4.621 H 4.104 V -5.483 H 0 Z"
             style="fill:#3f3f3f;fill-opacity:1;fill-rule:nonzero;stroke:none"
             id="path182" /></g><g
           id="g184"
           transform="translate(1778.1956,980.4337)"><path
             d="m 0,0 v 0.015 c 0,1.536 1.167,2.836 2.828,2.836 0.948,0 1.543,-0.267 2.106,-0.744 L 4.324,1.378 C 3.901,1.739 3.478,1.958 2.788,1.958 1.786,1.958 1.01,1.081 1.01,0.031 V 0.015 c 0,-1.128 0.745,-1.958 1.865,-1.958 0.525,0 0.987,0.165 1.323,0.415 V -0.51 H 2.797 V 0.337 H 5.131 V -1.966 C 4.582,-2.429 3.815,-2.82 2.843,-2.82 1.128,-2.82 0,-1.598 0,0"
             style="fill:#3f3f3f;fill-opacity:1;fill-rule:nonzero;stroke:none"
             id="path186" /></g><g
           id="g188"
           transform="translate(1787.2698,980.4724)"><path
             d="m 0,0 c 0.689,0 1.127,0.353 1.127,0.917 v 0.015 c 0,0.596 -0.415,0.909 -1.135,0.909 H -1.411 V 0 Z M -2.373,2.718 H 0.07 C 0.759,2.718 1.3,2.515 1.652,2.17 1.942,1.864 2.107,1.465 2.107,0.987 V 0.972 C 2.107,0.071 1.566,-0.47 0.806,-0.689 L 2.287,-2.765 H 1.143 l -1.347,1.912 h -1.207 v -1.912 h -0.962 z"
             style="fill:#3f3f3f;fill-opacity:1;fill-rule:nonzero;stroke:none"
             id="path190" /></g><g
           id="g192"
           transform="translate(1794.1967,979.8854)"><path
             d="M 0,0 -0.948,2.193 -1.887,0 Z m -1.378,3.344 h 0.893 L 1.927,-2.178 H 0.909 L 0.353,-0.854 H -2.24 l -0.564,-1.324 h -0.987 z"
             style="fill:#3f3f3f;fill-opacity:1;fill-rule:nonzero;stroke:none"
             id="path194" /></g><g
           id="g196"
           transform="translate(1798.3435,982.3134)"><path
             d="m 0,0 v -3.728 h 1.081 c 1.152,0 1.904,0.775 1.904,1.848 v 0.016 C 2.985,-0.791 2.233,0 1.081,0 Z m -0.963,0.877 h 2.044 c 1.723,0 2.914,-1.183 2.914,-2.726 v -0.015 c 0,-1.543 -1.191,-2.742 -2.914,-2.742 h -2.044 z"
             style="fill:#3f3f3f;fill-opacity:1;fill-rule:nonzero;stroke:none"
             id="path198" /></g><g
           id="g200"
           transform="translate(1808.3031,980.4337)"><path
             d="m 0,0 v 0.015 c 0,1.066 -0.768,1.943 -1.865,1.943 -1.089,0 -1.848,-0.861 -1.848,-1.927 V 0.015 c 0,-1.065 0.768,-1.942 1.864,-1.942 C -0.76,-1.927 0,-1.066 0,0 m -4.723,0 v 0.015 c 0,1.536 1.19,2.836 2.874,2.836 1.684,0 2.859,-1.277 2.859,-2.82 V 0.015 c 0,-1.535 -1.19,-2.835 -2.875,-2.835 -1.683,0 -2.858,1.277 -2.858,2.82"
             style="fill:#3f3f3f;fill-opacity:1;fill-rule:nonzero;stroke:none"
             id="path202" /></g><g
           id="g204"
           transform="translate(1754.2791,1002.0673)"><path
             d="m 0,0 c -2.708,0 -5.441,0.945 -7.587,2.861 l 2.325,2.785 c 1.609,-1.329 3.295,-2.172 5.339,-2.172 1.609,0 2.58,0.639 2.58,1.686 v 0.051 c 0,0.997 -0.613,1.508 -3.602,2.274 -3.602,0.92 -5.927,1.916 -5.927,5.467 v 0.051 c 0,3.245 2.606,5.39 6.259,5.39 2.606,0 4.828,-0.817 6.642,-2.273 L 3.985,13.156 c -1.583,1.099 -3.142,1.763 -4.649,1.763 -1.507,0 -2.299,-0.69 -2.299,-1.558 V 13.31 c 0,-1.176 0.766,-1.559 3.858,-2.351 C 4.522,10.014 6.566,8.711 6.566,5.594 V 5.543 C 6.566,1.993 3.858,0 0,0 m 14.394,-6.936 c 4.111,3.144 10.268,7.315 16.354,7.315 2.004,0 3.916,-0.407 5.742,-1.064 -0.153,0.136 -0.31,0.277 -0.469,0.42 -0.047,0.042 -0.095,0.085 -0.142,0.128 -0.112,0.101 -0.225,0.204 -0.34,0.309 -0.06,0.055 -0.121,0.111 -0.182,0.167 -0.108,0.099 -0.219,0.2 -0.33,0.303 -0.063,0.058 -0.126,0.116 -0.191,0.176 -0.133,0.123 -0.268,0.25 -0.406,0.378 -0.076,0.072 -0.154,0.144 -0.232,0.217 -0.138,0.13 -0.279,0.262 -0.422,0.398 -0.077,0.073 -0.157,0.148 -0.235,0.223 -0.114,0.107 -0.229,0.216 -0.346,0.328 -0.086,0.082 -0.174,0.165 -0.262,0.249 -0.121,0.116 -0.244,0.234 -0.368,0.353 -0.084,0.08 -0.166,0.159 -0.251,0.241 -0.207,0.199 -0.418,0.403 -0.636,0.613 -2.202,2.129 -4.353,4.753 -6.588,7.561 -0.366,0.46 -0.734,0.923 -1.105,1.391 l -0.048,0.061 c -0.366,0.463 -0.736,0.929 -1.107,1.396 -0.023,0.028 -0.046,0.057 -0.069,0.085 -1.2,1.507 -2.426,3.02 -3.662,4.447 -0.002,0.002 -0.003,0.005 -0.005,0.007 -3.526,4.072 -7.198,7.523 -11.165,8.84 -0.231,0.072 -0.461,0.144 -0.696,0.208 -0.01,0.002 -0.061,0.018 -0.071,0.021 l -0.04,0.01 c -0.168,0.045 -0.345,0.087 -0.523,0.129 -0.116,0.027 -0.236,0.054 -0.355,0.08 -0.19,0.041 -0.381,0.082 -0.578,0.119 l -0.145,0.03 C 5.331,28.241 5.142,28.28 4.95,28.315 l -0.013,0.002 -0.001,0.001 c -0.92,0.131 -1.873,0.2 -2.806,0.2 L 2.061,28.516 c -0.011,0 -0.068,0.004 -0.066,0.002 -4.348,0 -8.471,-1.377 -11.931,-3.982 l -0.257,-0.186 c -4.815,-3.463 -10.273,-7.388 -16.681,-7.388 -3.357,0 -7.151,1.276 -11.322,3.8 0.01,-0.011 0.02,-0.023 0.03,-0.034 0.467,-0.523 0.93,-1.057 1.391,-1.6 0.035,-0.041 0.07,-0.082 0.105,-0.123 0.455,-0.538 0.908,-1.084 1.358,-1.635 0.035,-0.043 0.07,-0.086 0.105,-0.129 0.453,-0.555 0.904,-1.115 1.352,-1.677 0.029,-0.036 0.058,-0.072 0.086,-0.108 0.455,-0.57 0.909,-1.142 1.36,-1.712 2.606,-3.288 5.066,-6.394 7.554,-8.799 1.544,-1.493 2.813,-2.692 3.932,-3.71 0.42,-0.382 0.819,-0.738 1.202,-1.074 2.686,-2.356 4.653,-3.753 8.135,-6.225 l 0.379,-0.27 c 0.405,-0.275 0.823,-0.559 1.237,-0.836 3.495,-2.63 7.619,-4.007 11.961,-4.007 0.01,0 0.068,0.002 0.083,0.002 h 0.001 l 0.045,-0.785 0.012,0.783 c 4.496,0 8.736,1.467 12.262,4.241"
             style="fill:#3f3f3f;fill-opacity:1;fill-rule:nonzero;stroke:none"
             id="path206" /></g><g
           id="g208"
           transform="translate(1704.4431,1013.129)"><path
             d="M 0,0 V 7.076 H 3.934 V -10.806 H 0 v 7.178 h -7.255 v -7.178 H -11.19 V 7.076 h 3.935 l 0,-7.076 z m -25.504,-2.391 c 0,-10.944 8.904,-19.848 19.848,-19.848 4.497,0 8.738,1.467 12.264,4.241 4.111,3.144 10.269,7.315 16.354,7.315 2.004,0 3.915,-0.407 5.742,-1.064 -0.154,0.136 -0.31,0.277 -0.469,0.42 -0.047,0.042 -0.095,0.086 -0.142,0.128 -0.112,0.102 -0.225,0.204 -0.34,0.309 -0.06,0.055 -0.122,0.111 -0.183,0.167 -0.108,0.099 -0.218,0.2 -0.329,0.303 -0.064,0.059 -0.126,0.117 -0.191,0.176 -0.133,0.124 -0.269,0.25 -0.406,0.379 -0.077,0.071 -0.154,0.144 -0.232,0.217 -0.139,0.13 -0.279,0.262 -0.423,0.397 -0.077,0.073 -0.156,0.149 -0.235,0.223 -0.113,0.108 -0.228,0.217 -0.345,0.328 -0.087,0.082 -0.174,0.166 -0.262,0.25 -0.121,0.115 -0.244,0.233 -0.369,0.353 -0.083,0.079 -0.165,0.158 -0.25,0.24 -0.208,0.199 -0.419,0.403 -0.637,0.614 -2.562,2.477 -5.054,5.622 -7.692,8.952 -5.25,6.626 -10.678,13.477 -16.824,15.065 -0.678,0.175 -1.406,0.332 -2.225,0.482 -0.92,0.132 -1.874,0.201 -2.806,0.201 -10.944,0 -19.848,-8.904 -19.848,-19.848"
             style="fill:#3f3f3f;fill-opacity:1;fill-rule:nonzero;stroke:none"
             id="path210" /></g><g
           id="g212"
           transform="translate(1803.7936,1020.2053)"><path
             d="M 0,0 H 4.241 L 8.941,-7.562 13.642,0 h 4.241 V -17.883 H 13.974 V -6.208 L 8.941,-13.846 H 8.839 L 3.858,-6.285 V -17.883 H 0 Z m 10.099,-29.315 c 10.944,0 19.847,8.904 19.847,19.848 0,10.944 -8.903,19.847 -19.847,19.847 -4.343,0 -8.467,-1.377 -11.927,-3.982 L -2.085,6.212 C -6.9,2.749 -12.358,-1.176 -18.766,-1.176 c -3.251,0 -6.911,1.2 -10.927,3.567 0.173,-0.261 0.343,-0.525 0.506,-0.795 0.092,-0.106 0.183,-0.217 0.275,-0.324 0.228,-0.267 0.456,-0.535 0.683,-0.806 0.235,-0.281 0.47,-0.563 0.704,-0.847 0.213,-0.26 0.427,-0.519 0.64,-0.781 0.264,-0.325 0.525,-0.65 0.786,-0.976 0.18,-0.224 0.361,-0.447 0.54,-0.672 0.422,-0.53 0.842,-1.058 1.257,-1.582 0.199,-0.252 0.397,-0.501 0.595,-0.75 2.386,-3.008 4.662,-5.83 6.959,-8.051 6.177,-5.972 7.964,-7.242 13.27,-11.009 l 0.379,-0.27 c 0.404,-0.275 0.823,-0.559 1.237,-0.835 3.495,-2.631 7.619,-4.008 11.961,-4.008"
             style="fill:#3f3f3f;fill-opacity:1;fill-rule:nonzero;stroke:none"
             id="path214" /></g></g></g><text
       transform="matrix(1,0,0,-1,109.5474,998.7559)"
       style="font-variant:normal;font-weight:normal;font-stretch:normal;font-size:30.7748px;font-family:Archivo;-inkscape-font-specification:Archivo-Regular;writing-mode:lr-tb;fill:#3f3f3f;fill-opacity:1;fill-rule:nonzero;stroke:none"
       id="text218"><tspan
         x="0 26.097031 53.086529 81.614769 108.48117 135.22447 165.62997 178.21687 204.3139 231.30339 259.06226 283.86676 298.23859 326.79761 353.94098"
         y="0"
         id="tspan216">VERSÃO VERTICAL</tspan></text></g></svg>
