<?xml version="1.0" encoding="UTF-8" standalone="no"?>
<svg
   xmlns:dc="http://purl.org/dc/elements/1.1/"
   xmlns:cc="http://creativecommons.org/ns#"
   xmlns:rdf="http://www.w3.org/1999/02/22-rdf-syntax-ns#"
   xmlns:svg="http://www.w3.org/2000/svg"
   xmlns="http://www.w3.org/2000/svg"
   version="1.1"
   id="svg2"
   xml:space="preserve"
   width="2579.1201"
   height="1469.5333"
   viewBox="0 0 2579.1201 1469.5333"><metadata
     id="metadata8"><rdf:RDF><cc:Work
         rdf:about=""><dc:format>image/svg+xml</dc:format><dc:type
           rdf:resource="http://purl.org/dc/dcmitype/StillImage" /></cc:Work></rdf:RDF></metadata><defs
     id="defs6"><clipPath
       clipPathUnits="userSpaceOnUse"
       id="clipPath26"><path
         d="M 0,1102.154 H 1934.337 V 0 H 0 Z"
         id="path24" /></clipPath><clipPath
       clipPathUnits="userSpaceOnUse"
       id="clipPath170"><path
         d="M 0,1102.154 H 1934.337 V 0 H 0 Z"
         id="path168" /></clipPath><clipPath
       clipPathUnits="userSpaceOnUse"
       id="clipPath246"><path
         d="M 0,1102.154 H 1934.337 V 0 H 0 Z"
         id="path244" /></clipPath></defs><g
     id="g10"
     transform="matrix(1.3333333,0,0,-1.3333333,0,1469.5333)"><g
       id="g12"
       transform="translate(1703.2512,983.1905)"><path
         d="M 0,0 H 1.026 L 2.694,-2.593 4.362,0 H 5.389 V -5.483 H 4.425 v 3.932 L 2.694,-4.136 H 2.663 l -1.716,2.57 v -3.917 l -0.947,0 z"
         style="fill:#3f3f3f;fill-opacity:1;fill-rule:nonzero;stroke:none"
         id="path14" /></g><g
       id="g16"
       transform="translate(1713.6877,979.8854)"><path
         d="M 0,0 -0.948,2.193 -1.887,0 Z m -1.378,3.344 h 0.893 L 1.927,-2.178 H 0.909 L 0.353,-0.854 H -2.24 l -0.564,-1.324 h -0.987 z"
         style="fill:#3f3f3f;fill-opacity:1;fill-rule:nonzero;stroke:none"
         id="path18" /></g><g
       id="g20"><g
         id="g22"
         clip-path="url(#clipPath26)"><g
           id="g28"
           transform="translate(1719.2451,980.4724)"><path
             d="m 0,0 c 0.689,0 1.128,0.353 1.128,0.917 v 0.015 c 0,0.596 -0.416,0.909 -1.136,0.909 H -1.41 V 0 Z M -2.373,2.718 H 0.07 C 0.759,2.718 1.3,2.515 1.653,2.17 1.942,1.864 2.107,1.465 2.107,0.987 V 0.972 C 2.107,0.071 1.566,-0.47 0.806,-0.689 L 2.287,-2.765 H 1.144 l -1.348,1.912 H -1.41 v -1.912 h -0.963 z"
             style="fill:#3f3f3f;fill-opacity:1;fill-rule:nonzero;stroke:none"
             id="path30" /></g><g
           id="g32"
           transform="translate(1722.851,983.1905)"><path
             d="M 0,0 H 0.964 V -2.757 L 3.564,0 H 4.763 L 2.475,-2.358 4.864,-5.483 H 3.69 L 1.817,-3.016 0.964,-3.893 v -1.59 l -0.964,0 z"
             style="fill:#3f3f3f;fill-opacity:1;fill-rule:nonzero;stroke:none"
             id="path34" /></g><g
           id="g36"
           transform="translate(1728.8542,983.1905)"><path
             d="M 0,0 H 4.065 V -0.862 H 0.963 v -1.425 h 2.75 V -3.156 H 0.963 V -4.621 H 4.104 V -5.483 H 0 Z"
             style="fill:#3f3f3f;fill-opacity:1;fill-rule:nonzero;stroke:none"
             id="path38" /></g><g
           id="g40"
           transform="translate(1735.7502,982.2974)"><path
             d="M 0,0 H -1.747 V 0.893 H 2.71 V 0 H 0.963 V -4.59 H 0 Z"
             style="fill:#3f3f3f;fill-opacity:1;fill-rule:nonzero;stroke:none"
             id="path42" /></g><path
           d="m 1739.834,983.19 h 0.963 v -5.483 h -0.963 z"
           style="fill:#3f3f3f;fill-opacity:1;fill-rule:nonzero;stroke:none"
           id="path44" /><g
           id="g46"
           transform="translate(1742.5767,983.1905)"><path
             d="M 0,0 H 0.893 L 3.83,-3.791 V 0 H 4.778 V -5.483 H 3.971 L 0.948,-1.582 V -5.483 H 0 Z"
             style="fill:#3f3f3f;fill-opacity:1;fill-rule:nonzero;stroke:none"
             id="path48" /></g><g
           id="g50"
           transform="translate(1748.8386,980.4337)"><path
             d="m 0,0 v 0.015 c 0,1.536 1.167,2.836 2.828,2.836 0.948,0 1.543,-0.267 2.106,-0.744 L 4.324,1.378 C 3.901,1.739 3.478,1.958 2.788,1.958 1.786,1.958 1.01,1.081 1.01,0.031 V 0.015 c 0,-1.128 0.744,-1.958 1.865,-1.958 0.524,0 0.986,0.165 1.323,0.415 V -0.51 H 2.796 V 0.337 H 5.13 V -1.966 C 4.582,-2.429 3.815,-2.82 2.843,-2.82 1.128,-2.82 0,-1.598 0,0"
             style="fill:#3f3f3f;fill-opacity:1;fill-rule:nonzero;stroke:none"
             id="path52" /></g><path
           d="m 1758.259,983.19 h 0.963 v -5.483 h -0.963 z"
           style="fill:#3f3f3f;fill-opacity:1;fill-rule:nonzero;stroke:none"
           id="path54" /><g
           id="g56"
           transform="translate(1761.0012,983.1905)"><path
             d="M 0,0 H 0.893 L 3.83,-3.791 V 0 H 4.778 V -5.483 H 3.971 L 0.948,-1.582 V -5.483 H 0 Z"
             style="fill:#3f3f3f;fill-opacity:1;fill-rule:nonzero;stroke:none"
             id="path58" /></g><g
           id="g60"
           transform="translate(1768.8451,982.2974)"><path
             d="M 0,0 H -1.747 V 0.893 H 2.71 V 0 H 0.964 V -4.59 H 0 Z"
             style="fill:#3f3f3f;fill-opacity:1;fill-rule:nonzero;stroke:none"
             id="path62" /></g><g
           id="g64"
           transform="translate(1772.8743,983.1905)"><path
             d="M 0,0 H 4.065 V -0.862 H 0.963 v -1.425 h 2.75 V -3.156 H 0.963 V -4.621 H 4.104 V -5.483 H 0 Z"
             style="fill:#3f3f3f;fill-opacity:1;fill-rule:nonzero;stroke:none"
             id="path66" /></g><g
           id="g68"
           transform="translate(1778.1956,980.4337)"><path
             d="m 0,0 v 0.015 c 0,1.536 1.167,2.836 2.828,2.836 0.948,0 1.543,-0.267 2.106,-0.744 L 4.324,1.378 C 3.901,1.739 3.478,1.958 2.788,1.958 1.786,1.958 1.01,1.081 1.01,0.031 V 0.015 c 0,-1.128 0.745,-1.958 1.865,-1.958 0.525,0 0.987,0.165 1.323,0.415 V -0.51 H 2.797 V 0.337 H 5.131 V -1.966 C 4.582,-2.429 3.815,-2.82 2.843,-2.82 1.128,-2.82 0,-1.598 0,0"
             style="fill:#3f3f3f;fill-opacity:1;fill-rule:nonzero;stroke:none"
             id="path70" /></g><g
           id="g72"
           transform="translate(1787.2698,980.4724)"><path
             d="m 0,0 c 0.689,0 1.127,0.353 1.127,0.917 v 0.015 c 0,0.596 -0.415,0.909 -1.135,0.909 H -1.411 V 0 Z M -2.373,2.718 H 0.07 C 0.759,2.718 1.3,2.515 1.652,2.17 1.942,1.864 2.107,1.465 2.107,0.987 V 0.972 C 2.107,0.071 1.566,-0.47 0.806,-0.689 L 2.287,-2.765 H 1.143 l -1.347,1.912 h -1.207 v -1.912 h -0.962 z"
             style="fill:#3f3f3f;fill-opacity:1;fill-rule:nonzero;stroke:none"
             id="path74" /></g><g
           id="g76"
           transform="translate(1794.1967,979.8854)"><path
             d="M 0,0 -0.948,2.193 -1.887,0 Z m -1.378,3.344 h 0.893 L 1.927,-2.178 H 0.909 L 0.353,-0.854 H -2.24 l -0.564,-1.324 h -0.987 z"
             style="fill:#3f3f3f;fill-opacity:1;fill-rule:nonzero;stroke:none"
             id="path78" /></g><g
           id="g80"
           transform="translate(1798.3435,982.3134)"><path
             d="m 0,0 v -3.728 h 1.081 c 1.152,0 1.904,0.775 1.904,1.848 v 0.016 C 2.985,-0.791 2.233,0 1.081,0 Z m -0.963,0.877 h 2.044 c 1.723,0 2.914,-1.183 2.914,-2.726 v -0.015 c 0,-1.543 -1.191,-2.742 -2.914,-2.742 h -2.044 z"
             style="fill:#3f3f3f;fill-opacity:1;fill-rule:nonzero;stroke:none"
             id="path82" /></g><g
           id="g84"
           transform="translate(1808.3031,980.4337)"><path
             d="m 0,0 v 0.015 c 0,1.066 -0.768,1.943 -1.865,1.943 -1.089,0 -1.848,-0.861 -1.848,-1.927 V 0.015 c 0,-1.065 0.768,-1.942 1.864,-1.942 C -0.76,-1.927 0,-1.066 0,0 m -4.723,0 v 0.015 c 0,1.536 1.19,2.836 2.874,2.836 1.684,0 2.859,-1.277 2.859,-2.82 V 0.015 c 0,-1.535 -1.19,-2.835 -2.875,-2.835 -1.683,0 -2.858,1.277 -2.858,2.82"
             style="fill:#3f3f3f;fill-opacity:1;fill-rule:nonzero;stroke:none"
             id="path86" /></g><g
           id="g88"
           transform="translate(1754.2791,1002.0673)"><path
             d="m 0,0 c -2.708,0 -5.441,0.945 -7.587,2.861 l 2.325,2.785 c 1.609,-1.329 3.295,-2.172 5.339,-2.172 1.609,0 2.58,0.639 2.58,1.686 v 0.051 c 0,0.997 -0.613,1.508 -3.602,2.274 -3.602,0.92 -5.927,1.916 -5.927,5.467 v 0.051 c 0,3.245 2.606,5.39 6.259,5.39 2.606,0 4.828,-0.817 6.642,-2.273 L 3.985,13.156 c -1.583,1.099 -3.142,1.763 -4.649,1.763 -1.507,0 -2.299,-0.69 -2.299,-1.558 V 13.31 c 0,-1.176 0.766,-1.559 3.858,-2.351 C 4.522,10.014 6.566,8.711 6.566,5.594 V 5.543 C 6.566,1.993 3.858,0 0,0 m 14.394,-6.936 c 4.111,3.144 10.268,7.315 16.354,7.315 2.004,0 3.916,-0.407 5.742,-1.064 -0.153,0.136 -0.31,0.277 -0.469,0.42 -0.047,0.042 -0.095,0.085 -0.142,0.128 -0.112,0.101 -0.225,0.204 -0.34,0.309 -0.06,0.055 -0.121,0.111 -0.182,0.167 -0.108,0.099 -0.219,0.2 -0.33,0.303 -0.063,0.058 -0.126,0.116 -0.191,0.176 -0.133,0.123 -0.268,0.25 -0.406,0.378 -0.076,0.072 -0.154,0.144 -0.232,0.217 -0.138,0.13 -0.279,0.262 -0.422,0.398 -0.077,0.073 -0.157,0.148 -0.235,0.223 -0.114,0.107 -0.229,0.216 -0.346,0.328 -0.086,0.082 -0.174,0.165 -0.262,0.249 -0.121,0.116 -0.244,0.234 -0.368,0.353 -0.084,0.08 -0.166,0.159 -0.251,0.241 -0.207,0.199 -0.418,0.403 -0.636,0.613 -2.202,2.129 -4.353,4.753 -6.588,7.561 -0.366,0.46 -0.734,0.923 -1.105,1.391 l -0.048,0.061 c -0.366,0.463 -0.736,0.929 -1.107,1.396 -0.023,0.028 -0.046,0.057 -0.069,0.085 -1.2,1.507 -2.426,3.02 -3.662,4.447 -0.002,0.002 -0.003,0.005 -0.005,0.007 -3.526,4.072 -7.198,7.523 -11.165,8.84 -0.231,0.072 -0.461,0.144 -0.696,0.208 -0.01,0.002 -0.061,0.018 -0.071,0.021 l -0.04,0.01 c -0.168,0.045 -0.345,0.087 -0.523,0.129 -0.116,0.027 -0.236,0.054 -0.355,0.08 -0.19,0.041 -0.381,0.082 -0.578,0.119 l -0.145,0.03 C 5.331,28.241 5.142,28.28 4.95,28.315 l -0.013,0.002 -0.001,0.001 c -0.92,0.131 -1.873,0.2 -2.806,0.2 L 2.061,28.516 c -0.011,0 -0.068,0.004 -0.066,0.002 -4.348,0 -8.471,-1.377 -11.931,-3.982 l -0.257,-0.186 c -4.815,-3.463 -10.273,-7.388 -16.681,-7.388 -3.357,0 -7.151,1.276 -11.322,3.8 0.01,-0.011 0.02,-0.023 0.03,-0.034 0.467,-0.523 0.93,-1.057 1.391,-1.6 0.035,-0.041 0.07,-0.082 0.105,-0.123 0.455,-0.538 0.908,-1.084 1.358,-1.635 0.035,-0.043 0.07,-0.086 0.105,-0.129 0.453,-0.555 0.904,-1.115 1.352,-1.677 0.029,-0.036 0.058,-0.072 0.086,-0.108 0.455,-0.57 0.909,-1.142 1.36,-1.712 2.606,-3.288 5.066,-6.394 7.554,-8.799 1.544,-1.493 2.813,-2.692 3.932,-3.71 0.42,-0.382 0.819,-0.738 1.202,-1.074 2.686,-2.356 4.653,-3.753 8.135,-6.225 l 0.379,-0.27 c 0.405,-0.275 0.823,-0.559 1.237,-0.836 3.495,-2.63 7.619,-4.007 11.961,-4.007 0.01,0 0.068,0.002 0.083,0.002 h 0.001 l 0.045,-0.785 0.012,0.783 c 4.496,0 8.736,1.467 12.262,4.241"
             style="fill:#3f3f3f;fill-opacity:1;fill-rule:nonzero;stroke:none"
             id="path90" /></g><g
           id="g92"
           transform="translate(1704.4431,1013.129)"><path
             d="M 0,0 V 7.076 H 3.934 V -10.806 H 0 v 7.178 h -7.255 v -7.178 H -11.19 V 7.076 h 3.935 l 0,-7.076 z m -25.504,-2.391 c 0,-10.944 8.904,-19.848 19.848,-19.848 4.497,0 8.738,1.467 12.264,4.241 4.111,3.144 10.269,7.315 16.354,7.315 2.004,0 3.915,-0.407 5.742,-1.064 -0.154,0.136 -0.31,0.277 -0.469,0.42 -0.047,0.042 -0.095,0.086 -0.142,0.128 -0.112,0.102 -0.225,0.204 -0.34,0.309 -0.06,0.055 -0.122,0.111 -0.183,0.167 -0.108,0.099 -0.218,0.2 -0.329,0.303 -0.064,0.059 -0.126,0.117 -0.191,0.176 -0.133,0.124 -0.269,0.25 -0.406,0.379 -0.077,0.071 -0.154,0.144 -0.232,0.217 -0.139,0.13 -0.279,0.262 -0.423,0.397 -0.077,0.073 -0.156,0.149 -0.235,0.223 -0.113,0.108 -0.228,0.217 -0.345,0.328 -0.087,0.082 -0.174,0.166 -0.262,0.25 -0.121,0.115 -0.244,0.233 -0.369,0.353 -0.083,0.079 -0.165,0.158 -0.25,0.24 -0.208,0.199 -0.419,0.403 -0.637,0.614 -2.562,2.477 -5.054,5.622 -7.692,8.952 -5.25,6.626 -10.678,13.477 -16.824,15.065 -0.678,0.175 -1.406,0.332 -2.225,0.482 -0.92,0.132 -1.874,0.201 -2.806,0.201 -10.944,0 -19.848,-8.904 -19.848,-19.848"
             style="fill:#3f3f3f;fill-opacity:1;fill-rule:nonzero;stroke:none"
             id="path94" /></g><g
           id="g96"
           transform="translate(1803.7936,1020.2053)"><path
             d="M 0,0 H 4.241 L 8.941,-7.562 13.642,0 h 4.241 V -17.883 H 13.974 V -6.208 L 8.941,-13.846 H 8.839 L 3.858,-6.285 V -17.883 H 0 Z m 10.099,-29.315 c 10.944,0 19.847,8.904 19.847,19.848 0,10.944 -8.903,19.847 -19.847,19.847 -4.343,0 -8.467,-1.377 -11.927,-3.982 L -2.085,6.212 C -6.9,2.749 -12.358,-1.176 -18.766,-1.176 c -3.251,0 -6.911,1.2 -10.927,3.567 0.173,-0.261 0.343,-0.525 0.506,-0.795 0.092,-0.106 0.183,-0.217 0.275,-0.324 0.228,-0.267 0.456,-0.535 0.683,-0.806 0.235,-0.281 0.47,-0.563 0.704,-0.847 0.213,-0.26 0.427,-0.519 0.64,-0.781 0.264,-0.325 0.525,-0.65 0.786,-0.976 0.18,-0.224 0.361,-0.447 0.54,-0.672 0.422,-0.53 0.842,-1.058 1.257,-1.582 0.199,-0.252 0.397,-0.501 0.595,-0.75 2.386,-3.008 4.662,-5.83 6.959,-8.051 6.177,-5.972 7.964,-7.242 13.27,-11.009 l 0.379,-0.27 c 0.404,-0.275 0.823,-0.559 1.237,-0.835 3.495,-2.631 7.619,-4.008 11.961,-4.008"
             style="fill:#3f3f3f;fill-opacity:1;fill-rule:nonzero;stroke:none"
             id="path98" /></g></g></g><text
       transform="matrix(1,0,0,-1,109.5479,998.7568)"
       style="font-variant:normal;font-weight:normal;font-stretch:normal;font-size:30.7748px;font-family:Archivo;-inkscape-font-specification:Archivo-Regular;writing-mode:lr-tb;fill:#3f3f3f;fill-opacity:1;fill-rule:nonzero;stroke:none"
       id="text102"><tspan
         x="0 28.559015 58.964516 87.49276 114.48225"
         y="0"
         id="tspan100">CORES</tspan></text><text
       transform="matrix(1,0,0,-1,531.896,540.6709)"
       style="font-variant:normal;font-weight:bold;font-stretch:normal;font-size:29.9156px;font-family:Archivo;-inkscape-font-specification:Archivo-Bold;writing-mode:lr-tb;fill:#3f3f3f;fill-opacity:1;fill-rule:nonzero;stroke:none"
       id="text106"><tspan
         x="0 17.94936 35.749142 53.548923 75.147987 92.977684 114.90582"
         y="0"
         id="tspan104">#09B3CD</tspan></text><text
       transform="matrix(1,0,0,-1,531.896,496.2305)"
       style="font-variant:normal;font-weight:bold;font-stretch:normal;font-size:23.7184px;font-family:Archivo;-inkscape-font-specification:Archivo-Bold;writing-mode:lr-tb;fill:#3f3f3f;fill-opacity:1;fill-rule:nonzero;stroke:none"
       id="text110"><tspan
         x="0 17.314432"
         y="0"
         id="tspan108">R:</tspan></text><text
       transform="matrix(1,0,0,-1,562.23183,496.2305)"
       style="font-variant:normal;font-weight:300;font-stretch:normal;font-size:23.7184px;font-family:'Archivo Light';-inkscape-font-specification:Archivo-Light;writing-mode:lr-tb;fill:#3f3f3f;fill-opacity:1;fill-rule:nonzero;stroke:none"
       id="text114"><tspan
         x="0"
         y="0"
         id="tspan112">9</tspan></text><text
       transform="matrix(1,0,0,-1,633.14985,496.2305)"
       style="font-variant:normal;font-weight:bold;font-stretch:normal;font-size:23.7184px;font-family:Archivo;-inkscape-font-specification:Archivo-Bold;writing-mode:lr-tb;fill:#3f3f3f;fill-opacity:1;fill-rule:nonzero;stroke:none"
       id="text118"><tspan
         x="0 19.022158"
         y="0"
         id="tspan116">G:</tspan></text><text
       transform="matrix(1,0,0,-1,665.19341,496.2305)"
       style="font-variant:normal;font-weight:300;font-stretch:normal;font-size:23.7184px;font-family:'Archivo Light';-inkscape-font-specification:Archivo-Light;writing-mode:lr-tb;fill:#3f3f3f;fill-opacity:1;fill-rule:nonzero;stroke:none"
       id="text122"><tspan
         x="0 11.764326 24.619699"
         y="0"
         id="tspan120">179</tspan></text><text
       transform="matrix(1,0,0,-1,728.11832,496.2305)"
       style="font-variant:normal;font-weight:bold;font-stretch:normal;font-size:23.7184px;font-family:Archivo;-inkscape-font-specification:Archivo-Bold;writing-mode:lr-tb;fill:#3f3f3f;fill-opacity:1;fill-rule:nonzero;stroke:none"
       id="text126"><tspan
         x="0 17.124685"
         y="0"
         id="tspan124">B:</tspan></text><text
       transform="matrix(1,0,0,-1,758.26441,496.2305)"
       style="font-variant:normal;font-weight:300;font-stretch:normal;font-size:23.7184px;font-family:'Archivo Light';-inkscape-font-specification:Archivo-Light;writing-mode:lr-tb;fill:#3f3f3f;fill-opacity:1;fill-rule:nonzero;stroke:none"
       id="text130"><tspan
         x="0 13.353459 26.920383"
         y="0"
         id="tspan128">205</tspan></text><text
       transform="matrix(1,0,0,-1,531.91972,451.07067)"
       style="font-variant:normal;font-weight:bold;font-stretch:normal;font-size:23.7184px;font-family:Archivo;-inkscape-font-specification:Archivo-Bold;writing-mode:lr-tb;fill:#3f3f3f;fill-opacity:1;fill-rule:nonzero;stroke:none"
       id="text134"><tspan
         x="0 17.385588"
         y="0"
         id="tspan132">C:</tspan></text><text
       transform="matrix(1,0,0,-1,562.32671,451.07067)"
       style="font-variant:normal;font-weight:300;font-stretch:normal;font-size:23.7184px;font-family:'Archivo Light';-inkscape-font-specification:Archivo-Light;writing-mode:lr-tb;fill:#3f3f3f;fill-opacity:1;fill-rule:nonzero;stroke:none"
       id="text138"><tspan
         x="0 12.855372"
         y="0"
         id="tspan136">73</tspan></text><text
       transform="matrix(1,0,0,-1,633.17357,451.07067)"
       style="font-variant:normal;font-weight:bold;font-stretch:normal;font-size:23.7184px;font-family:Archivo;-inkscape-font-specification:Archivo-Bold;writing-mode:lr-tb;fill:#3f3f3f;fill-opacity:1;fill-rule:nonzero;stroke:none"
       id="text142"><tspan
         x="0 20.682446"
         y="0"
         id="tspan140">M:</tspan></text><text
       transform="matrix(1,0,0,-1,666.87741,451.07067)"
       style="font-variant:normal;font-weight:300;font-stretch:normal;font-size:23.7184px;font-family:'Archivo Light';-inkscape-font-specification:Archivo-Light;writing-mode:lr-tb;fill:#3f3f3f;fill-opacity:1;fill-rule:nonzero;stroke:none"
       id="text146"><tspan
         x="0"
         y="0"
         id="tspan144">2</tspan></text><text
       transform="matrix(1,0,0,-1,728.14204,451.07067)"
       style="font-variant:normal;font-weight:bold;font-stretch:normal;font-size:23.7184px;font-family:Archivo;-inkscape-font-specification:Archivo-Bold;writing-mode:lr-tb;fill:#3f3f3f;fill-opacity:1;fill-rule:nonzero;stroke:none"
       id="text150"><tspan
         x="0 15.345805"
         y="0"
         id="tspan148">Y:</tspan></text><text
       transform="matrix(1,0,0,-1,756.50925,451.07067)"
       style="font-variant:normal;font-weight:300;font-stretch:normal;font-size:23.7184px;font-family:'Archivo Light';-inkscape-font-specification:Archivo-Light;writing-mode:lr-tb;fill:#3f3f3f;fill-opacity:1;fill-rule:nonzero;stroke:none"
       id="text154"><tspan
         x="0 11.764326"
         y="0"
         id="tspan152">19</tspan></text><text
       transform="matrix(1,0,0,-1,826.64456,451.07067)"
       style="font-variant:normal;font-weight:bold;font-stretch:normal;font-size:23.7184px;font-family:Archivo;-inkscape-font-specification:Archivo-Bold;writing-mode:lr-tb;fill:#3f3f3f;fill-opacity:1;fill-rule:nonzero;stroke:none"
       id="text158"><tspan
         x="0 17.195841"
         y="0"
         id="tspan156">K:</tspan></text><text
       transform="matrix(1,0,0,-1,856.8618,451.07067)"
       style="font-variant:normal;font-weight:300;font-stretch:normal;font-size:23.7184px;font-family:'Archivo Light';-inkscape-font-specification:Archivo-Light;writing-mode:lr-tb;fill:#3f3f3f;fill-opacity:1;fill-rule:nonzero;stroke:none"
       id="text162"><tspan
         x="0"
         y="0"
         id="tspan160">0</tspan></text><g
       id="g164"><g
         id="g166"
         clip-path="url(#clipPath170)"><g
           id="g172"
           transform="translate(486.5997,615.2817)"><path
             d="m 0,0 h -179.718 c -8.92,0 -16.152,-7.231 -16.152,-16.151 V -195.87 c 0,-8.92 7.232,-16.151 16.152,-16.151 H 0 c 8.92,0 16.151,7.231 16.151,16.151 V -16.151 C 16.151,-7.231 8.92,0 0,0"
             style="fill:#6ea0d3;fill-opacity:1;fill-rule:nonzero;stroke:none"
             id="path174" /></g><g
           id="g176"
           transform="translate(435.6211,518.9197)"><path
             d="M 0,0 H -29.231 V 29.233 H -48.529 V 0 h -29.232 v -19.299 h 29.232 V -48.53 h 19.298 v 29.231 H 0 Z"
             style="fill:#ffffff;fill-opacity:1;fill-rule:nonzero;stroke:none"
             id="path178" /></g></g></g><text
       transform="matrix(1,0,0,-1,1318.9614,540.6709)"
       style="font-variant:normal;font-weight:bold;font-stretch:normal;font-size:29.9156px;font-family:Archivo;-inkscape-font-specification:Archivo-Bold;writing-mode:lr-tb;fill:#3f3f3f;fill-opacity:1;fill-rule:nonzero;stroke:none"
       id="text182"><tspan
         x="0 17.94936 38.381714 59.980778 77.810478 95.640175 113.46987"
         y="0"
         id="tspan180">#EB6285</tspan></text><text
       transform="matrix(1,0,0,-1,1318.9614,496.2305)"
       style="font-variant:normal;font-weight:bold;font-stretch:normal;font-size:23.7184px;font-family:Archivo;-inkscape-font-specification:Archivo-Bold;writing-mode:lr-tb;fill:#3f3f3f;fill-opacity:1;fill-rule:nonzero;stroke:none"
       id="text186"><tspan
         x="0 17.314432"
         y="0"
         id="tspan184">R:</tspan></text><text
       transform="matrix(1,0,0,-1,1349.2972,496.2305)"
       style="font-variant:normal;font-weight:300;font-stretch:normal;font-size:23.7184px;font-family:'Archivo Light';-inkscape-font-specification:Archivo-Light;writing-mode:lr-tb;fill:#3f3f3f;fill-opacity:1;fill-rule:nonzero;stroke:none"
       id="text190"><tspan
         x="0 13.353459 26.920383"
         y="0"
         id="tspan188">235</tspan></text><text
       transform="matrix(1,0,0,-1,1420.2152,496.2305)"
       style="font-variant:normal;font-weight:bold;font-stretch:normal;font-size:23.7184px;font-family:Archivo;-inkscape-font-specification:Archivo-Bold;writing-mode:lr-tb;fill:#3f3f3f;fill-opacity:1;fill-rule:nonzero;stroke:none"
       id="text194"><tspan
         x="0 19.022158"
         y="0"
         id="tspan192">G:</tspan></text><text
       transform="matrix(1,0,0,-1,1452.2588,496.2305)"
       style="font-variant:normal;font-weight:300;font-stretch:normal;font-size:23.7184px;font-family:'Archivo Light';-inkscape-font-specification:Archivo-Light;writing-mode:lr-tb;fill:#3f3f3f;fill-opacity:1;fill-rule:nonzero;stroke:none"
       id="text198"><tspan
         x="0 13.566925"
         y="0"
         id="tspan196">98</tspan></text><text
       transform="matrix(1,0,0,-1,1515.1837,496.2305)"
       style="font-variant:normal;font-weight:bold;font-stretch:normal;font-size:23.7184px;font-family:Archivo;-inkscape-font-specification:Archivo-Bold;writing-mode:lr-tb;fill:#3f3f3f;fill-opacity:1;fill-rule:nonzero;stroke:none"
       id="text202"><tspan
         x="0 17.124685"
         y="0"
         id="tspan200">B:</tspan></text><text
       transform="matrix(1,0,0,-1,1545.3298,496.2305)"
       style="font-variant:normal;font-weight:300;font-stretch:normal;font-size:23.7184px;font-family:'Archivo Light';-inkscape-font-specification:Archivo-Light;writing-mode:lr-tb;fill:#3f3f3f;fill-opacity:1;fill-rule:nonzero;stroke:none"
       id="text206"><tspan
         x="0 11.764326 25.331251"
         y="0"
         id="tspan204">133</tspan></text><text
       transform="matrix(1,0,0,-1,1318.9851,451.07067)"
       style="font-variant:normal;font-weight:bold;font-stretch:normal;font-size:23.7184px;font-family:Archivo;-inkscape-font-specification:Archivo-Bold;writing-mode:lr-tb;fill:#3f3f3f;fill-opacity:1;fill-rule:nonzero;stroke:none"
       id="text210"><tspan
         x="0 17.385588"
         y="0"
         id="tspan208">C:</tspan></text><text
       transform="matrix(1,0,0,-1,1349.3921,451.07067)"
       style="font-variant:normal;font-weight:300;font-stretch:normal;font-size:23.7184px;font-family:'Archivo Light';-inkscape-font-specification:Archivo-Light;writing-mode:lr-tb;fill:#3f3f3f;fill-opacity:1;fill-rule:nonzero;stroke:none"
       id="text214"><tspan
         x="0"
         y="0"
         id="tspan212">0</tspan></text><text
       transform="matrix(1,0,0,-1,1420.239,451.07067)"
       style="font-variant:normal;font-weight:bold;font-stretch:normal;font-size:23.7184px;font-family:Archivo;-inkscape-font-specification:Archivo-Bold;writing-mode:lr-tb;fill:#3f3f3f;fill-opacity:1;fill-rule:nonzero;stroke:none"
       id="text218"><tspan
         x="0 20.682446"
         y="0"
         id="tspan216">M:</tspan></text><text
       transform="matrix(1,0,0,-1,1453.9428,451.07067)"
       style="font-variant:normal;font-weight:300;font-stretch:normal;font-size:23.7184px;font-family:'Archivo Light';-inkscape-font-specification:Archivo-Light;writing-mode:lr-tb;fill:#3f3f3f;fill-opacity:1;fill-rule:nonzero;stroke:none"
       id="text222"><tspan
         x="0 12.855372"
         y="0"
         id="tspan220">74</tspan></text><text
       transform="matrix(1,0,0,-1,1515.2074,451.07067)"
       style="font-variant:normal;font-weight:bold;font-stretch:normal;font-size:23.7184px;font-family:Archivo;-inkscape-font-specification:Archivo-Bold;writing-mode:lr-tb;fill:#3f3f3f;fill-opacity:1;fill-rule:nonzero;stroke:none"
       id="text226"><tspan
         x="0 15.345805"
         y="0"
         id="tspan224">Y:</tspan></text><text
       transform="matrix(1,0,0,-1,1543.5746,451.07067)"
       style="font-variant:normal;font-weight:300;font-stretch:normal;font-size:23.7184px;font-family:'Archivo Light';-inkscape-font-specification:Archivo-Light;writing-mode:lr-tb;fill:#3f3f3f;fill-opacity:1;fill-rule:nonzero;stroke:none"
       id="text230"><tspan
         x="0 13.353459"
         y="0"
         id="tspan228">25</tspan></text><text
       transform="matrix(1,0,0,-1,1613.71,451.07067)"
       style="font-variant:normal;font-weight:bold;font-stretch:normal;font-size:23.7184px;font-family:Archivo;-inkscape-font-specification:Archivo-Bold;writing-mode:lr-tb;fill:#3f3f3f;fill-opacity:1;fill-rule:nonzero;stroke:none"
       id="text234"><tspan
         x="0 17.195841"
         y="0"
         id="tspan232">K:</tspan></text><text
       transform="matrix(1,0,0,-1,1643.9272,451.07067)"
       style="font-variant:normal;font-weight:300;font-stretch:normal;font-size:23.7184px;font-family:'Archivo Light';-inkscape-font-specification:Archivo-Light;writing-mode:lr-tb;fill:#3f3f3f;fill-opacity:1;fill-rule:nonzero;stroke:none"
       id="text238"><tspan
         x="0"
         y="0"
         id="tspan236">0</tspan></text><g
       id="g240"><g
         id="g242"
         clip-path="url(#clipPath246)"><g
           id="g248"
           transform="translate(1273.6649,615.2817)"><path
             d="m 0,0 h -179.718 c -8.92,0 -16.152,-7.231 -16.152,-16.151 V -195.87 c 0,-8.92 7.232,-16.151 16.152,-16.151 H 0 c 8.92,0 16.151,7.231 16.151,16.151 V -16.151 C 16.151,-7.231 8.92,0 0,0"
             style="fill:#a72740;fill-opacity:1;fill-rule:nonzero;stroke:none"
             id="path250" /></g><g
           id="g252"
           transform="translate(1222.6863,518.9197)"><path
             d="M 0,0 H -29.231 V 29.233 H -48.529 V 0 h -29.232 v -19.299 h 29.232 V -48.53 h 19.298 v 29.231 H 0 Z"
             style="fill:#ffffff;fill-opacity:1;fill-rule:nonzero;stroke:none"
             id="path254" /></g></g></g></g></svg>
