<?xml version="1.0" encoding="UTF-8" standalone="no"?>
<svg
   xmlns:dc="http://purl.org/dc/elements/1.1/"
   xmlns:cc="http://creativecommons.org/ns#"
   xmlns:rdf="http://www.w3.org/1999/02/22-rdf-syntax-ns#"
   xmlns:svg="http://www.w3.org/2000/svg"
   xmlns="http://www.w3.org/2000/svg"
   version="1.1"
   id="svg2"
   xml:space="preserve"
   width="2579.1201"
   height="1469.5333"
   viewBox="0 0 2579.1201 1469.5333"><metadata
     id="metadata8"><rdf:RDF><cc:Work
         rdf:about=""><dc:format>image/svg+xml</dc:format><dc:type
           rdf:resource="http://purl.org/dc/dcmitype/StillImage" /></cc:Work></rdf:RDF></metadata><defs
     id="defs6"><clipPath
       clipPathUnits="userSpaceOnUse"
       id="clipPath98"><path
         d="M 0,1102.154 H 1934.337 V 0 H 0 Z"
         id="path96" /></clipPath><clipPath
       clipPathUnits="userSpaceOnUse"
       id="clipPath182"><path
         d="M 0,1102.154 H 1934.337 V 0 H 0 Z"
         id="path180" /></clipPath><clipPath
       clipPathUnits="userSpaceOnUse"
       id="clipPath190"><path
         d="M 3888.674,489.815 H 1954.337 V 245.251 h 1934.337 z"
         id="path188" /></clipPath><clipPath
       clipPathUnits="userSpaceOnUse"
       id="clipPath330"><path
         d="M 3888.674,244.564 H 1954.337 V 0 h 1934.337 z"
         id="path328" /></clipPath><clipPath
       clipPathUnits="userSpaceOnUse"
       id="clipPath470"><path
         d="M 3888.674,489.815 H 1955.719 v 436.167 h 1932.955 z"
         id="path468" /></clipPath></defs><g
     id="g10"
     transform="matrix(1.3333333,0,0,-1.3333333,0,1469.5333)"><text
       transform="matrix(1,0,0,-1,86.4531,649.3896)"
       style="font-variant:normal;font-weight:normal;font-stretch:normal;font-size:36.1303px;font-family:Archivo;-inkscape-font-specification:Archivo-Regular;writing-mode:lr-tb;fill:#3f3f3f;fill-opacity:1;fill-rule:nonzero;stroke:none"
       id="text14"><tspan
         x="0 25.002167 36.997429 56.110355 76.813019 85.303635 103.69396 124.64954 132.56207 144.55733 164.71803 185.16779 205.83432 214.32494 234.37726"
         y="0"
         id="tspan12">Archivo regular</tspan></text><text
       transform="matrix(1,0,0,-1,86.4531,601.9336)"
       style="font-variant:normal;font-weight:normal;font-stretch:normal;font-size:25.8074px;font-family:Archivo;-inkscape-font-specification:Archivo-Regular;writing-mode:lr-tb;fill:#3f3f3f;fill-opacity:1;fill-rule:nonzero;stroke:none"
       id="text22"><tspan
         x="0 17.858721 36.13036 55.17622 74.37693 92.106613 108.15881 128.95958 148.2119 155.36055 170.04495 187.38753 201.47838 223.59531 242.84764 263.44193 280.86194 301.45624 320.47629 338.10275 354.00009 373.12338 390.10464 413.69263 430.72549 447.88742"
         y="0"
         id="tspan16">ABCDEFGHIJKLMNOPQRSTUVWXYZ</tspan><tspan
         x="0 14.323107 29.213976 42.866093 57.756962 72.157494 79.64164 94.248627 109.03626 115.10101 121.11413 134.63721 140.70195 163.15439 177.94202 192.91031 207.80118 222.69205 231.51819 244.93803 252.8609 267.62274 280.88776 299.80457 313.30185 326.56683"
         y="30.96888"
         id="tspan18">abcdefghijklmnopqrstuvwxyz</tspan><tspan
         x="0 13.70373 28.594599 43.640312 58.221493 73.215591 88.261307 102.79087 117.8624 132.90811 147.95383 174.14833 189.42632 207.54311 214.8466"
         y="61.937759"
         id="tspan20">1234567890@#&amp;!?</tspan></text><text
       transform="matrix(1,0,0,-1,96.4531,402.2871)"
       style="font-style:italic;font-variant:normal;font-weight:normal;font-stretch:normal;font-size:36.1303px;font-family:Archivo;-inkscape-font-specification:Archivo-Italic;writing-mode:lr-tb;fill:#3f3f3f;fill-opacity:1;fill-rule:nonzero;stroke:none"
       id="text26"><tspan
         x="0 25.002167 36.997429 56.110355 76.813019 85.339767 103.73009 124.68567 132.59821 142.60629 153.6983 174.3287 182.81932 191.34607"
         y="0"
         id="tspan24">Archivo Italic</tspan></text><text
       transform="matrix(1,0,0,-1,96.4531,354.8311)"
       style="font-style:italic;font-variant:normal;font-weight:normal;font-stretch:normal;font-size:25.8074px;font-family:Archivo;-inkscape-font-specification:Archivo-Italic;writing-mode:lr-tb;fill:#3f3f3f;fill-opacity:1;fill-rule:nonzero;stroke:none"
       id="text34"><tspan
         x="0 17.858721 36.13036 55.17622 74.37693 92.106613 108.15881 128.95958 148.2119 155.36055 170.04495 187.38753 201.47838 223.59531 242.84764 263.44193 280.86194 301.45624 320.47629 338.10275 354.00009 373.12338 390.10464 413.69263 430.72549 447.88742"
         y="0"
         id="tspan28">ABCDEFGHIJKLMNOPQRSTUVWXYZ</tspan><tspan
         x="0 14.736026 29.626896 43.279011 58.16988 72.570412 80.054558 94.661545 109.44918 115.53973 121.55286 135.07593 141.14067 163.59311 178.38075 193.34904 208.23991 223.13078 231.95691 245.37675 253.29964 268.06146 281.32648 300.24329 313.74057 327.00555"
         y="30.96888"
         id="tspan30">abcdefghijklmnopqrstuvwxyz</tspan><tspan
         x="0 13.70373 28.594599 43.640312 58.221493 73.215591 88.261307 102.79087 117.8624 132.90811 147.95383 174.14833 189.42632 207.54311 214.8466"
         y="61.937759"
         id="tspan32">1234567890@#&amp;!?</tspan></text><text
       transform="matrix(1,0,0,-1,673.7461,649.3896)"
       style="font-variant:normal;font-weight:bold;font-stretch:normal;font-size:36.1303px;font-family:Archivo;-inkscape-font-specification:Archivo-Bold;writing-mode:lr-tb;fill:#3f3f3f;fill-opacity:1;fill-rule:nonzero;stroke:none"
       id="text38"><tspan
         x="0 26.51964 40.249153 61.313118 83.424866 93.432953 113.55753 136.06671 143.50955 169.95692 192.46611 202.4742"
         y="0"
         id="tspan36">Archivo Bold</tspan></text><text
       transform="matrix(1,0,0,-1,673.7461,601.9336)"
       style="font-variant:normal;font-weight:bold;font-stretch:normal;font-size:25.8074px;font-family:Archivo;-inkscape-font-specification:Archivo-Bold;writing-mode:lr-tb;fill:#3f3f3f;fill-opacity:1;fill-rule:nonzero;stroke:none"
       id="text46"><tspan
         x="0 18.942631 37.833649 57.008545 76.338287 94.222816 110.5331 131.48871 151.20555 159.23166 175.05159 194.02003 209.53027 232.2924 252.00926 272.7326 290.56552 311.28885 330.38632 348.16763 364.96826 384.53027 402.69867 427.31894 445.0228 463.32025"
         y="0"
         id="tspan40">ABCDEFGHIJKLMNOPQRSTUVWXYZ</tspan><tspan
         x="0 15.226366 31.175339 46.221054 62.170025 77.499619 86.145103 102.06827 117.8624 125.01105 132.08228 147.05057 154.19922 177.45168 193.2458 209.32382 225.2728 241.22177 251.28665 265.89365 274.97784 290.74615 305.12088 325.97327 340.99316 355.36789"
         y="30.96888"
         id="tspan42">abcdefghijklmnopqrstuvwxyz</tspan><tspan
         x="0 15.639284 31.278568 46.917854 62.582947 78.196419 93.835709 109.47499 125.11427 140.72775 156.34123 182.43251 198.17502 218.14995 226.17606"
         y="61.937759"
         id="tspan44">1234567890@#&amp;!?</tspan></text><text
       transform="matrix(1,0,0,-1,683.7461,402.2871)"
       style="font-style:italic;font-variant:normal;font-weight:bold;font-stretch:normal;font-size:36.1303px;font-family:Archivo;-inkscape-font-specification:Archivo-BoldItalic;writing-mode:lr-tb;fill:#3f3f3f;fill-opacity:1;fill-rule:nonzero;stroke:none"
       id="text50"><tspan
         x="0 26.51964 40.249153 61.313118 83.424866 93.432953 113.55753 136.06671 143.50955 169.95692 192.46611 202.4742 224.80272 232.24557 243.48209 256.19995 278.38397 288.39206 298.40015"
         y="0"
         id="tspan48">Archivo Bold Italic</tspan></text><text
       transform="matrix(1,0,0,-1,683.7461,354.8311)"
       style="font-style:italic;font-variant:normal;font-weight:bold;font-stretch:normal;font-size:25.8074px;font-family:Archivo;-inkscape-font-specification:Archivo-BoldItalic;writing-mode:lr-tb;fill:#3f3f3f;fill-opacity:1;fill-rule:nonzero;stroke:none"
       id="text58"><tspan
         x="0 18.942631 37.833649 57.008545 76.338287 94.222816 110.5331 131.48871 151.20555 159.23166 175.05159 194.02003 209.53027 232.2924 252.00926 272.7326 290.56552 311.28885 330.38632 348.16763 364.96826 384.53027 402.69867 427.31894 445.0228 463.32025"
         y="0"
         id="tspan52">ABCDEFGHIJKLMNOPQRSTUVWXYZ</tspan><tspan
         x="0 15.845743 31.794716 46.840431 62.789406 78.119003 86.764481 102.68764 118.48177 125.63042 132.70164 147.66994 154.81859 178.07106 193.86519 209.94319 225.89217 241.84114 251.90604 266.51303 275.59723 291.36554 305.74026 326.59265 341.61255 355.98727"
         y="30.96888"
         id="tspan54">abcdefghijklmnopqrstuvwxyz</tspan><tspan
         x="0 15.639284 31.278568 46.917854 62.582947 78.196419 93.835709 109.47499 125.11427 140.72775 156.34123 182.43251 198.17502 218.14995 226.17606"
         y="61.937759"
         id="tspan56">1234567890@#&amp;!?</tspan></text><text
       transform="matrix(1,0,0,-1,1300.7998,649.3896)"
       style="font-variant:normal;font-weight:800;font-stretch:normal;font-size:36.1303px;font-family:'Archivo ExtraBold';-inkscape-font-specification:Archivo-ExtraBold;writing-mode:lr-tb;fill:#3f3f3f;fill-opacity:1;fill-rule:nonzero;stroke:none"
       id="text62"><tspan
         x="0 27.314507 42.019539 64.492584 87.579849 98.34668 119.44677 142.75081 149.94075 175.55713 198.03018 212.30164 227.00667 249.62424 272.85602 296.16006 306.92691"
         y="0"
         id="tspan60">Archivo Extrabold</tspan></text><text
       transform="matrix(1,0,0,-1,1300.7998,601.9336)"
       style="font-variant:normal;font-weight:800;font-stretch:normal;font-size:25.8074px;font-family:'Archivo ExtraBold';-inkscape-font-specification:Archivo-ExtraBold;writing-mode:lr-tb;fill:#3f3f3f;fill-opacity:1;fill-rule:nonzero;stroke:none"
       id="text70"><tspan
         x="0 19.510395 38.99498 58.660221 78.402878 96.700325 113.50095 134.79205 155.36055 164.10925 180.62599 200.75577 217.09184 240.93788 261.50638 282.66846 300.94009 322.10217 341.71579 359.96161 377.63968 398.10495 417.17664 442.18399 460.66208 479.81119"
         y="0"
         id="tspan64">ABCDEFGHIJKLMNOPQRSTUVWXYZ</tspan><tspan
         x="0 16.155432 32.749592 48.801792 65.39595 81.628807 90.971085 107.53944 124.03036 131.72096 139.35995 155.36055 163.05115 187.49077 203.98169 220.62746 237.22162 253.81578 264.57745 279.77802 289.97195 306.46286 321.53439 343.96103 360.01324 375.08475"
         y="30.96888"
         id="tspan66">abcdefghijklmnopqrstuvwxyz</tspan><tspan
         x="0 16.387699 32.775398 49.163097 65.576607 81.964302 98.352005 114.7397 131.1274 147.51509 163.9028 190.09731 206.485 227.80193 236.16351"
         y="61.937759"
         id="tspan68">1234567890@#&amp;!?</tspan></text><text
       transform="matrix(1,0,0,-1,1310.7998,402.2871)"
       style="font-style:italic;font-variant:normal;font-weight:800;font-stretch:normal;font-size:36.1303px;font-family:'Archivo ExtraBold';-inkscape-font-specification:Archivo-ExtraBoldItalic;writing-mode:lr-tb;fill:#3f3f3f;fill-opacity:1;fill-rule:nonzero;stroke:none"
       id="text74"><tspan
         x="0 27.314507 42.019539 64.492584 87.579849 98.34668 119.44677 142.75081 149.94075 175.55713 198.03018 212.30164 227.00667 250.13007 273.36185 296.66589 307.43271 330.66452 337.85443 350.1026 364.37408 387.49747 398.26428 409.03113"
         y="0"
         id="tspan72">Archivo Extrabold Italic</tspan></text><text
       transform="matrix(1,0,0,-1,1310.7998,354.8311)"
       style="font-style:italic;font-variant:normal;font-weight:800;font-stretch:normal;font-size:25.8074px;font-family:'Archivo ExtraBold';-inkscape-font-specification:Archivo-ExtraBoldItalic;writing-mode:lr-tb;fill:#3f3f3f;fill-opacity:1;fill-rule:nonzero;stroke:none"
       id="text82"><tspan
         x="0 19.510395 38.99498 58.660221 78.402878 96.700325 113.50095 134.79205 155.36055 164.10925 180.62599 200.75577 217.09184 240.93788 261.50638 282.66846 300.94009 322.10217 341.71579 359.96161 377.63968 398.10495 417.17664 442.18399 460.66208 479.81119"
         y="0"
         id="tspan76">ABCDEFGHIJKLMNOPQRSTUVWXYZ</tspan><tspan
         x="0 16.516735 33.110893 49.163097 65.757256 81.990112 91.33239 107.90074 124.39167 132.08228 139.72127 155.72185 163.41246 187.85207 204.34299 220.98877 237.58293 254.17708 264.93878 280.13931 290.33325 306.82419 321.89569 344.32233 360.37454 375.44604"
         y="30.96888"
         id="tspan78">abcdefghijklmnopqrstuvwxyz</tspan><tspan
         x="0 16.387699 32.775398 49.163097 65.576607 81.964302 98.352005 114.7397 131.1274 147.51509 163.9028 190.09731 206.485 227.80193 236.16351"
         y="61.937759"
         id="tspan80">1234567890@#&amp;!?</tspan></text><g
       id="g84"
       transform="translate(1703.2512,983.1905)"><path
         d="M 0,0 H 1.026 L 2.694,-2.593 4.362,0 H 5.389 V -5.483 H 4.425 v 3.932 L 2.694,-4.136 H 2.663 l -1.716,2.57 v -3.917 l -0.947,0 z"
         style="fill:#3f3f3f;fill-opacity:1;fill-rule:nonzero;stroke:none"
         id="path86" /></g><g
       id="g88"
       transform="translate(1713.6877,979.8854)"><path
         d="M 0,0 -0.948,2.193 -1.887,0 Z m -1.378,3.344 h 0.893 L 1.927,-2.178 H 0.909 L 0.353,-0.854 H -2.24 l -0.564,-1.324 h -0.987 z"
         style="fill:#3f3f3f;fill-opacity:1;fill-rule:nonzero;stroke:none"
         id="path90" /></g><g
       id="g92"><g
         id="g94"
         clip-path="url(#clipPath98)"><g
           id="g100"
           transform="translate(1719.2451,980.4724)"><path
             d="m 0,0 c 0.689,0 1.128,0.353 1.128,0.917 v 0.015 c 0,0.596 -0.416,0.909 -1.136,0.909 H -1.41 V 0 Z M -2.373,2.718 H 0.07 C 0.759,2.718 1.3,2.515 1.653,2.17 1.942,1.864 2.107,1.465 2.107,0.987 V 0.972 C 2.107,0.071 1.566,-0.47 0.806,-0.689 L 2.287,-2.765 H 1.144 l -1.348,1.912 H -1.41 v -1.912 h -0.963 z"
             style="fill:#3f3f3f;fill-opacity:1;fill-rule:nonzero;stroke:none"
             id="path102" /></g><g
           id="g104"
           transform="translate(1722.851,983.1905)"><path
             d="M 0,0 H 0.964 V -2.757 L 3.564,0 H 4.763 L 2.475,-2.358 4.864,-5.483 H 3.69 L 1.817,-3.016 0.964,-3.893 v -1.59 l -0.964,0 z"
             style="fill:#3f3f3f;fill-opacity:1;fill-rule:nonzero;stroke:none"
             id="path106" /></g><g
           id="g108"
           transform="translate(1728.8542,983.1905)"><path
             d="M 0,0 H 4.065 V -0.862 H 0.963 v -1.425 h 2.75 V -3.156 H 0.963 V -4.621 H 4.104 V -5.483 H 0 Z"
             style="fill:#3f3f3f;fill-opacity:1;fill-rule:nonzero;stroke:none"
             id="path110" /></g><g
           id="g112"
           transform="translate(1735.7502,982.2974)"><path
             d="M 0,0 H -1.747 V 0.893 H 2.71 V 0 H 0.963 V -4.59 H 0 Z"
             style="fill:#3f3f3f;fill-opacity:1;fill-rule:nonzero;stroke:none"
             id="path114" /></g><path
           d="m 1739.834,983.19 h 0.963 v -5.483 h -0.963 z"
           style="fill:#3f3f3f;fill-opacity:1;fill-rule:nonzero;stroke:none"
           id="path116" /><g
           id="g118"
           transform="translate(1742.5767,983.1905)"><path
             d="M 0,0 H 0.893 L 3.83,-3.791 V 0 H 4.778 V -5.483 H 3.971 L 0.948,-1.582 V -5.483 H 0 Z"
             style="fill:#3f3f3f;fill-opacity:1;fill-rule:nonzero;stroke:none"
             id="path120" /></g><g
           id="g122"
           transform="translate(1748.8386,980.4337)"><path
             d="m 0,0 v 0.015 c 0,1.536 1.167,2.836 2.828,2.836 0.948,0 1.543,-0.267 2.106,-0.744 L 4.324,1.378 C 3.901,1.739 3.478,1.958 2.788,1.958 1.786,1.958 1.01,1.081 1.01,0.031 V 0.015 c 0,-1.128 0.744,-1.958 1.865,-1.958 0.524,0 0.986,0.165 1.323,0.415 V -0.51 H 2.796 V 0.337 H 5.13 V -1.966 C 4.582,-2.429 3.815,-2.82 2.843,-2.82 1.128,-2.82 0,-1.598 0,0"
             style="fill:#3f3f3f;fill-opacity:1;fill-rule:nonzero;stroke:none"
             id="path124" /></g><path
           d="m 1758.259,983.19 h 0.963 v -5.483 h -0.963 z"
           style="fill:#3f3f3f;fill-opacity:1;fill-rule:nonzero;stroke:none"
           id="path126" /><g
           id="g128"
           transform="translate(1761.0012,983.1905)"><path
             d="M 0,0 H 0.893 L 3.83,-3.791 V 0 H 4.778 V -5.483 H 3.971 L 0.948,-1.582 V -5.483 H 0 Z"
             style="fill:#3f3f3f;fill-opacity:1;fill-rule:nonzero;stroke:none"
             id="path130" /></g><g
           id="g132"
           transform="translate(1768.8451,982.2974)"><path
             d="M 0,0 H -1.747 V 0.893 H 2.71 V 0 H 0.964 V -4.59 H 0 Z"
             style="fill:#3f3f3f;fill-opacity:1;fill-rule:nonzero;stroke:none"
             id="path134" /></g><g
           id="g136"
           transform="translate(1772.8743,983.1905)"><path
             d="M 0,0 H 4.065 V -0.862 H 0.963 v -1.425 h 2.75 V -3.156 H 0.963 V -4.621 H 4.104 V -5.483 H 0 Z"
             style="fill:#3f3f3f;fill-opacity:1;fill-rule:nonzero;stroke:none"
             id="path138" /></g><g
           id="g140"
           transform="translate(1778.1956,980.4337)"><path
             d="m 0,0 v 0.015 c 0,1.536 1.167,2.836 2.828,2.836 0.948,0 1.543,-0.267 2.106,-0.744 L 4.324,1.378 C 3.901,1.739 3.478,1.958 2.788,1.958 1.786,1.958 1.01,1.081 1.01,0.031 V 0.015 c 0,-1.128 0.745,-1.958 1.865,-1.958 0.525,0 0.987,0.165 1.323,0.415 V -0.51 H 2.797 V 0.337 H 5.131 V -1.966 C 4.582,-2.429 3.815,-2.82 2.843,-2.82 1.128,-2.82 0,-1.598 0,0"
             style="fill:#3f3f3f;fill-opacity:1;fill-rule:nonzero;stroke:none"
             id="path142" /></g><g
           id="g144"
           transform="translate(1787.2698,980.4724)"><path
             d="m 0,0 c 0.689,0 1.127,0.353 1.127,0.917 v 0.015 c 0,0.596 -0.415,0.909 -1.135,0.909 H -1.411 V 0 Z M -2.373,2.718 H 0.07 C 0.759,2.718 1.3,2.515 1.652,2.17 1.942,1.864 2.107,1.465 2.107,0.987 V 0.972 C 2.107,0.071 1.566,-0.47 0.806,-0.689 L 2.287,-2.765 H 1.143 l -1.347,1.912 h -1.207 v -1.912 h -0.962 z"
             style="fill:#3f3f3f;fill-opacity:1;fill-rule:nonzero;stroke:none"
             id="path146" /></g><g
           id="g148"
           transform="translate(1794.1967,979.8854)"><path
             d="M 0,0 -0.948,2.193 -1.887,0 Z m -1.378,3.344 h 0.893 L 1.927,-2.178 H 0.909 L 0.353,-0.854 H -2.24 l -0.564,-1.324 h -0.987 z"
             style="fill:#3f3f3f;fill-opacity:1;fill-rule:nonzero;stroke:none"
             id="path150" /></g><g
           id="g152"
           transform="translate(1798.3435,982.3134)"><path
             d="m 0,0 v -3.728 h 1.081 c 1.152,0 1.904,0.775 1.904,1.848 v 0.016 C 2.985,-0.791 2.233,0 1.081,0 Z m -0.963,0.877 h 2.044 c 1.723,0 2.914,-1.183 2.914,-2.726 v -0.015 c 0,-1.543 -1.191,-2.742 -2.914,-2.742 h -2.044 z"
             style="fill:#3f3f3f;fill-opacity:1;fill-rule:nonzero;stroke:none"
             id="path154" /></g><g
           id="g156"
           transform="translate(1808.3031,980.4337)"><path
             d="m 0,0 v 0.015 c 0,1.066 -0.768,1.943 -1.865,1.943 -1.089,0 -1.848,-0.861 -1.848,-1.927 V 0.015 c 0,-1.065 0.768,-1.942 1.864,-1.942 C -0.76,-1.927 0,-1.066 0,0 m -4.723,0 v 0.015 c 0,1.536 1.19,2.836 2.874,2.836 1.684,0 2.859,-1.277 2.859,-2.82 V 0.015 c 0,-1.535 -1.19,-2.835 -2.875,-2.835 -1.683,0 -2.858,1.277 -2.858,2.82"
             style="fill:#3f3f3f;fill-opacity:1;fill-rule:nonzero;stroke:none"
             id="path158" /></g><g
           id="g160"
           transform="translate(1754.2791,1002.0673)"><path
             d="m 0,0 c -2.708,0 -5.441,0.945 -7.587,2.861 l 2.325,2.785 c 1.609,-1.329 3.295,-2.172 5.339,-2.172 1.609,0 2.58,0.639 2.58,1.686 v 0.051 c 0,0.997 -0.613,1.508 -3.602,2.274 -3.602,0.92 -5.927,1.916 -5.927,5.467 v 0.051 c 0,3.245 2.606,5.39 6.259,5.39 2.606,0 4.828,-0.817 6.642,-2.273 L 3.985,13.156 c -1.583,1.099 -3.142,1.763 -4.649,1.763 -1.507,0 -2.299,-0.69 -2.299,-1.558 V 13.31 c 0,-1.176 0.766,-1.559 3.858,-2.351 C 4.522,10.014 6.566,8.711 6.566,5.594 V 5.543 C 6.566,1.993 3.858,0 0,0 m 14.394,-6.936 c 4.111,3.144 10.268,7.315 16.354,7.315 2.004,0 3.916,-0.407 5.742,-1.064 -0.153,0.136 -0.31,0.277 -0.469,0.42 -0.047,0.042 -0.095,0.085 -0.142,0.128 -0.112,0.101 -0.225,0.204 -0.34,0.309 -0.06,0.055 -0.121,0.111 -0.182,0.167 -0.108,0.099 -0.219,0.2 -0.33,0.303 -0.063,0.058 -0.126,0.116 -0.191,0.176 -0.133,0.123 -0.268,0.25 -0.406,0.378 -0.076,0.072 -0.154,0.144 -0.232,0.217 -0.138,0.13 -0.279,0.262 -0.422,0.398 -0.077,0.073 -0.157,0.148 -0.235,0.223 -0.114,0.107 -0.229,0.216 -0.346,0.328 -0.086,0.082 -0.174,0.165 -0.262,0.249 -0.121,0.116 -0.244,0.234 -0.368,0.353 -0.084,0.08 -0.166,0.159 -0.251,0.241 -0.207,0.199 -0.418,0.403 -0.636,0.613 -2.202,2.129 -4.353,4.753 -6.588,7.561 -0.366,0.46 -0.734,0.923 -1.105,1.391 l -0.048,0.061 c -0.366,0.463 -0.736,0.929 -1.107,1.396 -0.023,0.028 -0.046,0.057 -0.069,0.085 -1.2,1.507 -2.426,3.02 -3.662,4.447 -0.002,0.002 -0.003,0.005 -0.005,0.007 -3.526,4.072 -7.198,7.523 -11.165,8.84 -0.231,0.072 -0.461,0.144 -0.696,0.208 -0.01,0.002 -0.061,0.018 -0.071,0.021 l -0.04,0.01 c -0.168,0.045 -0.345,0.087 -0.523,0.129 -0.116,0.027 -0.236,0.054 -0.355,0.08 -0.19,0.041 -0.381,0.082 -0.578,0.119 l -0.145,0.03 C 5.331,28.241 5.142,28.28 4.95,28.315 l -0.013,0.002 -0.001,0.001 c -0.92,0.131 -1.873,0.2 -2.806,0.2 L 2.061,28.516 c -0.011,0 -0.068,0.004 -0.066,0.002 -4.348,0 -8.471,-1.377 -11.931,-3.982 l -0.257,-0.186 c -4.815,-3.463 -10.273,-7.388 -16.681,-7.388 -3.357,0 -7.151,1.276 -11.322,3.8 0.01,-0.011 0.02,-0.023 0.03,-0.034 0.467,-0.523 0.93,-1.057 1.391,-1.6 0.035,-0.041 0.07,-0.082 0.105,-0.123 0.455,-0.538 0.908,-1.084 1.358,-1.635 0.035,-0.043 0.07,-0.086 0.105,-0.129 0.453,-0.555 0.904,-1.115 1.352,-1.677 0.029,-0.036 0.058,-0.072 0.086,-0.108 0.455,-0.57 0.909,-1.142 1.36,-1.712 2.606,-3.288 5.066,-6.394 7.554,-8.799 1.544,-1.493 2.813,-2.692 3.932,-3.71 0.42,-0.382 0.819,-0.738 1.202,-1.074 2.686,-2.356 4.653,-3.753 8.135,-6.225 l 0.379,-0.27 c 0.405,-0.275 0.823,-0.559 1.237,-0.836 3.495,-2.63 7.619,-4.007 11.961,-4.007 0.01,0 0.068,0.002 0.083,0.002 h 0.001 l 0.045,-0.785 0.012,0.783 c 4.496,0 8.736,1.467 12.262,4.241"
             style="fill:#3f3f3f;fill-opacity:1;fill-rule:nonzero;stroke:none"
             id="path162" /></g><g
           id="g164"
           transform="translate(1704.4431,1013.129)"><path
             d="M 0,0 V 7.076 H 3.934 V -10.806 H 0 v 7.178 h -7.255 v -7.178 H -11.19 V 7.076 h 3.935 l 0,-7.076 z m -25.504,-2.391 c 0,-10.944 8.904,-19.848 19.848,-19.848 4.497,0 8.738,1.467 12.264,4.241 4.111,3.144 10.269,7.315 16.354,7.315 2.004,0 3.915,-0.407 5.742,-1.064 -0.154,0.136 -0.31,0.277 -0.469,0.42 -0.047,0.042 -0.095,0.086 -0.142,0.128 -0.112,0.102 -0.225,0.204 -0.34,0.309 -0.06,0.055 -0.122,0.111 -0.183,0.167 -0.108,0.099 -0.218,0.2 -0.329,0.303 -0.064,0.059 -0.126,0.117 -0.191,0.176 -0.133,0.124 -0.269,0.25 -0.406,0.379 -0.077,0.071 -0.154,0.144 -0.232,0.217 -0.139,0.13 -0.279,0.262 -0.423,0.397 -0.077,0.073 -0.156,0.149 -0.235,0.223 -0.113,0.108 -0.228,0.217 -0.345,0.328 -0.087,0.082 -0.174,0.166 -0.262,0.25 -0.121,0.115 -0.244,0.233 -0.369,0.353 -0.083,0.079 -0.165,0.158 -0.25,0.24 -0.208,0.199 -0.419,0.403 -0.637,0.614 -2.562,2.477 -5.054,5.622 -7.692,8.952 -5.25,6.626 -10.678,13.477 -16.824,15.065 -0.678,0.175 -1.406,0.332 -2.225,0.482 -0.92,0.132 -1.874,0.201 -2.806,0.201 -10.944,0 -19.848,-8.904 -19.848,-19.848"
             style="fill:#3f3f3f;fill-opacity:1;fill-rule:nonzero;stroke:none"
             id="path166" /></g><g
           id="g168"
           transform="translate(1803.7936,1020.2053)"><path
             d="M 0,0 H 4.241 L 8.941,-7.562 13.642,0 h 4.241 V -17.883 H 13.974 V -6.208 L 8.941,-13.846 H 8.839 L 3.858,-6.285 V -17.883 H 0 Z m 10.099,-29.315 c 10.944,0 19.847,8.904 19.847,19.848 0,10.944 -8.903,19.847 -19.847,19.847 -4.343,0 -8.467,-1.377 -11.927,-3.982 L -2.085,6.212 C -6.9,2.749 -12.358,-1.176 -18.766,-1.176 c -3.251,0 -6.911,1.2 -10.927,3.567 0.173,-0.261 0.343,-0.525 0.506,-0.795 0.092,-0.106 0.183,-0.217 0.275,-0.324 0.228,-0.267 0.456,-0.535 0.683,-0.806 0.235,-0.281 0.47,-0.563 0.704,-0.847 0.213,-0.26 0.427,-0.519 0.64,-0.781 0.264,-0.325 0.525,-0.65 0.786,-0.976 0.18,-0.224 0.361,-0.447 0.54,-0.672 0.422,-0.53 0.842,-1.058 1.257,-1.582 0.199,-0.252 0.397,-0.501 0.595,-0.75 2.386,-3.008 4.662,-5.83 6.959,-8.051 6.177,-5.972 7.964,-7.242 13.27,-11.009 l 0.379,-0.27 c 0.404,-0.275 0.823,-0.559 1.237,-0.835 3.495,-2.631 7.619,-4.008 11.961,-4.008"
             style="fill:#3f3f3f;fill-opacity:1;fill-rule:nonzero;stroke:none"
             id="path170" /></g></g></g><text
       transform="matrix(1,0,0,-1,109.5474,998.7568)"
       style="font-variant:normal;font-weight:normal;font-stretch:normal;font-size:30.7748px;font-family:Archivo;-inkscape-font-specification:Archivo-Regular;writing-mode:lr-tb;fill:#3f3f3f;fill-opacity:1;fill-rule:nonzero;stroke:none"
       id="text174"><tspan
         x="0 24.804489 39.176319 65.796524 96.202026 126.85373 155.38196 182.52534 207.51448 221.88631"
         y="0"
         id="tspan172">TIPOGRAFIA</tspan></text><g
       id="g176"><g
         id="g178"
         clip-path="url(#clipPath182)"><g
           id="g184"><g
             id="g186"
             clip-path="url(#clipPath190)"><g
               id="g192"
               transform="translate(1968.5699,452.6665)"><path
                 d="M 0,0 -1.287,1.049 C -1.597,1.303 -1.644,1.76 -1.39,2.071 l 0.524,0.644 c 5.353,6.561 4.868,16.031 -1.128,22.028 -6.388,6.387 -16.806,6.411 -23.222,0.054 l -1.091,-1.089 -0.004,0.004 -0.006,-0.005 -1.093,1.09 c -6.417,6.358 -16.834,6.333 -23.221,-0.054 -5.97,-5.969 -6.475,-15.415 -1.176,-21.97 l 0.522,-0.646 c 0.252,-0.312 0.204,-0.769 -0.108,-1.021 l -1.292,-1.044 c -0.311,-0.252 -0.769,-0.204 -1.021,0.108 l -0.521,0.646 c -6.303,7.797 -5.703,19.03 1.395,26.128 7.226,7.227 18.791,7.603 26.469,1.112 l 0.049,0.048 0.049,-0.05 c 7.679,6.493 19.245,6.117 26.472,-1.11 C 7.337,19.813 7.913,8.551 1.547,0.747 L 1.022,0.104 C 0.768,-0.207 0.311,-0.254 0,0"
                 style="fill:#a72740;fill-opacity:1;fill-rule:nonzero;stroke:none"
                 id="path194" /></g><g
               id="g196"
               transform="translate(1942.2572,427.4762)"><path
                 d="m 0,0 c -1.276,0 -2.552,0.486 -3.524,1.457 l -16.497,16.497 c -0.283,0.283 -0.283,0.743 0,1.027 l 1.175,1.174 c 0.283,0.283 0.743,0.283 1.027,0 L -1.323,3.658 c 0.729,-0.729 1.917,-0.729 2.646,0 l 16.402,16.403 c 0.284,0.283 0.744,0.283 1.027,0 l 1.175,-1.174 c 0.283,-0.284 0.283,-0.744 0,-1.027 L 3.524,1.457 C 2.553,0.486 1.276,0 0,0"
                 style="fill:#a72740;fill-opacity:1;fill-rule:nonzero;stroke:none"
                 id="path198" /></g><g
               id="g200"
               transform="translate(1971.8881,442.0217)"><path
                 d="M 0,0 C -0.284,-0.284 -0.743,-0.284 -1.027,0 L -29.02,27.994 c -0.337,0.335 -0.884,0.336 -1.221,0 L -58.153,0.081 c -0.284,-0.284 -0.743,-0.284 -1.027,0 l -1.174,1.174 c -0.284,0.283 -0.284,0.743 0,1.027 l 27.912,27.913 c 1.55,1.55 4.072,1.55 5.623,0 L 1.174,2.201 c 0.284,-0.283 0.284,-0.743 0,-1.027 z"
                 style="fill:#ffffff;fill-opacity:1;fill-rule:nonzero;stroke:none"
                 id="path202" /></g><g
               id="g204"
               transform="translate(1917.7936,489.2711)"><path
                 d="m 0,0 c 0,-1.276 -0.486,-2.552 -1.457,-3.524 l -16.496,-16.497 c -0.284,-0.283 -0.744,-0.283 -1.028,0 l -1.174,1.175 c -0.283,0.283 -0.283,0.743 0,1.027 l 16.497,16.496 c 0.729,0.729 0.729,1.917 0,2.646 l -16.403,16.402 c -0.283,0.284 -0.283,0.744 0,1.027 l 1.174,1.175 c 0.284,0.283 0.744,0.283 1.027,0 L -1.457,3.524 C -0.486,2.553 0,1.276 0,0"
                 style="fill:#a72740;fill-opacity:1;fill-rule:nonzero;stroke:none"
                 id="path206" /></g><g
               id="g208"
               transform="translate(1893.1014,497.1099)"><path
                 d="M 0,0 V -5.893 H -5.894 V -9.784 H 0 v -5.894 h 3.891 v 5.894 h 5.893 v 3.891 H 3.891 l 0,5.893 z"
                 style="fill:#a72740;fill-opacity:1;fill-rule:nonzero;stroke:none"
                 id="path210" /></g><g
               id="g212"
               transform="translate(1903.248,518.9019)"><path
                 d="M 0,0 C 0.284,-0.284 0.284,-0.743 0,-1.027 L -27.994,-29.02 c -0.335,-0.337 -0.336,-0.884 0,-1.221 l 27.913,-27.912 c 0.284,-0.283 0.284,-0.743 0,-1.027 l -1.174,-1.174 c -0.283,-0.284 -0.743,-0.284 -1.027,0 l -27.913,27.912 c -1.55,1.55 -1.55,4.072 0,5.623 L -2.201,1.174 c 0.283,0.284 0.743,0.284 1.027,0 z"
                 style="fill:#ffffff;fill-opacity:1;fill-rule:nonzero;stroke:none"
                 id="path214" /></g><g
               id="g216"
               transform="translate(1966.2787,290.1427)"><path
                 d="M 0,0 -1.287,1.049 C -1.597,1.303 -1.644,1.76 -1.39,2.071 l 0.524,0.644 c 5.354,6.561 4.868,16.031 -1.128,22.028 -6.388,6.387 -16.805,6.411 -23.222,0.054 l -1.091,-1.089 -0.004,0.004 -0.006,-0.005 -1.093,1.09 c -6.417,6.358 -16.834,6.333 -23.221,-0.054 -5.97,-5.969 -6.475,-15.415 -1.176,-21.97 l 0.522,-0.646 c 0.252,-0.312 0.204,-0.769 -0.108,-1.021 l -1.291,-1.044 c -0.312,-0.252 -0.77,-0.204 -1.022,0.108 l -0.521,0.646 c -6.303,7.797 -5.703,19.03 1.395,26.128 7.226,7.227 18.791,7.603 26.47,1.112 l 0.048,0.048 0.05,-0.05 c 7.678,6.493 19.244,6.117 26.471,-1.11 C 7.337,19.813 7.913,8.551 1.547,0.747 L 1.022,0.104 C 0.768,-0.207 0.311,-0.254 0,0"
                 style="fill:#a72740;fill-opacity:1;fill-rule:nonzero;stroke:none"
                 id="path218" /></g><g
               id="g220"
               transform="translate(1939.9661,264.9524)"><path
                 d="m 0,0 c -1.276,0 -2.552,0.486 -3.524,1.457 l -16.497,16.497 c -0.283,0.283 -0.283,0.743 0,1.027 l 1.175,1.174 c 0.283,0.283 0.743,0.283 1.027,0 L -1.323,3.658 c 0.729,-0.729 1.917,-0.729 2.646,0 l 16.402,16.403 c 0.284,0.283 0.744,0.283 1.027,0 l 1.175,-1.174 c 0.283,-0.284 0.283,-0.744 0,-1.027 L 3.524,1.457 C 2.553,0.486 1.276,0 0,0"
                 style="fill:#a72740;fill-opacity:1;fill-rule:nonzero;stroke:none"
                 id="path222" /></g><g
               id="g224"
               transform="translate(1947.8047,289.6446)"><path
                 d="M 0,0 H -5.893 V 5.894 H -9.784 V 0 h -5.894 v -3.891 h 5.894 v -5.893 h 3.891 v 5.893 H 0 Z"
                 style="fill:#a72740;fill-opacity:1;fill-rule:nonzero;stroke:none"
                 id="path226" /></g><g
               id="g228"
               transform="translate(1969.5968,279.4979)"><path
                 d="M 0,0 C -0.284,-0.284 -0.743,-0.284 -1.027,0 L -29.02,27.994 c -0.337,0.335 -0.884,0.336 -1.221,0 L -58.153,0.081 c -0.284,-0.284 -0.743,-0.284 -1.027,0 l -1.174,1.174 c -0.284,0.283 -0.284,0.743 0,1.027 l 27.912,27.913 c 1.55,1.55 4.072,1.55 5.623,0 L 1.174,2.201 c 0.284,-0.283 0.284,-0.743 0,-1.027 z"
                 style="fill:#ffffff;fill-opacity:1;fill-rule:nonzero;stroke:none"
                 id="path230" /></g><g
               id="g232"
               transform="translate(1913.6971,365.9006)"><path
                 d="M 0,0 1.287,-1.049 C 1.597,-1.303 1.644,-1.76 1.39,-2.071 L 0.866,-2.715 c -5.354,-6.561 -4.868,-16.031 1.128,-22.028 6.388,-6.387 16.805,-6.411 23.222,-0.054 l 1.091,1.089 0.004,-0.004 0.006,0.005 1.093,-1.09 c 6.417,-6.358 16.834,-6.333 23.221,0.054 5.97,5.969 6.475,15.415 1.176,21.97 l -0.522,0.646 c -0.252,0.312 -0.204,0.769 0.108,1.021 l 1.292,1.044 c 0.311,0.252 0.769,0.204 1.021,-0.108 l 0.521,-0.646 c 6.303,-7.797 5.703,-19.03 -1.395,-26.128 -7.226,-7.227 -18.791,-7.603 -26.47,-1.112 l -0.048,-0.048 -0.05,0.05 c -7.678,-6.493 -19.244,-6.117 -26.471,1.11 -7.13,7.131 -7.706,18.393 -1.34,26.197 l 0.525,0.643 C -0.768,0.207 -0.311,0.253 0,0"
                 style="fill:#a72740;fill-opacity:1;fill-rule:nonzero;stroke:none"
                 id="path234" /></g><g
               id="g236"
               transform="translate(1940.0099,391.0909)"><path
                 d="m 0,0 c 1.276,0 2.552,-0.486 3.524,-1.457 l 16.497,-16.497 c 0.283,-0.283 0.283,-0.743 0,-1.027 l -1.175,-1.174 c -0.283,-0.283 -0.743,-0.283 -1.027,0 L 1.323,-3.658 c -0.729,0.729 -1.917,0.729 -2.646,0 l -16.403,-16.403 c -0.283,-0.283 -0.743,-0.283 -1.027,0 l -1.174,1.174 c -0.283,0.284 -0.283,0.744 0,1.027 L -3.524,-1.457 C -2.553,-0.486 -1.276,0 0,0"
                 style="fill:#a72740;fill-opacity:1;fill-rule:nonzero;stroke:none"
                 id="path238" /></g><g
               id="g240"
               transform="translate(1932.1711,366.3987)"><path
                 d="M 0,0 H 5.893 V -5.894 H 9.784 V 0 h 5.894 V 3.891 H 9.784 V 9.784 H 5.893 V 3.891 L 0,3.891 Z"
                 style="fill:#a72740;fill-opacity:1;fill-rule:nonzero;stroke:none"
                 id="path242" /></g><g
               id="g244"
               transform="translate(1910.379,376.5453)"><path
                 d="M 0,0 C 0.284,0.284 0.743,0.284 1.027,0 L 29.02,-27.994 c 0.337,-0.335 0.884,-0.336 1.221,0 l 27.912,27.913 c 0.284,0.284 0.743,0.284 1.027,0 l 1.174,-1.174 c 0.284,-0.283 0.284,-0.743 0,-1.027 L 32.442,-30.195 c -1.55,-1.55 -4.072,-1.55 -5.623,0 L -1.174,-2.201 c -0.284,0.283 -0.284,0.743 0,1.027 z"
                 style="fill:#ffffff;fill-opacity:1;fill-rule:nonzero;stroke:none"
                 id="path246" /></g><g
               id="g248"
               transform="translate(1915.5023,326.7473)"><path
                 d="m 0,0 c 0,-1.276 -0.486,-2.552 -1.457,-3.524 l -16.496,-16.497 c -0.284,-0.283 -0.744,-0.283 -1.027,0 l -1.175,1.175 c -0.283,0.283 -0.283,0.743 0,1.027 l 16.497,16.496 c 0.729,0.729 0.729,1.917 0,2.646 l -16.403,16.402 c -0.283,0.284 -0.283,0.744 0,1.027 l 1.174,1.175 c 0.284,0.283 0.744,0.283 1.027,0 L -1.457,3.524 C -0.486,2.553 0,1.276 0,0"
                 style="fill:#a72740;fill-opacity:1;fill-rule:nonzero;stroke:none"
                 id="path250" /></g><g
               id="g252"
               transform="translate(1890.8102,334.586)"><path
                 d="M 0,0 V -5.893 H -5.894 V -9.784 H 0 v -5.894 h 3.891 v 5.894 h 5.893 v 3.891 H 3.891 l 0,5.893 z"
                 style="fill:#a72740;fill-opacity:1;fill-rule:nonzero;stroke:none"
                 id="path254" /></g><g
               id="g256"
               transform="translate(1900.9569,356.3781)"><path
                 d="M 0,0 C 0.284,-0.284 0.284,-0.743 0,-1.027 L -27.994,-29.02 c -0.335,-0.337 -0.336,-0.884 0,-1.221 l 27.913,-27.912 c 0.284,-0.283 0.284,-0.743 0,-1.027 l -1.174,-1.174 c -0.283,-0.284 -0.743,-0.284 -1.027,0 l -27.913,27.912 c -1.55,1.55 -1.55,4.072 0,5.623 L -2.201,1.174 c 0.283,0.284 0.743,0.284 1.027,0 z"
                 style="fill:#ffffff;fill-opacity:1;fill-rule:nonzero;stroke:none"
                 id="path258" /></g><g
               id="g260"
               transform="translate(1851.0413,328.0216)"><path
                 d="M 0,0 C 0,1.782 1.444,3.226 3.226,3.226 5.007,3.226 6.452,1.782 6.452,0 6.452,-1.782 5.007,-3.226 3.226,-3.226 1.444,-3.226 0,-1.782 0,0"
                 style="fill:#ffffff;fill-opacity:1;fill-rule:nonzero;stroke:none"
                 id="path262" /></g><g
               id="g264"
               transform="translate(1968.9469,116.1519)"><path
                 d="M 0,0 -1.287,1.049 C -1.597,1.303 -1.644,1.76 -1.39,2.071 l 0.524,0.644 c 5.353,6.561 4.868,16.031 -1.128,22.028 -6.388,6.387 -16.806,6.411 -23.222,0.054 l -1.091,-1.089 -0.004,0.004 -0.006,-0.005 -1.093,1.09 c -6.417,6.358 -16.834,6.333 -23.221,-0.054 -5.97,-5.969 -6.475,-15.415 -1.176,-21.97 l 0.522,-0.646 c 0.252,-0.312 0.204,-0.769 -0.108,-1.021 l -1.292,-1.044 c -0.312,-0.252 -0.769,-0.204 -1.021,0.108 l -0.521,0.646 c -6.303,7.797 -5.703,19.03 1.395,26.128 7.226,7.227 18.791,7.603 26.469,1.112 l 0.049,0.048 0.049,-0.05 c 7.679,6.493 19.245,6.117 26.472,-1.11 C 7.337,19.813 7.913,8.551 1.546,0.747 L 1.022,0.104 C 0.768,-0.207 0.311,-0.254 0,0"
                 style="fill:#a72740;fill-opacity:1;fill-rule:nonzero;stroke:none"
                 id="path266" /></g><g
               id="g268"
               transform="translate(1942.6342,90.9616)"><path
                 d="m 0,0 c -1.276,0 -2.552,0.486 -3.524,1.457 l -16.497,16.497 c -0.283,0.283 -0.283,0.743 0,1.027 l 1.175,1.174 c 0.283,0.283 0.743,0.283 1.027,0 L -1.323,3.658 c 0.729,-0.729 1.917,-0.729 2.646,0 l 16.402,16.403 c 0.284,0.283 0.744,0.283 1.027,0 l 1.175,-1.174 c 0.283,-0.284 0.283,-0.744 0,-1.027 L 3.524,1.457 C 2.553,0.486 1.276,0 0,0"
                 style="fill:#a72740;fill-opacity:1;fill-rule:nonzero;stroke:none"
                 id="path270" /></g><g
               id="g272"
               transform="translate(1972.2649,105.5071)"><path
                 d="M 0,0 C -0.284,-0.284 -0.743,-0.284 -1.027,0 L -29.02,27.994 c -0.337,0.335 -0.884,0.336 -1.221,0 L -58.153,0.081 c -0.283,-0.284 -0.743,-0.284 -1.027,0 l -1.174,1.174 c -0.284,0.283 -0.284,0.743 0,1.027 l 27.912,27.913 c 1.55,1.55 4.072,1.55 5.623,0 L 1.174,2.201 c 0.284,-0.283 0.284,-0.743 0,-1.027 z"
                 style="fill:#ffffff;fill-opacity:1;fill-rule:nonzero;stroke:none"
                 id="path274" /></g><g
               id="g276"
               transform="translate(1916.3652,191.9097)"><path
                 d="M 0,0 1.287,-1.049 C 1.597,-1.303 1.644,-1.76 1.39,-2.071 L 0.866,-2.715 c -5.353,-6.561 -4.868,-16.031 1.128,-22.028 6.388,-6.387 16.806,-6.411 23.222,-0.054 l 1.091,1.089 0.004,-0.004 0.006,0.005 1.093,-1.09 c 6.417,-6.358 16.834,-6.333 23.221,0.054 5.97,5.969 6.475,15.415 1.176,21.97 l -0.522,0.646 c -0.252,0.312 -0.204,0.769 0.108,1.021 l 1.292,1.044 c 0.311,0.252 0.769,0.204 1.021,-0.108 l 0.521,-0.646 c 6.303,-7.797 5.703,-19.03 -1.395,-26.128 -7.226,-7.227 -18.791,-7.603 -26.469,-1.112 l -0.049,-0.048 -0.05,0.05 c -7.678,-6.493 -19.244,-6.117 -26.471,1.11 -7.13,7.131 -7.706,18.393 -1.34,26.197 l 0.525,0.643 C -0.768,0.207 -0.311,0.254 0,0"
                 style="fill:#a72740;fill-opacity:1;fill-rule:nonzero;stroke:none"
                 id="path278" /></g><g
               id="g280"
               transform="translate(1942.678,217.1)"><path
                 d="m 0,0 c 1.276,0 2.552,-0.486 3.524,-1.457 l 16.497,-16.497 c 0.283,-0.283 0.283,-0.743 0,-1.027 l -1.175,-1.174 c -0.283,-0.283 -0.743,-0.283 -1.027,0 L 1.323,-3.658 c -0.729,0.729 -1.917,0.729 -2.646,0 l -16.402,-16.403 c -0.284,-0.283 -0.744,-0.283 -1.027,0 l -1.175,1.174 c -0.283,0.284 -0.283,0.744 0,1.027 L -3.524,-1.457 C -2.553,-0.486 -1.276,0 0,0"
                 style="fill:#a72740;fill-opacity:1;fill-rule:nonzero;stroke:none"
                 id="path282" /></g><g
               id="g284"
               transform="translate(1913.0471,202.5545)"><path
                 d="M 0,0 C 0.284,0.284 0.743,0.284 1.027,0 L 29.02,-27.994 c 0.337,-0.335 0.884,-0.336 1.221,0 l 27.912,27.913 c 0.284,0.284 0.743,0.284 1.027,0 l 1.174,-1.174 c 0.284,-0.283 0.284,-0.743 0,-1.027 L 32.442,-30.195 c -1.55,-1.55 -4.072,-1.55 -5.623,0 L -1.174,-2.201 c -0.284,0.283 -0.284,0.743 0,1.027 z"
                 style="fill:#ffffff;fill-opacity:1;fill-rule:nonzero;stroke:none"
                 id="path286" /></g><g
               id="g288"
               transform="translate(1918.1705,152.7565)"><path
                 d="m 0,0 c 0,-1.276 -0.486,-2.552 -1.457,-3.524 l -16.497,-16.497 c -0.283,-0.283 -0.743,-0.283 -1.027,0 l -1.174,1.175 c -0.283,0.283 -0.283,0.743 0,1.027 l 16.497,16.496 c 0.729,0.729 0.729,1.917 0,2.646 l -16.403,16.402 c -0.283,0.284 -0.283,0.744 0,1.027 l 1.174,1.175 c 0.284,0.283 0.744,0.283 1.027,0 L -1.457,3.524 C -0.486,2.553 0,1.276 0,0"
                 style="fill:#a72740;fill-opacity:1;fill-rule:nonzero;stroke:none"
                 id="path290" /></g><g
               id="g292"
               transform="translate(1893.4784,160.5952)"><path
                 d="M 0,0 V -5.893 H -5.894 V -9.784 H 0 v -5.894 h 3.891 v 5.894 h 5.893 v 3.891 H 3.891 l 0,5.893 z"
                 style="fill:#a72740;fill-opacity:1;fill-rule:nonzero;stroke:none"
                 id="path294" /></g><g
               id="g296"
               transform="translate(1903.625,182.3873)"><path
                 d="M 0,0 C 0.284,-0.284 0.284,-0.743 0,-1.027 L -27.994,-29.02 c -0.335,-0.337 -0.336,-0.884 0,-1.221 l 27.913,-27.912 c 0.284,-0.283 0.284,-0.743 0,-1.027 l -1.174,-1.174 c -0.283,-0.284 -0.743,-0.284 -1.027,0 l -27.913,27.912 c -1.55,1.55 -1.55,4.072 0,5.623 L -2.201,1.174 c 0.283,0.284 0.743,0.284 1.027,0 z"
                 style="fill:#ffffff;fill-opacity:1;fill-rule:nonzero;stroke:none"
                 id="path298" /></g><g
               id="g300"
               transform="translate(1853.7095,154.0308)"><path
                 d="M 0,0 C 0,1.782 1.444,3.226 3.226,3.226 5.007,3.226 6.452,1.782 6.452,0 6.452,-1.782 5.007,-3.226 3.226,-3.226 1.444,-3.226 0,-1.782 0,0"
                 style="fill:#ffffff;fill-opacity:1;fill-rule:nonzero;stroke:none"
                 id="path302" /></g><g
               id="g304"
               transform="translate(1913.6971,18.4952)"><path
                 d="M 0,0 1.287,-1.049 C 1.597,-1.303 1.644,-1.76 1.39,-2.071 L 0.866,-2.715 c -5.354,-6.561 -4.868,-16.031 1.128,-22.028 6.388,-6.387 16.805,-6.411 23.222,-0.054 l 1.091,1.089 0.004,-0.004 0.006,0.005 1.093,-1.09 c 6.417,-6.358 16.834,-6.333 23.221,0.054 5.97,5.969 6.475,15.415 1.176,21.97 l -0.522,0.646 c -0.252,0.312 -0.204,0.769 0.108,1.021 l 1.292,1.044 c 0.311,0.252 0.769,0.204 1.021,-0.108 l 0.521,-0.646 c 6.303,-7.797 5.703,-19.03 -1.395,-26.128 -7.226,-7.227 -18.791,-7.603 -26.47,-1.112 l -0.048,-0.048 -0.05,0.05 c -7.678,-6.493 -19.244,-6.117 -26.471,1.11 -7.13,7.131 -7.706,18.393 -1.34,26.197 l 0.525,0.643 C -0.768,0.207 -0.311,0.254 0,0"
                 style="fill:#a72740;fill-opacity:1;fill-rule:nonzero;stroke:none"
                 id="path306" /></g><g
               id="g308"
               transform="translate(1940.0099,43.6855)"><path
                 d="m 0,0 c 1.276,0 2.552,-0.486 3.524,-1.457 l 16.497,-16.497 c 0.283,-0.283 0.283,-0.743 0,-1.027 l -1.175,-1.174 c -0.283,-0.283 -0.743,-0.283 -1.027,0 L 1.323,-3.658 c -0.729,0.729 -1.917,0.729 -2.646,0 l -16.403,-16.403 c -0.283,-0.283 -0.743,-0.283 -1.027,0 l -1.174,1.174 c -0.283,0.284 -0.283,0.744 0,1.027 L -3.524,-1.457 C -2.553,-0.486 -1.276,0 0,0"
                 style="fill:#a72740;fill-opacity:1;fill-rule:nonzero;stroke:none"
                 id="path310" /></g><g
               id="g312"
               transform="translate(1932.1711,18.9934)"><path
                 d="M 0,0 H 5.893 V -5.894 H 9.784 V 0 h 5.894 V 3.891 H 9.784 V 9.784 H 5.893 V 3.891 L 0,3.891 Z"
                 style="fill:#a72740;fill-opacity:1;fill-rule:nonzero;stroke:none"
                 id="path314" /></g><g
               id="g316"
               transform="translate(1910.379,29.14)"><path
                 d="M 0,0 C 0.284,0.284 0.743,0.284 1.027,0 L 29.02,-27.994 c 0.337,-0.335 0.884,-0.336 1.221,0 l 27.912,27.913 c 0.284,0.284 0.743,0.284 1.027,0 l 1.174,-1.174 c 0.284,-0.283 0.284,-0.743 0,-1.027 L 32.442,-30.195 c -1.55,-1.55 -4.072,-1.55 -5.623,0 L -1.174,-2.201 c -0.284,0.283 -0.284,0.743 0,1.027 z"
                 style="fill:#ffffff;fill-opacity:1;fill-rule:nonzero;stroke:none"
                 id="path318" /></g><g
               id="g320"
               transform="translate(1900.9569,8.9728)"><path
                 d="M 0,0 C 0.284,-0.284 0.284,-0.743 0,-1.027 L -27.994,-29.02 c -0.335,-0.337 -0.336,-0.884 0,-1.221 l 27.913,-27.912 c 0.284,-0.283 0.284,-0.743 0,-1.027 l -1.174,-1.174 c -0.283,-0.284 -0.743,-0.284 -1.027,0 l -27.913,27.912 c -1.55,1.55 -1.55,4.072 0,5.623 L -2.201,1.174 c 0.283,0.284 0.743,0.284 1.027,0 z"
                 style="fill:#ffffff;fill-opacity:1;fill-rule:nonzero;stroke:none"
                 id="path322" /></g></g></g><g
           id="g324"><g
             id="g326"
             clip-path="url(#clipPath330)"><g
               id="g332"
               transform="translate(1968.5699,452.6665)"><path
                 d="M 0,0 -1.287,1.049 C -1.597,1.303 -1.644,1.76 -1.39,2.071 l 0.524,0.644 c 5.353,6.561 4.868,16.031 -1.128,22.028 -6.388,6.387 -16.806,6.411 -23.222,0.054 l -1.091,-1.089 -0.004,0.004 -0.006,-0.005 -1.093,1.09 c -6.417,6.358 -16.834,6.333 -23.221,-0.054 -5.97,-5.969 -6.475,-15.415 -1.176,-21.97 l 0.522,-0.646 c 0.252,-0.312 0.204,-0.769 -0.108,-1.021 l -1.292,-1.044 c -0.311,-0.252 -0.769,-0.204 -1.021,0.108 l -0.521,0.646 c -6.303,7.797 -5.703,19.03 1.395,26.128 7.226,7.227 18.791,7.603 26.469,1.112 l 0.049,0.048 0.049,-0.05 c 7.679,6.493 19.245,6.117 26.472,-1.11 C 7.337,19.813 7.913,8.551 1.547,0.747 L 1.022,0.104 C 0.768,-0.207 0.311,-0.254 0,0"
                 style="fill:#ffffff;fill-opacity:1;fill-rule:nonzero;stroke:none"
                 id="path334" /></g><g
               id="g336"
               transform="translate(1942.2572,427.4762)"><path
                 d="m 0,0 c -1.276,0 -2.552,0.486 -3.524,1.457 l -16.497,16.497 c -0.283,0.283 -0.283,0.743 0,1.027 l 1.175,1.174 c 0.283,0.283 0.743,0.283 1.027,0 L -1.323,3.658 c 0.729,-0.729 1.917,-0.729 2.646,0 l 16.402,16.403 c 0.284,0.283 0.744,0.283 1.027,0 l 1.175,-1.174 c 0.283,-0.284 0.283,-0.744 0,-1.027 L 3.524,1.457 C 2.553,0.486 1.276,0 0,0"
                 style="fill:#ffffff;fill-opacity:1;fill-rule:nonzero;stroke:none"
                 id="path338" /></g><g
               id="g340"
               transform="translate(1971.8881,442.0217)"><path
                 d="M 0,0 C -0.284,-0.284 -0.743,-0.284 -1.027,0 L -29.02,27.994 c -0.337,0.335 -0.884,0.336 -1.221,0 L -58.153,0.081 c -0.284,-0.284 -0.743,-0.284 -1.027,0 l -1.174,1.174 c -0.284,0.283 -0.284,0.743 0,1.027 l 27.912,27.913 c 1.55,1.55 4.072,1.55 5.623,0 L 1.174,2.201 c 0.284,-0.283 0.284,-0.743 0,-1.027 z"
                 style="fill:#ffffff;fill-opacity:1;fill-rule:nonzero;stroke:none"
                 id="path342" /></g><g
               id="g344"
               transform="translate(1917.7936,489.2711)"><path
                 d="m 0,0 c 0,-1.276 -0.486,-2.552 -1.457,-3.524 l -16.496,-16.497 c -0.284,-0.283 -0.744,-0.283 -1.028,0 l -1.174,1.175 c -0.283,0.283 -0.283,0.743 0,1.027 l 16.497,16.496 c 0.729,0.729 0.729,1.917 0,2.646 l -16.403,16.402 c -0.283,0.284 -0.283,0.744 0,1.027 l 1.174,1.175 c 0.284,0.283 0.744,0.283 1.027,0 L -1.457,3.524 C -0.486,2.553 0,1.276 0,0"
                 style="fill:#ffffff;fill-opacity:1;fill-rule:nonzero;stroke:none"
                 id="path346" /></g><g
               id="g348"
               transform="translate(1893.1014,497.1099)"><path
                 d="M 0,0 V -5.893 H -5.894 V -9.784 H 0 v -5.894 h 3.891 v 5.894 h 5.893 v 3.891 H 3.891 l 0,5.893 z"
                 style="fill:#ffffff;fill-opacity:1;fill-rule:nonzero;stroke:none"
                 id="path350" /></g><g
               id="g352"
               transform="translate(1903.248,518.9019)"><path
                 d="M 0,0 C 0.284,-0.284 0.284,-0.743 0,-1.027 L -27.994,-29.02 c -0.335,-0.337 -0.336,-0.884 0,-1.221 l 27.913,-27.912 c 0.284,-0.283 0.284,-0.743 0,-1.027 l -1.174,-1.174 c -0.283,-0.284 -0.743,-0.284 -1.027,0 l -27.913,27.912 c -1.55,1.55 -1.55,4.072 0,5.623 L -2.201,1.174 c 0.283,0.284 0.743,0.284 1.027,0 z"
                 style="fill:#ffffff;fill-opacity:1;fill-rule:nonzero;stroke:none"
                 id="path354" /></g><g
               id="g356"
               transform="translate(1966.2787,290.1427)"><path
                 d="M 0,0 -1.287,1.049 C -1.597,1.303 -1.644,1.76 -1.39,2.071 l 0.524,0.644 c 5.354,6.561 4.868,16.031 -1.128,22.028 -6.388,6.387 -16.805,6.411 -23.222,0.054 l -1.091,-1.089 -0.004,0.004 -0.006,-0.005 -1.093,1.09 c -6.417,6.358 -16.834,6.333 -23.221,-0.054 -5.97,-5.969 -6.475,-15.415 -1.176,-21.97 l 0.522,-0.646 c 0.252,-0.312 0.204,-0.769 -0.108,-1.021 l -1.291,-1.044 c -0.312,-0.252 -0.77,-0.204 -1.022,0.108 l -0.521,0.646 c -6.303,7.797 -5.703,19.03 1.395,26.128 7.226,7.227 18.791,7.603 26.47,1.112 l 0.048,0.048 0.05,-0.05 c 7.678,6.493 19.244,6.117 26.471,-1.11 C 7.337,19.813 7.913,8.551 1.547,0.747 L 1.022,0.104 C 0.768,-0.207 0.311,-0.254 0,0"
                 style="fill:#ffffff;fill-opacity:1;fill-rule:nonzero;stroke:none"
                 id="path358" /></g><g
               id="g360"
               transform="translate(1939.9661,264.9524)"><path
                 d="m 0,0 c -1.276,0 -2.552,0.486 -3.524,1.457 l -16.497,16.497 c -0.283,0.283 -0.283,0.743 0,1.027 l 1.175,1.174 c 0.283,0.283 0.743,0.283 1.027,0 L -1.323,3.658 c 0.729,-0.729 1.917,-0.729 2.646,0 l 16.402,16.403 c 0.284,0.283 0.744,0.283 1.027,0 l 1.175,-1.174 c 0.283,-0.284 0.283,-0.744 0,-1.027 L 3.524,1.457 C 2.553,0.486 1.276,0 0,0"
                 style="fill:#ffffff;fill-opacity:1;fill-rule:nonzero;stroke:none"
                 id="path362" /></g><g
               id="g364"
               transform="translate(1947.8047,289.6446)"><path
                 d="M 0,0 H -5.893 V 5.894 H -9.784 V 0 h -5.894 v -3.891 h 5.894 v -5.893 h 3.891 v 5.893 H 0 Z"
                 style="fill:#ffffff;fill-opacity:1;fill-rule:nonzero;stroke:none"
                 id="path366" /></g><g
               id="g368"
               transform="translate(1969.5968,279.4979)"><path
                 d="M 0,0 C -0.284,-0.284 -0.743,-0.284 -1.027,0 L -29.02,27.994 c -0.337,0.335 -0.884,0.336 -1.221,0 L -58.153,0.081 c -0.284,-0.284 -0.743,-0.284 -1.027,0 l -1.174,1.174 c -0.284,0.283 -0.284,0.743 0,1.027 l 27.912,27.913 c 1.55,1.55 4.072,1.55 5.623,0 L 1.174,2.201 c 0.284,-0.283 0.284,-0.743 0,-1.027 z"
                 style="fill:#ffffff;fill-opacity:1;fill-rule:nonzero;stroke:none"
                 id="path370" /></g><g
               id="g372"
               transform="translate(1913.6971,365.9006)"><path
                 d="M 0,0 1.287,-1.049 C 1.597,-1.303 1.644,-1.76 1.39,-2.071 L 0.866,-2.715 c -5.354,-6.561 -4.868,-16.031 1.128,-22.028 6.388,-6.387 16.805,-6.411 23.222,-0.054 l 1.091,1.089 0.004,-0.004 0.006,0.005 1.093,-1.09 c 6.417,-6.358 16.834,-6.333 23.221,0.054 5.97,5.969 6.475,15.415 1.176,21.97 l -0.522,0.646 c -0.252,0.312 -0.204,0.769 0.108,1.021 l 1.292,1.044 c 0.311,0.252 0.769,0.204 1.021,-0.108 l 0.521,-0.646 c 6.303,-7.797 5.703,-19.03 -1.395,-26.128 -7.226,-7.227 -18.791,-7.603 -26.47,-1.112 l -0.048,-0.048 -0.05,0.05 c -7.678,-6.493 -19.244,-6.117 -26.471,1.11 -7.13,7.131 -7.706,18.393 -1.34,26.197 l 0.525,0.643 C -0.768,0.207 -0.311,0.253 0,0"
                 style="fill:#ffffff;fill-opacity:1;fill-rule:nonzero;stroke:none"
                 id="path374" /></g><g
               id="g376"
               transform="translate(1940.0099,391.0909)"><path
                 d="m 0,0 c 1.276,0 2.552,-0.486 3.524,-1.457 l 16.497,-16.497 c 0.283,-0.283 0.283,-0.743 0,-1.027 l -1.175,-1.174 c -0.283,-0.283 -0.743,-0.283 -1.027,0 L 1.323,-3.658 c -0.729,0.729 -1.917,0.729 -2.646,0 l -16.403,-16.403 c -0.283,-0.283 -0.743,-0.283 -1.027,0 l -1.174,1.174 c -0.283,0.284 -0.283,0.744 0,1.027 L -3.524,-1.457 C -2.553,-0.486 -1.276,0 0,0"
                 style="fill:#ffffff;fill-opacity:1;fill-rule:nonzero;stroke:none"
                 id="path378" /></g><g
               id="g380"
               transform="translate(1932.1711,366.3987)"><path
                 d="M 0,0 H 5.893 V -5.894 H 9.784 V 0 h 5.894 V 3.891 H 9.784 V 9.784 H 5.893 V 3.891 L 0,3.891 Z"
                 style="fill:#ffffff;fill-opacity:1;fill-rule:nonzero;stroke:none"
                 id="path382" /></g><g
               id="g384"
               transform="translate(1910.379,376.5453)"><path
                 d="M 0,0 C 0.284,0.284 0.743,0.284 1.027,0 L 29.02,-27.994 c 0.337,-0.335 0.884,-0.336 1.221,0 l 27.912,27.913 c 0.284,0.284 0.743,0.284 1.027,0 l 1.174,-1.174 c 0.284,-0.283 0.284,-0.743 0,-1.027 L 32.442,-30.195 c -1.55,-1.55 -4.072,-1.55 -5.623,0 L -1.174,-2.201 c -0.284,0.283 -0.284,0.743 0,1.027 z"
                 style="fill:#ffffff;fill-opacity:1;fill-rule:nonzero;stroke:none"
                 id="path386" /></g><g
               id="g388"
               transform="translate(1915.5023,326.7473)"><path
                 d="m 0,0 c 0,-1.276 -0.486,-2.552 -1.457,-3.524 l -16.496,-16.497 c -0.284,-0.283 -0.744,-0.283 -1.027,0 l -1.175,1.175 c -0.283,0.283 -0.283,0.743 0,1.027 l 16.497,16.496 c 0.729,0.729 0.729,1.917 0,2.646 l -16.403,16.402 c -0.283,0.284 -0.283,0.744 0,1.027 l 1.174,1.175 c 0.284,0.283 0.744,0.283 1.027,0 L -1.457,3.524 C -0.486,2.553 0,1.276 0,0"
                 style="fill:#ffffff;fill-opacity:1;fill-rule:nonzero;stroke:none"
                 id="path390" /></g><g
               id="g392"
               transform="translate(1890.8102,334.586)"><path
                 d="M 0,0 V -5.893 H -5.894 V -9.784 H 0 v -5.894 h 3.891 v 5.894 h 5.893 v 3.891 H 3.891 l 0,5.893 z"
                 style="fill:#ffffff;fill-opacity:1;fill-rule:nonzero;stroke:none"
                 id="path394" /></g><g
               id="g396"
               transform="translate(1900.9569,356.3781)"><path
                 d="M 0,0 C 0.284,-0.284 0.284,-0.743 0,-1.027 L -27.994,-29.02 c -0.335,-0.337 -0.336,-0.884 0,-1.221 l 27.913,-27.912 c 0.284,-0.283 0.284,-0.743 0,-1.027 l -1.174,-1.174 c -0.283,-0.284 -0.743,-0.284 -1.027,0 l -27.913,27.912 c -1.55,1.55 -1.55,4.072 0,5.623 L -2.201,1.174 c 0.283,0.284 0.743,0.284 1.027,0 z"
                 style="fill:#ffffff;fill-opacity:1;fill-rule:nonzero;stroke:none"
                 id="path398" /></g><g
               id="g400"
               transform="translate(1851.0413,328.0216)"><path
                 d="M 0,0 C 0,1.782 1.444,3.226 3.226,3.226 5.007,3.226 6.452,1.782 6.452,0 6.452,-1.782 5.007,-3.226 3.226,-3.226 1.444,-3.226 0,-1.782 0,0"
                 style="fill:#ffffff;fill-opacity:1;fill-rule:nonzero;stroke:none"
                 id="path402" /></g><g
               id="g404"
               transform="translate(1968.9469,116.1519)"><path
                 d="M 0,0 -1.287,1.049 C -1.597,1.303 -1.644,1.76 -1.39,2.071 l 0.524,0.644 c 5.353,6.561 4.868,16.031 -1.128,22.028 -6.388,6.387 -16.806,6.411 -23.222,0.054 l -1.091,-1.089 -0.004,0.004 -0.006,-0.005 -1.093,1.09 c -6.417,6.358 -16.834,6.333 -23.221,-0.054 -5.97,-5.969 -6.475,-15.415 -1.176,-21.97 l 0.522,-0.646 c 0.252,-0.312 0.204,-0.769 -0.108,-1.021 l -1.292,-1.044 c -0.312,-0.252 -0.769,-0.204 -1.021,0.108 l -0.521,0.646 c -6.303,7.797 -5.703,19.03 1.395,26.128 7.226,7.227 18.791,7.603 26.469,1.112 l 0.049,0.048 0.049,-0.05 c 7.679,6.493 19.245,6.117 26.472,-1.11 C 7.337,19.813 7.913,8.551 1.546,0.747 L 1.022,0.104 C 0.768,-0.207 0.311,-0.254 0,0"
                 style="fill:#ffffff;fill-opacity:1;fill-rule:nonzero;stroke:none"
                 id="path406" /></g><g
               id="g408"
               transform="translate(1942.6342,90.9616)"><path
                 d="m 0,0 c -1.276,0 -2.552,0.486 -3.524,1.457 l -16.497,16.497 c -0.283,0.283 -0.283,0.743 0,1.027 l 1.175,1.174 c 0.283,0.283 0.743,0.283 1.027,0 L -1.323,3.658 c 0.729,-0.729 1.917,-0.729 2.646,0 l 16.402,16.403 c 0.284,0.283 0.744,0.283 1.027,0 l 1.175,-1.174 c 0.283,-0.284 0.283,-0.744 0,-1.027 L 3.524,1.457 C 2.553,0.486 1.276,0 0,0"
                 style="fill:#ffffff;fill-opacity:1;fill-rule:nonzero;stroke:none"
                 id="path410" /></g><g
               id="g412"
               transform="translate(1972.2649,105.5071)"><path
                 d="M 0,0 C -0.284,-0.284 -0.743,-0.284 -1.027,0 L -29.02,27.994 c -0.337,0.335 -0.884,0.336 -1.221,0 L -58.153,0.081 c -0.283,-0.284 -0.743,-0.284 -1.027,0 l -1.174,1.174 c -0.284,0.283 -0.284,0.743 0,1.027 l 27.912,27.913 c 1.55,1.55 4.072,1.55 5.623,0 L 1.174,2.201 c 0.284,-0.283 0.284,-0.743 0,-1.027 z"
                 style="fill:#ffffff;fill-opacity:1;fill-rule:nonzero;stroke:none"
                 id="path414" /></g><g
               id="g416"
               transform="translate(1916.3652,191.9097)"><path
                 d="M 0,0 1.287,-1.049 C 1.597,-1.303 1.644,-1.76 1.39,-2.071 L 0.866,-2.715 c -5.353,-6.561 -4.868,-16.031 1.128,-22.028 6.388,-6.387 16.806,-6.411 23.222,-0.054 l 1.091,1.089 0.004,-0.004 0.006,0.005 1.093,-1.09 c 6.417,-6.358 16.834,-6.333 23.221,0.054 5.97,5.969 6.475,15.415 1.176,21.97 l -0.522,0.646 c -0.252,0.312 -0.204,0.769 0.108,1.021 l 1.292,1.044 c 0.311,0.252 0.769,0.204 1.021,-0.108 l 0.521,-0.646 c 6.303,-7.797 5.703,-19.03 -1.395,-26.128 -7.226,-7.227 -18.791,-7.603 -26.469,-1.112 l -0.049,-0.048 -0.05,0.05 c -7.678,-6.493 -19.244,-6.117 -26.471,1.11 -7.13,7.131 -7.706,18.393 -1.34,26.197 l 0.525,0.643 C -0.768,0.207 -0.311,0.254 0,0"
                 style="fill:#ffffff;fill-opacity:1;fill-rule:nonzero;stroke:none"
                 id="path418" /></g><g
               id="g420"
               transform="translate(1942.678,217.1)"><path
                 d="m 0,0 c 1.276,0 2.552,-0.486 3.524,-1.457 l 16.497,-16.497 c 0.283,-0.283 0.283,-0.743 0,-1.027 l -1.175,-1.174 c -0.283,-0.283 -0.743,-0.283 -1.027,0 L 1.323,-3.658 c -0.729,0.729 -1.917,0.729 -2.646,0 l -16.402,-16.403 c -0.284,-0.283 -0.744,-0.283 -1.027,0 l -1.175,1.174 c -0.283,0.284 -0.283,0.744 0,1.027 L -3.524,-1.457 C -2.553,-0.486 -1.276,0 0,0"
                 style="fill:#ffffff;fill-opacity:1;fill-rule:nonzero;stroke:none"
                 id="path422" /></g><g
               id="g424"
               transform="translate(1913.0471,202.5545)"><path
                 d="M 0,0 C 0.284,0.284 0.743,0.284 1.027,0 L 29.02,-27.994 c 0.337,-0.335 0.884,-0.336 1.221,0 l 27.912,27.913 c 0.284,0.284 0.743,0.284 1.027,0 l 1.174,-1.174 c 0.284,-0.283 0.284,-0.743 0,-1.027 L 32.442,-30.195 c -1.55,-1.55 -4.072,-1.55 -5.623,0 L -1.174,-2.201 c -0.284,0.283 -0.284,0.743 0,1.027 z"
                 style="fill:#ffffff;fill-opacity:1;fill-rule:nonzero;stroke:none"
                 id="path426" /></g><g
               id="g428"
               transform="translate(1918.1705,152.7565)"><path
                 d="m 0,0 c 0,-1.276 -0.486,-2.552 -1.457,-3.524 l -16.497,-16.497 c -0.283,-0.283 -0.743,-0.283 -1.027,0 l -1.174,1.175 c -0.283,0.283 -0.283,0.743 0,1.027 l 16.497,16.496 c 0.729,0.729 0.729,1.917 0,2.646 l -16.403,16.402 c -0.283,0.284 -0.283,0.744 0,1.027 l 1.174,1.175 c 0.284,0.283 0.744,0.283 1.027,0 L -1.457,3.524 C -0.486,2.553 0,1.276 0,0"
                 style="fill:#ffffff;fill-opacity:1;fill-rule:nonzero;stroke:none"
                 id="path430" /></g><g
               id="g432"
               transform="translate(1893.4784,160.5952)"><path
                 d="M 0,0 V -5.893 H -5.894 V -9.784 H 0 v -5.894 h 3.891 v 5.894 h 5.893 v 3.891 H 3.891 l 0,5.893 z"
                 style="fill:#ffffff;fill-opacity:1;fill-rule:nonzero;stroke:none"
                 id="path434" /></g><g
               id="g436"
               transform="translate(1903.625,182.3873)"><path
                 d="M 0,0 C 0.284,-0.284 0.284,-0.743 0,-1.027 L -27.994,-29.02 c -0.335,-0.337 -0.336,-0.884 0,-1.221 l 27.913,-27.912 c 0.284,-0.283 0.284,-0.743 0,-1.027 l -1.174,-1.174 c -0.283,-0.284 -0.743,-0.284 -1.027,0 l -27.913,27.912 c -1.55,1.55 -1.55,4.072 0,5.623 L -2.201,1.174 c 0.283,0.284 0.743,0.284 1.027,0 z"
                 style="fill:#ffffff;fill-opacity:1;fill-rule:nonzero;stroke:none"
                 id="path438" /></g><g
               id="g440"
               transform="translate(1853.7095,154.0308)"><path
                 d="M 0,0 C 0,1.782 1.444,3.226 3.226,3.226 5.007,3.226 6.452,1.782 6.452,0 6.452,-1.782 5.007,-3.226 3.226,-3.226 1.444,-3.226 0,-1.782 0,0"
                 style="fill:#ffffff;fill-opacity:1;fill-rule:nonzero;stroke:none"
                 id="path442" /></g><g
               id="g444"
               transform="translate(1913.6971,18.4952)"><path
                 d="M 0,0 1.287,-1.049 C 1.597,-1.303 1.644,-1.76 1.39,-2.071 L 0.866,-2.715 c -5.354,-6.561 -4.868,-16.031 1.128,-22.028 6.388,-6.387 16.805,-6.411 23.222,-0.054 l 1.091,1.089 0.004,-0.004 0.006,0.005 1.093,-1.09 c 6.417,-6.358 16.834,-6.333 23.221,0.054 5.97,5.969 6.475,15.415 1.176,21.97 l -0.522,0.646 c -0.252,0.312 -0.204,0.769 0.108,1.021 l 1.292,1.044 c 0.311,0.252 0.769,0.204 1.021,-0.108 l 0.521,-0.646 c 6.303,-7.797 5.703,-19.03 -1.395,-26.128 -7.226,-7.227 -18.791,-7.603 -26.47,-1.112 l -0.048,-0.048 -0.05,0.05 c -7.678,-6.493 -19.244,-6.117 -26.471,1.11 -7.13,7.131 -7.706,18.393 -1.34,26.197 l 0.525,0.643 C -0.768,0.207 -0.311,0.254 0,0"
                 style="fill:#ffffff;fill-opacity:1;fill-rule:nonzero;stroke:none"
                 id="path446" /></g><g
               id="g448"
               transform="translate(1940.0099,43.6855)"><path
                 d="m 0,0 c 1.276,0 2.552,-0.486 3.524,-1.457 l 16.497,-16.497 c 0.283,-0.283 0.283,-0.743 0,-1.027 l -1.175,-1.174 c -0.283,-0.283 -0.743,-0.283 -1.027,0 L 1.323,-3.658 c -0.729,0.729 -1.917,0.729 -2.646,0 l -16.403,-16.403 c -0.283,-0.283 -0.743,-0.283 -1.027,0 l -1.174,1.174 c -0.283,0.284 -0.283,0.744 0,1.027 L -3.524,-1.457 C -2.553,-0.486 -1.276,0 0,0"
                 style="fill:#ffffff;fill-opacity:1;fill-rule:nonzero;stroke:none"
                 id="path450" /></g><g
               id="g452"
               transform="translate(1932.1711,18.9934)"><path
                 d="M 0,0 H 5.893 V -5.894 H 9.784 V 0 h 5.894 V 3.891 H 9.784 V 9.784 H 5.893 V 3.891 L 0,3.891 Z"
                 style="fill:#ffffff;fill-opacity:1;fill-rule:nonzero;stroke:none"
                 id="path454" /></g><g
               id="g456"
               transform="translate(1910.379,29.14)"><path
                 d="M 0,0 C 0.284,0.284 0.743,0.284 1.027,0 L 29.02,-27.994 c 0.337,-0.335 0.884,-0.336 1.221,0 l 27.912,27.913 c 0.284,0.284 0.743,0.284 1.027,0 l 1.174,-1.174 c 0.284,-0.283 0.284,-0.743 0,-1.027 L 32.442,-30.195 c -1.55,-1.55 -4.072,-1.55 -5.623,0 L -1.174,-2.201 c -0.284,0.283 -0.284,0.743 0,1.027 z"
                 style="fill:#ffffff;fill-opacity:1;fill-rule:nonzero;stroke:none"
                 id="path458" /></g><g
               id="g460"
               transform="translate(1900.9569,8.9728)"><path
                 d="M 0,0 C 0.284,-0.284 0.284,-0.743 0,-1.027 L -27.994,-29.02 c -0.335,-0.337 -0.336,-0.884 0,-1.221 l 27.913,-27.912 c 0.284,-0.283 0.284,-0.743 0,-1.027 l -1.174,-1.174 c -0.283,-0.284 -0.743,-0.284 -1.027,0 l -27.913,27.912 c -1.55,1.55 -1.55,4.072 0,5.623 L -2.201,1.174 c 0.283,0.284 0.743,0.284 1.027,0 z"
                 style="fill:#ffffff;fill-opacity:1;fill-rule:nonzero;stroke:none"
                 id="path462" /></g></g></g><g
           id="g464"><g
             id="g466"
             clip-path="url(#clipPath470)"><g
               id="g472"
               transform="translate(1968.5699,824.2955)"><path
                 d="M 0,0 -1.287,1.049 C -1.597,1.303 -1.644,1.76 -1.39,2.071 l 0.524,0.644 c 5.353,6.561 4.868,16.031 -1.128,22.028 -6.388,6.387 -16.806,6.411 -23.222,0.054 l -1.091,-1.089 -0.004,0.004 -0.006,-0.005 -1.093,1.09 c -6.417,6.358 -16.834,6.333 -23.221,-0.054 -5.97,-5.969 -6.475,-15.415 -1.176,-21.97 l 0.522,-0.646 c 0.252,-0.312 0.204,-0.769 -0.108,-1.021 l -1.292,-1.044 c -0.311,-0.252 -0.769,-0.203 -1.021,0.108 l -0.521,0.646 c -6.303,7.797 -5.703,19.03 1.395,26.128 7.226,7.227 18.791,7.603 26.469,1.112 l 0.049,0.048 0.049,-0.05 c 7.679,6.493 19.245,6.117 26.472,-1.11 C 7.337,19.813 7.913,8.551 1.547,0.747 L 1.022,0.104 C 0.768,-0.207 0.311,-0.253 0,0"
                 style="fill:#a72740;fill-opacity:1;fill-rule:nonzero;stroke:none"
                 id="path474" /></g><g
               id="g476"
               transform="translate(1942.2572,799.1053)"><path
                 d="m 0,0 c -1.276,0 -2.552,0.486 -3.524,1.457 l -16.497,16.497 c -0.283,0.283 -0.283,0.743 0,1.027 l 1.175,1.174 c 0.283,0.283 0.743,0.283 1.027,0 L -1.323,3.658 c 0.729,-0.729 1.917,-0.729 2.646,0 l 16.402,16.403 c 0.284,0.283 0.744,0.283 1.027,0 l 1.175,-1.174 c 0.283,-0.284 0.283,-0.744 0,-1.027 L 3.524,1.457 C 2.553,0.486 1.276,0 0,0"
                 style="fill:#a72740;fill-opacity:1;fill-rule:nonzero;stroke:none"
                 id="path478" /></g><g
               id="g480"
               transform="translate(1971.8881,813.6508)"><path
                 d="M 0,0 C -0.284,-0.284 -0.743,-0.284 -1.027,0 L -29.02,27.994 c -0.337,0.335 -0.884,0.336 -1.221,0 L -58.153,0.081 c -0.284,-0.284 -0.743,-0.284 -1.027,0 l -1.174,1.174 c -0.284,0.283 -0.284,0.743 0,1.027 l 27.912,27.913 c 1.55,1.55 4.072,1.55 5.623,0 L 1.174,2.201 c 0.284,-0.283 0.284,-0.743 0,-1.027 z"
                 style="fill:#02b4cf;fill-opacity:1;fill-rule:nonzero;stroke:none"
                 id="path482" /></g><g
               id="g484"
               transform="translate(1917.7936,860.9001)"><path
                 d="m 0,0 c 0,-1.276 -0.486,-2.552 -1.457,-3.524 l -16.496,-16.497 c -0.284,-0.283 -0.744,-0.283 -1.028,0 l -1.174,1.175 c -0.283,0.283 -0.283,0.743 0,1.027 l 16.497,16.496 c 0.729,0.729 0.729,1.917 0,2.646 l -16.403,16.403 c -0.283,0.283 -0.283,0.743 0,1.027 l 1.174,1.174 c 0.284,0.283 0.744,0.283 1.027,0 L -1.457,3.524 C -0.486,2.553 0,1.276 0,0"
                 style="fill:#a72740;fill-opacity:1;fill-rule:nonzero;stroke:none"
                 id="path486" /></g><g
               id="g488"
               transform="translate(1893.1014,868.7389)"><path
                 d="M 0,0 V -5.893 H -5.894 V -9.784 H 0 v -5.894 h 3.891 v 5.894 h 5.893 v 3.891 H 3.891 l 0,5.893 z"
                 style="fill:#a72740;fill-opacity:1;fill-rule:nonzero;stroke:none"
                 id="path490" /></g><g
               id="g492"
               transform="translate(1903.248,890.5309)"><path
                 d="M 0,0 C 0.284,-0.284 0.284,-0.743 0,-1.027 L -27.994,-29.02 c -0.335,-0.337 -0.336,-0.884 0,-1.221 l 27.913,-27.912 c 0.284,-0.283 0.284,-0.743 0,-1.027 l -1.174,-1.174 c -0.283,-0.284 -0.743,-0.284 -1.027,0 l -27.913,27.912 c -1.55,1.55 -1.55,4.072 0,5.623 L -2.201,1.174 c 0.283,0.284 0.743,0.284 1.027,0 z"
                 style="fill:#02b4cf;fill-opacity:1;fill-rule:nonzero;stroke:none"
                 id="path494" /></g><g
               id="g496"
               transform="translate(1968.5699,567.6951)"><path
                 d="M 0,0 -1.287,-1.049 C -1.597,-1.303 -1.644,-1.76 -1.39,-2.071 l 0.524,-0.643 c 5.353,-6.562 4.868,-16.032 -1.128,-22.029 -6.388,-6.387 -16.806,-6.411 -23.222,-0.054 l -1.091,1.089 -0.004,-0.004 -0.006,0.005 -1.093,-1.09 c -6.417,-6.358 -16.834,-6.333 -23.221,0.054 -5.97,5.969 -6.475,15.415 -1.176,21.97 l 0.522,0.646 c 0.252,0.312 0.204,0.769 -0.108,1.021 l -1.292,1.044 c -0.311,0.252 -0.769,0.204 -1.021,-0.108 l -0.521,-0.646 c -6.303,-7.797 -5.703,-19.03 1.395,-26.128 7.226,-7.227 18.791,-7.603 26.469,-1.112 l 0.049,-0.048 0.049,0.05 c 7.679,-6.493 19.245,-6.117 26.472,1.11 7.13,7.131 7.706,18.393 1.34,26.197 L 1.022,-0.104 C 0.768,0.207 0.311,0.254 0,0"
                 style="fill:#a72740;fill-opacity:1;fill-rule:nonzero;stroke:none"
                 id="path498" /></g><g
               id="g500"
               transform="translate(1942.2572,592.8854)"><path
                 d="m 0,0 c -1.276,0 -2.552,-0.486 -3.524,-1.457 l -16.497,-16.497 c -0.283,-0.283 -0.283,-0.743 0,-1.027 l 1.175,-1.174 c 0.283,-0.283 0.743,-0.283 1.027,0 l 16.496,16.497 c 0.729,0.729 1.917,0.729 2.646,0 l 16.402,-16.403 c 0.284,-0.283 0.744,-0.283 1.027,0 l 1.175,1.174 c 0.283,0.284 0.283,0.744 0,1.027 L 3.524,-1.457 C 2.553,-0.486 1.276,0 0,0"
                 style="fill:#a72740;fill-opacity:1;fill-rule:nonzero;stroke:none"
                 id="path502" /></g><g
               id="g504"
               transform="translate(1971.8881,578.3399)"><path
                 d="M 0,0 C -0.284,0.284 -0.743,0.284 -1.027,0 L -29.02,-27.994 c -0.337,-0.335 -0.884,-0.336 -1.221,0 l -27.912,27.913 c -0.284,0.284 -0.743,0.284 -1.027,0 l -1.174,-1.174 c -0.284,-0.283 -0.284,-0.743 0,-1.027 l 27.912,-27.913 c 1.55,-1.55 4.072,-1.55 5.623,0 L 1.174,-2.201 c 0.284,0.283 0.284,0.743 0,1.027 z"
                 style="fill:#02b4cf;fill-opacity:1;fill-rule:nonzero;stroke:none"
                 id="path506" /></g><g
               id="g508"
               transform="translate(1917.7936,531.0905)"><path
                 d="m 0,0 c 0,1.276 -0.486,2.552 -1.457,3.524 l -16.496,16.497 c -0.284,0.283 -0.744,0.283 -1.028,0 l -1.174,-1.175 c -0.283,-0.283 -0.283,-0.743 0,-1.027 L -3.658,1.323 c 0.729,-0.729 0.729,-1.917 0,-2.646 l -16.403,-16.402 c -0.283,-0.284 -0.283,-0.744 0,-1.027 l 1.174,-1.175 c 0.284,-0.283 0.744,-0.283 1.027,0 L -1.457,-3.524 C -0.486,-2.553 0,-1.276 0,0"
                 style="fill:#a72740;fill-opacity:1;fill-rule:nonzero;stroke:none"
                 id="path510" /></g><g
               id="g512"
               transform="translate(1893.1014,523.2518)"><path
                 d="M 0,0 V 5.893 H -5.894 V 9.784 H 0 v 5.894 H 3.891 V 9.784 H 9.784 V 5.893 H 3.891 L 3.891,0 Z"
                 style="fill:#a72740;fill-opacity:1;fill-rule:nonzero;stroke:none"
                 id="path514" /></g><g
               id="g516"
               transform="translate(1903.248,501.4597)"><path
                 d="M 0,0 C 0.284,0.284 0.284,0.743 0,1.027 L -27.994,29.02 c -0.335,0.337 -0.336,0.884 0,1.221 l 27.913,27.912 c 0.284,0.283 0.284,0.743 0,1.027 l -1.174,1.174 c -0.283,0.284 -0.743,0.284 -1.027,0 L -30.195,32.442 c -1.55,-1.55 -1.55,-4.072 0,-5.623 L -2.201,-1.174 c 0.283,-0.284 0.743,-0.284 1.027,0 z"
                 style="fill:#02b4cf;fill-opacity:1;fill-rule:nonzero;stroke:none"
                 id="path518" /></g><g
               id="g520"
               transform="translate(1966.2787,661.7717)"><path
                 d="M 0,0 -1.287,1.049 C -1.597,1.303 -1.644,1.76 -1.39,2.071 l 0.524,0.644 c 5.354,6.561 4.868,16.031 -1.128,22.028 -6.388,6.387 -16.805,6.411 -23.222,0.054 l -1.091,-1.089 -0.004,0.004 -0.006,-0.005 -1.093,1.09 c -6.417,6.358 -16.834,6.333 -23.221,-0.054 -5.97,-5.969 -6.475,-15.415 -1.176,-21.97 l 0.522,-0.646 c 0.252,-0.312 0.204,-0.769 -0.108,-1.021 l -1.291,-1.044 c -0.312,-0.252 -0.77,-0.204 -1.022,0.108 l -0.521,0.646 c -6.303,7.797 -5.703,19.03 1.395,26.128 7.226,7.227 18.791,7.603 26.47,1.112 l 0.048,0.048 0.05,-0.05 c 7.678,6.493 19.244,6.117 26.471,-1.11 C 7.337,19.813 7.913,8.551 1.547,0.747 L 1.022,0.104 C 0.768,-0.207 0.311,-0.253 0,0"
                 style="fill:#a72740;fill-opacity:1;fill-rule:nonzero;stroke:none"
                 id="path522" /></g><g
               id="g524"
               transform="translate(1939.9661,636.5815)"><path
                 d="m 0,0 c -1.276,0 -2.552,0.486 -3.524,1.457 l -16.497,16.496 c -0.283,0.284 -0.283,0.744 0,1.028 l 1.175,1.174 c 0.283,0.283 0.743,0.283 1.027,0 L -1.323,3.658 c 0.729,-0.729 1.917,-0.729 2.646,0 l 16.402,16.403 c 0.284,0.283 0.744,0.283 1.027,0 l 1.175,-1.174 c 0.283,-0.284 0.283,-0.744 0,-1.027 L 3.524,1.457 C 2.553,0.486 1.276,0 0,0"
                 style="fill:#a72740;fill-opacity:1;fill-rule:nonzero;stroke:none"
                 id="path526" /></g><g
               id="g528"
               transform="translate(1947.8047,661.2736)"><path
                 d="M 0,0 H -5.893 V 5.894 H -9.784 V 0 h -5.894 v -3.891 h 5.894 v -5.893 h 3.891 v 5.893 H 0 Z"
                 style="fill:#a72740;fill-opacity:1;fill-rule:nonzero;stroke:none"
                 id="path530" /></g><g
               id="g532"
               transform="translate(1969.5968,651.127)"><path
                 d="M 0,0 C -0.284,-0.284 -0.743,-0.284 -1.027,0 L -29.02,27.994 c -0.337,0.335 -0.884,0.336 -1.221,0 L -58.153,0.081 c -0.284,-0.284 -0.743,-0.284 -1.027,0 l -1.174,1.174 c -0.284,0.283 -0.284,0.743 0,1.027 l 27.912,27.913 c 1.55,1.55 4.072,1.55 5.623,0 L 1.174,2.201 c 0.284,-0.283 0.284,-0.743 0,-1.027 z"
                 style="fill:#02b4cf;fill-opacity:1;fill-rule:nonzero;stroke:none"
                 id="path534" /></g><g
               id="g536"
               transform="translate(1913.6971,737.5296)"><path
                 d="M 0,0 1.287,-1.049 C 1.597,-1.303 1.644,-1.76 1.39,-2.071 L 0.866,-2.715 c -5.354,-6.561 -4.868,-16.031 1.128,-22.028 6.388,-6.387 16.805,-6.411 23.222,-0.054 l 1.091,1.089 0.004,-0.004 0.006,0.005 1.093,-1.09 c 6.417,-6.358 16.834,-6.333 23.221,0.054 5.97,5.969 6.475,15.415 1.176,21.97 l -0.522,0.646 c -0.252,0.312 -0.204,0.769 0.108,1.021 l 1.292,1.044 c 0.311,0.252 0.769,0.204 1.021,-0.108 l 0.521,-0.646 c 6.303,-7.797 5.703,-19.03 -1.395,-26.128 -7.226,-7.227 -18.791,-7.603 -26.47,-1.112 l -0.048,-0.048 -0.05,0.05 c -7.678,-6.493 -19.244,-6.117 -26.471,1.11 -7.13,7.131 -7.706,18.393 -1.34,26.197 l 0.525,0.643 C -0.768,0.207 -0.311,0.254 0,0"
                 style="fill:#a72740;fill-opacity:1;fill-rule:nonzero;stroke:none"
                 id="path538" /></g><g
               id="g540"
               transform="translate(1940.0099,762.7199)"><path
                 d="m 0,0 c 1.276,0 2.552,-0.486 3.524,-1.457 l 16.497,-16.497 c 0.283,-0.283 0.283,-0.743 0,-1.027 l -1.175,-1.174 c -0.283,-0.283 -0.743,-0.283 -1.027,0 L 1.323,-3.658 c -0.729,0.729 -1.917,0.729 -2.646,0 l -16.403,-16.403 c -0.283,-0.283 -0.743,-0.283 -1.027,0 l -1.174,1.174 c -0.283,0.284 -0.283,0.744 0,1.027 L -3.524,-1.457 C -2.553,-0.486 -1.276,0 0,0"
                 style="fill:#a72740;fill-opacity:1;fill-rule:nonzero;stroke:none"
                 id="path542" /></g><g
               id="g544"
               transform="translate(1932.1711,738.0277)"><path
                 d="M 0,0 H 5.893 V -5.894 H 9.784 V 0 h 5.894 V 3.891 H 9.784 V 9.784 H 5.893 V 3.891 L 0,3.891 Z"
                 style="fill:#a72740;fill-opacity:1;fill-rule:nonzero;stroke:none"
                 id="path546" /></g><g
               id="g548"
               transform="translate(1910.379,748.1744)"><path
                 d="M 0,0 C 0.284,0.284 0.743,0.284 1.027,0 L 29.02,-27.994 c 0.337,-0.335 0.884,-0.336 1.221,0 l 27.912,27.913 c 0.284,0.284 0.743,0.284 1.027,0 l 1.174,-1.174 c 0.284,-0.283 0.284,-0.743 0,-1.027 L 32.442,-30.195 c -1.55,-1.55 -4.072,-1.55 -5.623,0 L -1.174,-2.201 c -0.284,0.283 -0.284,0.743 0,1.027 z"
                 style="fill:#02b4cf;fill-opacity:1;fill-rule:nonzero;stroke:none"
                 id="path550" /></g><g
               id="g552"
               transform="translate(1915.5023,698.3763)"><path
                 d="m 0,0 c 0,-1.276 -0.486,-2.552 -1.457,-3.524 l -16.496,-16.497 c -0.284,-0.283 -0.744,-0.283 -1.027,0 l -1.175,1.175 c -0.283,0.283 -0.283,0.743 0,1.027 l 16.497,16.496 c 0.729,0.729 0.729,1.917 0,2.646 l -16.403,16.403 c -0.283,0.283 -0.283,0.743 0,1.027 l 1.174,1.174 c 0.284,0.283 0.744,0.283 1.027,0 L -1.457,3.524 C -0.486,2.553 0,1.276 0,0"
                 style="fill:#a72740;fill-opacity:1;fill-rule:nonzero;stroke:none"
                 id="path554" /></g><g
               id="g556"
               transform="translate(1890.8102,706.2151)"><path
                 d="M 0,0 V -5.893 H -5.894 V -9.784 H 0 v -5.894 h 3.891 v 5.894 h 5.893 v 3.891 H 3.891 l 0,5.893 z"
                 style="fill:#a72740;fill-opacity:1;fill-rule:nonzero;stroke:none"
                 id="path558" /></g><g
               id="g560"
               transform="translate(1900.9569,728.0071)"><path
                 d="M 0,0 C 0.284,-0.284 0.284,-0.743 0,-1.027 L -27.994,-29.02 c -0.335,-0.337 -0.336,-0.884 0,-1.221 l 27.913,-27.912 c 0.284,-0.283 0.284,-0.743 0,-1.027 l -1.174,-1.174 c -0.283,-0.284 -0.743,-0.284 -1.027,0 l -27.913,27.912 c -1.55,1.55 -1.55,4.072 0,5.623 L -2.201,1.174 c 0.283,0.284 0.743,0.284 1.027,0 z"
                 style="fill:#02b4cf;fill-opacity:1;fill-rule:nonzero;stroke:none"
                 id="path562" /></g><g
               id="g564"
               transform="translate(1851.0413,699.6507)"><path
                 d="M 0,0 C 0,1.782 1.444,3.226 3.226,3.226 5.007,3.226 6.452,1.782 6.452,0 6.452,-1.782 5.007,-3.226 3.226,-3.226 1.444,-3.226 0,-1.782 0,0"
                 style="fill:#02b4cf;fill-opacity:1;fill-rule:nonzero;stroke:none"
                 id="path566" /></g></g></g></g></g></g></svg>
